<?xml version="1.0" encoding="utf-8"?>
<!-- Generator: Adobe Illustrator 26.0.1, SVG Export Plug-In . SVG Version: 6.00 Build 0)  -->
<svg version="1.1" id="Layer_1" xmlns="http://www.w3.org/2000/svg" xmlns:xlink="http://www.w3.org/1999/xlink" x="0px" y="0px"
	 viewBox="0 0 100 100" style="enable-background:new 0 0 100 100;" xml:space="preserve">
<g>
	<g id="Layer_1_00000055674551077184400300000002225775345521715886_">
		
			<image style="display:none;overflow:visible;opacity:0.2;enable-background:new    ;" width="668" height="659" xlink:href="DD638CFE.png"  transform="matrix(0.24 0 0 0.24 -12.17 -11.18)">
		</image>
		<path d="M66,50c8.6-9.6,8.5-24.2-0.3-33.7c-7.6-8.2-20.2-9.2-29.1-2.4c-4.5,3.4-7.6,8.2-8.7,13.7c-1.8,8.5,0.3,16,6,22.5
			c-7.7,3.4-14.2,9-18.7,16.2c-4.6,7.3-7.1,15.7-7,24.3h6.8c0-0.5,0.1-0.9,0.1-1.4c0.7-15.6,10.6-29.1,24.7-33.6
			c0.8-0.2,1.6-0.2,2.4,0c4.9,1.8,10.2,1.8,15.1,0c0.7-0.3,1.5-0.3,2.3-0.1C72.8,60.1,80.9,69.4,84,83.6c0.5,2.3,0.6,4.7,0.9,7.1
			h6.9C90.8,71.6,82.2,58.1,66,50z M49.9,49.7c-8.8-0.1-15.7-7.5-15.7-16.6s7.1-16.5,15.7-16.4s15.5,7.5,15.5,16.7
			C65.3,42.3,58.3,49.7,49.9,49.7L49.9,49.7z"/>
		
			<image style="display:none;overflow:visible;opacity:0.2;enable-background:new    ;" width="702" height="702" xlink:href="DD638D02.png"  transform="matrix(0.24 0 0 0.24 -141.24 -148.76)">
		</image>
	</g>
</g>
</svg>
