<?xml version="1.0" encoding="utf-8"?>
<!-- Generator: Adobe Illustrator 26.0.1, SVG Export Plug-In . SVG Version: 6.00 Build 0)  -->
<svg version="1.1" id="Layer_1" xmlns="http://www.w3.org/2000/svg" xmlns:xlink="http://www.w3.org/1999/xlink" x="0px" y="0px"
	 viewBox="0 0 100 100" style="enable-background:new 0 0 100 100;" xml:space="preserve">
<g>
	<g id="Layer_1_00000070083024398247348790000016905143860768564617_">
		
			<image style="display:none;overflow:visible;opacity:0.2;enable-background:new    ;" width="702" height="702" xlink:href="98AFFA30.png"  transform="matrix(0.24 0 0 0.24 -141.24 -148.76)">
		</image>
		
			<image style="display:none;overflow:visible;opacity:0.2;enable-background:new    ;" width="678" height="672" xlink:href="98AFFA31.png"  transform="matrix(0.24 0 0 0.24 -13.45 -12.73)">
		</image>
		<path d="M92.8,80.9c-0.3-2.1-1.5-4-3.3-5.1c-0.9-0.5-1.8-1-2.7-1.4c-3.6-1.7-7.1-3.4-10.7-5.1c-1.2-0.6-1.2-0.6-0.3-1.6
			c5.3-5.5,8.7-12.6,9.5-20.2c1.2-10.1-1.9-20.3-8.7-27.9C71,13.1,63.1,9,54.5,8c-5.6-0.8-11.3-0.2-16.6,1.8
			c-5.8,2.1-11,5.8-15,10.5c-5,5.9-7.9,13.2-8.3,20.9c-0.3,4.8,0.4,9.5,2,14c1.7,4.8,4.4,9.2,8,12.8c0.5,0.5,0.5,0.8-0.2,1.1
			c-3.9,1.8-7.8,3.7-11.7,5.4c-2.4,1.1-4.3,2.5-5.2,5.1c-0.7,2.2-0.8,4.6-0.3,6.8c0.2,1,0.7,2,1.2,2.8c1.6,2.3,4.1,3,6.7,3H50
			c11.6,0,23.1,0,34.7,0c3.5,0,6.3-1.1,7.7-4.5C93.1,85.6,93.3,83.2,92.8,80.9z M19.4,43.8c-0.3-17.3,14-31.4,30.7-31.1
			C66.7,12.4,81,26.6,80.6,43.8c-0.5,16.9-14.5,30.2-31.4,29.8C32.9,73.2,19.8,60.1,19.4,43.8z M87.7,85.9c-0.1,0.5-0.9,1-1.5,1.2
			c-0.6,0.2-1.3,0.3-2,0.2H15.6c-0.4,0-0.8,0-1.1-0.1c-1.3,0-2.5-1.1-2.5-2.4c0-0.1,0-0.3,0-0.4c0-1,0.1-2.1,0.3-3.1
			c0.3-0.7,0.8-1.4,1.5-1.7c5-2.4,10.1-4.8,15.1-7.2c0.5-0.1,1,0,1.4,0.3C33,74.6,35.9,76,39,77c3.8,1.2,7.8,1.8,11.8,1.7
			c5.5-0.1,11-1.5,15.9-4.1c1.1-0.6,2.1-1.3,3.3-1.9c0.5-0.2,1-0.3,1.5-0.1c4.9,2.3,9.8,4.6,14.8,6.9c0.9,0.3,1.5,1,1.7,1.9
			C87.9,83,87.9,84.4,87.7,85.9z"/>
		<path d="M49.9,60.2c9.4,0.1,17.1-7.4,17.2-16.8s-7.4-17.1-16.8-17.2c-9.2-0.1-16.8,7.1-17.2,16.3c-0.5,9.3,6.6,17.2,15.8,17.7
			C49.2,60.2,49.6,60.2,49.9,60.2z M50,31.2c6.7,0.1,12,5.5,12,12.2c0,6.6-5.3,12-11.9,12.1c-6.6,0-12-5.3-12.1-11.9
			c-0.1-6.7,5.2-12.2,11.9-12.3C49.9,31.2,50,31.2,50,31.2L50,31.2z"/>
		<path d="M50.1,50.6c4.1-0.1,7.2-3.6,7.1-7.6c-0.1-3.9-3.2-6.9-7.1-7.1c-4.1-0.1-7.5,3-7.6,7.1s3,7.5,7.1,7.6
			C49.7,50.6,49.9,50.6,50.1,50.6z"/>
	</g>
</g>
</svg>
