<?xml version="1.0" encoding="utf-8"?>
<!-- Generator: Adobe Illustrator 26.0.1, SVG Export Plug-In . SVG Version: 6.00 Build 0)  -->
<svg version="1.1" id="Layer_1" xmlns="http://www.w3.org/2000/svg" xmlns:xlink="http://www.w3.org/1999/xlink" x="0px" y="0px"
	 viewBox="0 0 100 100" style="enable-background:new 0 0 100 100;" xml:space="preserve">
<style type="text/css">
	.st0{fill:none;stroke:#000000;stroke-width:0.95;stroke-miterlimit:10;}
	.st1{stroke:#000000;stroke-width:0.95;stroke-miterlimit:10;}
	.st2{stroke:#000000;stroke-width:0.92;stroke-miterlimit:10;}
</style>
<g>
	<g id="Layer_1_00000072997603542964160350000008638468593914337442_">
		
			<image style="display:none;overflow:visible;opacity:0.2;enable-background:new    ;" width="632" height="648" xlink:href="7D72870B.png"  transform="matrix(0.24 0 0 0.24 -7.93 -9.85)">
		</image>
		<line class="st0" x1="13" y1="86.1" x2="87" y2="86.1"/>
		<path class="st1" d="M14.6,83.4h70.7c0.9,0,1.6,0.7,1.6,1.6v2.2c0,0.9-0.7,1.6-1.6,1.6H14.6c-0.9,0-1.6-0.7-1.6-1.6V85
			C13,84.1,13.7,83.4,14.6,83.4z"/>
		<path class="st1" d="M49.1,74.6L17.8,43.3c-0.6-0.6-0.6-1.7,0-2.3l1.5-1.5c0.6-0.6,1.6-0.6,2.3,0c0,0,0,0,0,0l27.5,27.5
			c0.6,0.6,1.6,0.6,2.3,0c0,0,0,0,0,0l27-27c0.6-0.6,1.7-0.6,2.3,0l1.6,1.5c0.6,0.6,0.6,1.7,0,2.3L51.4,74.6
			C50.7,75.2,49.7,75.2,49.1,74.6z"/>
		<path class="st2" d="M51.1,67.8h-2.2c-0.9,0-1.6-0.6-1.6-1.5c0,0,0,0,0,0V12.7c0-0.9,0.8-1.5,1.6-1.5h2.2c0.9,0,1.6,0.6,1.6,1.5
			v53.6C52.7,67.2,52,67.9,51.1,67.8C51.1,67.8,51.1,67.8,51.1,67.8z"/>
		
			<image style="display:none;overflow:visible;opacity:0.2;enable-background:new    ;" width="702" height="702" xlink:href="7D728709.png"  transform="matrix(0.24 0 0 0.24 -141.24 -148.76)">
		</image>
	</g>
</g>
</svg>
