<?xml version="1.0" encoding="utf-8"?>
<!-- Generator: Adobe Illustrator 26.0.1, SVG Export Plug-In . SVG Version: 6.00 Build 0)  -->
<svg version="1.1" id="Layer_1" xmlns="http://www.w3.org/2000/svg" xmlns:xlink="http://www.w3.org/1999/xlink" x="0px" y="0px"
	 viewBox="0 0 100 100" style="enable-background:new 0 0 100 100;" xml:space="preserve">
<style type="text/css">
	.st0{fill:none;stroke:#000000;stroke-width:5.41;stroke-miterlimit:10;}
</style>
<g>
	<g id="Layer_1_00000052785010231298415860000003549067345702910887_">
		
			<image style="display:none;overflow:visible;opacity:0.2;enable-background:new    ;" width="702" height="702" xlink:href="DFD82BCA.png"  transform="matrix(0.24 0 0 0.24 -141.24 -148.76)">
		</image>
		<path d="M31.9,38.5v-1.1c0.2-9.3,7.7-14.5,18.5-14.5s17.7,5.2,17.7,13.8c0,8.2-5.4,11.7-10.7,14.7l-0.7,0.5
			C54,53.3,53,54.7,53,58.3v4.6h-6.3V58c0-5,1.5-7.8,5.8-10.2l1.2-0.6c4.6-2.7,7.9-5.2,7.9-10.4c0-5.4-4.2-8.6-11.2-8.6
			s-12,3.2-12,10.3L31.9,38.5z M45.9,69.2h7.8v8h-7.8L45.9,69.2z"/>
		<path class="st0" d="M50,8.3L50,8.3C73,8.3,91.7,27,91.7,50l0,0C91.7,73,73,91.7,50,91.7l0,0C27,91.7,8.3,73,8.3,50l0,0
			C8.3,27,27,8.3,50,8.3z"/>
	</g>
</g>
</svg>
