<?xml version="1.0" encoding="utf-8"?>
<!-- Generator: Adobe Illustrator 26.0.1, SVG Export Plug-In . SVG Version: 6.00 Build 0)  -->
<svg version="1.1" id="Layer_1" xmlns="http://www.w3.org/2000/svg" xmlns:xlink="http://www.w3.org/1999/xlink" x="0px" y="0px"
	 viewBox="0 0 100 100" style="enable-background:new 0 0 100 100;" xml:space="preserve">
<g>
	<g id="Layer_1_00000008867776904936874350000008603899211385231765_">
		
			<image style="display:none;overflow:visible;opacity:0.2;enable-background:new    ;" width="702" height="702" xlink:href="EFEA5268.png"  transform="matrix(0.24 0 0 0.24 -141.24 -148.76)">
		</image>
		
			<image style="overflow:visible;opacity:0.2;enable-background:new    ;" width="538" height="678" xlink:href="EFEA5269.png"  transform="matrix(0.24 0 0 0.24 3.35 -13.45)">
		</image>
		<path d="M73.6,33.4c-1.4,0-2.5,1.1-2.6,2.5v15.4c0,10.6-9.4,19.2-21,19.2s-21-8.6-21-19.2V35.8c-0.1-1.4-1.3-2.5-2.8-2.4
			c-1.3,0.1-2.4,1.1-2.4,2.4v15.4c0,12.5,10.3,22.8,23.6,24V88h-9.6c-1.4,0-2.6,1.1-2.6,2.5c0,0,0,0,0,0l0,0c0,1.4,1.2,2.5,2.6,2.5
			c0,0,0,0,0,0h24.4c1.4,0,2.6-1.1,2.6-2.5c0,0,0,0,0,0l0,0c0-1.4-1.2-2.5-2.6-2.5c0,0,0,0,0,0h-9.6V75.2
			c13.2-1.2,23.6-11.5,23.6-24V35.8C76.1,34.4,75,33.3,73.6,33.4z"/>
		<path d="M50,63.9L50,63.9c8.4,0,15.1-6,15.1-13.4v-30c0-7.4-6.8-13.4-15.1-13.4l0,0c-8.4,0-15.1,6-15.1,13.4v30
			C34.9,57.9,41.6,63.9,50,63.9z"/>
	</g>
</g>
</svg>
