<?xml version="1.0" encoding="utf-8"?>
<!-- Generator: Adobe Illustrator 26.0.1, SVG Export Plug-In . SVG Version: 6.00 Build 0)  -->
<svg version="1.1" id="Layer_1" xmlns="http://www.w3.org/2000/svg" xmlns:xlink="http://www.w3.org/1999/xlink" x="0px" y="0px"
	 viewBox="0 0 100 100" style="enable-background:new 0 0 100 100;" xml:space="preserve">
<g>
	<g id="Layer_1_00000058574707315054338240000001913700951766992515_">
		
			<image style="display:none;overflow:visible;opacity:0.2;enable-background:new    ;" width="702" height="702" xlink:href="46712070.png"  transform="matrix(0.24 0 0 0.24 -141.24 -148.76)">
		</image>
		<path d="M60,50c8.6-9.6,8.5-24.2-0.3-33.7c-7.6-8.2-20.2-9.2-29.1-2.4c-4.5,3.4-7.6,8.2-8.7,13.7c-1.8,8.5,0.3,16,6,22.5
			c-7.7,3.4-14.2,9-18.7,16.2c-4.6,7.3-7.1,15.7-7,24.3h6.9c0-0.5,0.1-0.9,0.1-1.4c0.7-15.6,10.6-29.1,24.7-33.6
			c0.8-0.2,1.6-0.2,2.4,0c4.9,1.8,10.2,1.8,15.1,0c0.7-0.3,1.5-0.3,2.3-0.1C66.8,60.1,74.9,69.4,78,83.6c0.5,2.3,0.6,4.7,0.9,7.1
			h6.9C84.8,71.6,76.2,58.1,60,50z M43.9,49.7c-8.8-0.1-15.7-7.5-15.7-16.6s7.1-16.5,15.7-16.4s15.5,7.5,15.5,16.7
			C59.3,42.3,52.3,49.7,43.9,49.7L43.9,49.7z"/>
		<path d="M97.8,32.5c0,6.8-2.3,13.4-6.6,18.8c-0.6,0.8-1.8,1-2.6,0.4c-0.3-0.2-0.5-0.5-0.6-0.8c-0.2-0.6-0.2-1.2,0.2-1.8
			c0.2-0.2,0.3-0.4,0.5-0.7c2.4-3.1,4-6.8,4.8-10.6c0.4-2,0.6-4.1,0.5-6.2c-0.2-5.7-2.2-11.2-5.7-15.6c-0.3-0.3-0.4-0.6-0.5-1
			c-0.2-0.8,0.2-1.6,1-2c0.7-0.4,1.6-0.2,2.2,0.5c0.4,0.5,0.8,1.1,1.2,1.6c2.2,3.2,3.8,6.7,4.7,10.5c0.4,1.7,0.6,3.4,0.7,5.1
			L97.8,32.5z"/>
		<path d="M89.5,32.5c0,5-1.6,9.9-4.6,14c-0.3,0.5-0.9,0.8-1.5,0.8c-0.7,0-1.3-0.3-1.6-0.9c-0.3-0.6-0.3-1.3,0-1.8
			c0.1-0.1,0.2-0.2,0.2-0.3c1.8-2.5,3-5.4,3.5-8.4c0.9-5.3-0.4-10.7-3.5-15c-0.2-0.3-0.4-0.6-0.4-1c-0.1-0.8,0.4-1.6,1.1-1.9
			c0.8-0.3,1.7-0.1,2.2,0.6c0.4,0.5,0.8,1.1,1.1,1.6c1.6,2.5,2.7,5.4,3.2,8.3C89.4,29.8,89.5,31.2,89.5,32.5z"/>
		<path d="M81.6,32.5c0,3.1-0.9,6.1-2.6,8.7c-0.6,0.8-1.7,1.1-2.5,0.5c-0.8-0.5-1-1.5-0.6-2.3l0.1-0.2c2.6-4.1,2.6-9.3,0-13.4
			c-0.3-0.4-0.4-0.8-0.4-1.3c0.1-1,0.9-1.8,1.9-1.7c0.5,0,1,0.3,1.3,0.7c0.1,0.1,0.1,0.1,0.1,0.2c1.3,1.9,2.1,4.1,2.4,6.4
			C81.5,31,81.6,31.8,81.6,32.5z"/>
	</g>
</g>
</svg>
