<svg id="Layer_1" data-name="Layer 1" xmlns="http://www.w3.org/2000/svg" viewBox="0 0 100 100"><path d="M55,18.37V50q0,15.91,0,31.83a5.1,5.1,0,0,1-.08,1,3.26,3.26,0,0,1-5.27,1.8c-1.15-1-2.26-2-3.39-2.92L28,66a1.2,1.2,0,0,0-.9-.33H8.19A4.6,4.6,0,0,1,7,65.52a3.24,3.24,0,0,1-2.35-3c0-.15,0-.29,0-.43q0-12.27,0-24.52a3.52,3.52,0,0,1,.23-1.41A3.17,3.17,0,0,1,7.6,34.08a5.86,5.86,0,0,1,.73,0H27.41a1.4,1.4,0,0,0,1-.36q10.45-9.08,20.93-18.13a3.61,3.61,0,0,1,2.52-1A3.27,3.27,0,0,1,55,17.65C55,17.89,55,18.13,55,18.37Z"/><path d="M95.4,50A54.36,54.36,0,0,1,83.53,83.85a3.29,3.29,0,0,1-5.69-.71A3.14,3.14,0,0,1,78.23,80c.28-.41.6-.78.9-1.18a47.41,47.41,0,0,0,8.7-19.12,45.72,45.72,0,0,0,1-11.13A47.37,47.37,0,0,0,78.53,20.44a3.91,3.91,0,0,1-.88-1.73,3.29,3.29,0,0,1,1.8-3.55,3.21,3.21,0,0,1,3.92.85C84.15,17,84.89,18,85.6,19A53.77,53.77,0,0,1,94,37.76,51.52,51.52,0,0,1,95.28,47C95.33,48,95.36,49,95.4,50Z"/><path d="M83.3,50a42.59,42.59,0,0,1-8.21,25.14,3.23,3.23,0,0,1-2.76,1.47A3.1,3.1,0,0,1,69.49,75a3.18,3.18,0,0,1,.05-3.3c.13-.22.29-.42.44-.63a35.22,35.22,0,0,0,6.26-15.12,35.74,35.74,0,0,0-6.36-27.09,3.75,3.75,0,0,1-.78-1.78,3.26,3.26,0,0,1,2-3.44A3.22,3.22,0,0,1,75,24.69c.69.94,1.34,1.91,2,2.9A42.44,42.44,0,0,1,83.3,50Z"/><path d="M70.49,50a28.81,28.81,0,0,1-4.67,15.71,3.28,3.28,0,0,1-5.68-3.27l.25-.41a22.35,22.35,0,0,0,0-24.13,3.52,3.52,0,0,1-.64-2.26,3.27,3.27,0,0,1,5.83-1.75c.09.11.17.23.25.35a28.78,28.78,0,0,1,4.35,11.55A29.7,29.7,0,0,1,70.49,50Z"/></svg>