<?xml version="1.0" encoding="utf-8"?>
<!-- Generator: Adobe Illustrator 26.0.1, SVG Export Plug-In . SVG Version: 6.00 Build 0)  -->
<svg version="1.1" id="Layer_1" xmlns="http://www.w3.org/2000/svg" xmlns:xlink="http://www.w3.org/1999/xlink" x="0px" y="0px"
	 viewBox="0 0 100 100" style="enable-background:new 0 0 100 100;" xml:space="preserve">
<style type="text/css">
	.st0{stroke:#000000;stroke-width:0.87;stroke-miterlimit:10;}
</style>
<g>
	<g id="Layer_1_00000025417745028820024750000004308502101502400935_">
		
			<image style="display:none;overflow:visible;opacity:0.2;enable-background:new    ;" width="702" height="702" xlink:href="2D33281C.png"  transform="matrix(0.24 0 0 0.24 -16.33 -16.33)">
		</image>
		<path class="st0" d="M95.4,46.8c0-0.4,0-0.8-0.1-1.2c-0.2-1.6-0.8-3-1.8-4.2C92.5,40,91,39,89.3,38.5c-1-0.3-2-0.4-3-0.4
			c-0.6,0-1.2-0.1-1.7-0.4c-0.9-0.5-1.6-1.4-1.9-2.4c-0.6-1.4-0.2-3,0.9-4c1.5-1.5,2.4-3.5,2.4-5.6c0.1-2.2-0.7-4.4-2.2-6
			c-1.5-1.6-3.1-3.1-4.6-4.6c-3.3-3.5-8.8-3.8-12.4-0.7c-0.7,0.6-1.3,1.3-2,2c-0.3,0.3-0.7,0.5-1.1,0.4c-0.9,0-1.7-0.8-1.6-1.7
			c0,0,0,0,0,0c0.1-0.8,0.1-1.7,0-2.5c-0.3-3.7-3-6.8-6.7-7.6c-0.5-0.1-0.9-0.2-1.4-0.2h-7.8H46c-1.6,0.1-3.2,0.7-4.5,1.7
			c-1.7,1.3-2.9,3.2-3.3,5.3c-0.1,0.9-0.2,1.8-0.2,2.7c0,0.3-0.1,0.7-0.2,1c-0.3,0.7-0.9,1.3-1.6,1.5c-1,0.5-2.3,0.3-3.1-0.5
			c-0.4-0.4-0.8-0.8-1.2-1.2c-1.6-1.6-3.7-2.6-6-2.8c-2.4-0.2-4.7,0.5-6.6,2c-0.6,0.5-1.2,1.1-1.8,1.6c-1,1-2,1.9-2.9,3
			c-1.8,2-2.7,4.7-2.3,7.4c0.2,1.8,0.9,3.6,2.2,5c0.6,0.6,1.2,1.2,1.8,1.8c0.2,0.2,0.4,0.5,0.6,0.8c0.5,1.2,0.1,2.5-0.8,3.4
			C15.6,37.8,15,38,14.4,38c-0.8,0-1.6,0-2.4,0.1c-2.3,0.3-4.4,1.6-5.7,3.5c-1.1,1.4-1.6,3.1-1.6,4.9c0,2.3,0,4.7,0,7
			c0,2,0.8,4,2.1,5.5c1.5,1.7,3.6,2.8,5.8,2.9c0.9,0.1,1.7,0,2.6,0c0.9,0.1,1.6,0.9,1.5,1.8c0,0.4-0.2,0.7-0.4,1L14.9,66
			c-1.7,1.6-2.7,3.9-2.7,6.2c-0.1,2.4,0.8,4.7,2.4,6.5c1.6,1.7,3.3,3.3,5,5c1,1,2.2,1.7,3.5,2c1.6,0.4,3.3,0.4,4.8-0.2
			c1.2-0.4,2.3-1.1,3.2-2c0.2-0.3,0.5-0.5,0.8-0.7c1.1-0.6,2.5-0.6,3.6,0c1,0.4,1.8,1.1,2.2,2.1c0.2,0.5,0.3,1,0.2,1.6
			c-0.1,4.8,3.8,8.7,8.6,8.8c0.1,0,0.1,0,0.2,0c2.1,0,4.2,0,6.4,0c4.1,0.1,7.7-2.8,8.6-6.8c0.2-0.9,0.2-1.9,0.2-2.9
			c0-0.2,0-0.4,0.1-0.7c0.3-1,1.1-1.8,2.2-2c0.9-0.3,1.9,0,2.6,0.7c0.3,0.3,0.6,0.6,1,0.9c1.2,1,2.7,1.6,4.3,1.7
			c1.8,0.1,3.6-0.4,5-1.4c0.7-0.5,1.4-1.1,2-1.8c1.7-1.7,3.5-3.4,5.2-5.2c1.2-1.2,1.9-2.8,2-4.5c0.2-2.2-0.5-4.4-2.1-6
			c-0.3-0.3-0.6-0.6-0.9-1c-0.8-1.4-0.3-3.3,1.1-4.1c0,0,0.1-0.1,0.1-0.1c0.4-0.1,0.7-0.2,1.1-0.1c0.9,0,1.8,0,2.7-0.2
			c4.1-0.8,7.1-4.4,7.1-8.6C95.4,51.1,95.4,48.9,95.4,46.8z M90.6,53.5c-0.1,2-1.7,3.6-3.7,3.7c-0.7,0-1.3,0-2,0
			c-1.7,0.1-3.3,0.9-4.4,2.1c-1.7,1.6-2.5,3.9-2.3,6.3c0.1,1.7,0.9,3.3,2.1,4.5c0.4,0.3,0.7,0.8,1,1.2c0.5,1.1,0.3,2.3-0.5,3.2
			c-1.2,1.2-2.4,2.4-3.6,3.6c-0.8,0.8-1.6,1.6-2.4,2.4c-1.1,1.2-3,1.3-4.2,0.2c-0.1-0.1-0.1-0.1-0.2-0.2c-3-3.1-7.9-3.2-10.9-0.2
			c-0.7,0.7-1.3,1.5-1.7,2.4c-0.4,0.9-0.6,1.9-0.6,2.9c0,0.6,0,1.2-0.1,1.7c-0.3,1.8-1.7,3.1-3.5,3.2c-0.3,0-0.5,0-0.8,0h-5.9
			c-0.9,0-1.8-0.3-2.5-0.8c-0.9-0.7-1.5-1.7-1.5-2.9c0-0.8-0.1-1.6-0.2-2.3c-0.3-1.5-1-2.9-2.1-4c-1.7-1.9-4.1-3-6.7-3
			c-2.3-0.1-4.4,0.8-6,2.4c-0.6,0.7-1.5,1.1-2.4,1.1c-0.9,0.1-1.8-0.2-2.5-0.8c-1-1-2-2-3-3c-0.6-0.6-1.2-1.2-1.7-1.7
			c-1.2-1.2-1.6-3-1-4.6c0.2-0.6,0.6-1.2,1.1-1.6c0.7-0.7,1.4-1.3,2-2c1-1.3,1.5-3,1.2-4.7c-0.2-1.5-0.9-3-2.1-4
			c-1.2-1.1-2.7-1.7-4.3-1.7c-0.6,0-1.2,0-1.8,0c-2.1,0.1-3.9-1.6-4-3.8c0,0,0,0,0-0.1c0-2.2,0-4.5,0-6.8c0-2.1,1.7-3.8,3.8-3.8
			c0,0,0.1,0,0.1,0c0.8,0,1.5,0,2.2-0.1c1.8-0.3,3.4-1.2,4.5-2.7c1-1.2,1.6-2.6,1.7-4.2c0.3-2.2-0.5-4.4-2.1-6
			c-0.6-0.5-1.1-1.1-1.6-1.7c-1.5-1.9-1.4-4.6,0.4-6.3c1.2-1.2,2.4-2.4,3.6-3.5c1-0.9,2.3-1.4,3.7-1.2c1.1,0.1,2.2,0.6,3,1.4
			c0.6,0.6,1.2,1.2,1.9,1.8c1,0.8,2.1,1.3,3.4,1.5c1.9,0.3,3.9-0.1,5.5-1.3c2.1-1.3,3.4-3.7,3.4-6.2c0-0.6,0-1.2,0.1-1.8
			c0.3-1.7,1.7-3.1,3.4-3.2c1.2-0.1,2.5,0,3.7,0l0,0c1.2,0,2.4,0,3.6,0c1.9,0.1,3.5,1.7,3.5,3.6c0,0.8,0,1.6,0,2.4
			c0.1,1.7,0.8,3.2,2.1,4.3c2,1.8,4.8,2.2,7.2,1.1c0.6-0.3,1.2-0.7,1.7-1.2l1.4-1.4c1.6-1.7,4.4-1.8,6.1-0.1c0,0,0,0,0.1,0.1
			c1.5,1.5,3.1,3,4.6,4.6c1,1,1.3,2.5,0.8,3.8c-0.2,0.5-0.5,1-0.9,1.3c-1.3,1.3-2.2,2.9-2.4,4.7c-0.3,1.7,0,3.4,0.7,5
			c0.8,1.9,2.2,3.4,4,4.3c1.2,0.7,2.5,1,3.9,1c0.6,0,1.1,0.1,1.7,0.2c1.5,0.5,2.5,1.9,2.6,3.5C90.6,48.9,90.7,51.2,90.6,53.5z"/>
		<path class="st0" d="M50,33.3c-9.2,0-16.7,7.5-16.7,16.7S40.8,66.7,50,66.7S66.7,59.2,66.7,50S59.2,33.3,50,33.3L50,33.3z M50,62
			c-6.6,0-12-5.4-12-12s5.4-12,12-12s12,5.4,12,12S56.6,62,50,62z"/>
	</g>
</g>
</svg>
