<?xml version="1.0" encoding="utf-8"?>
<!-- Generator: Adobe Illustrator 26.0.1, SVG Export Plug-In . SVG Version: 6.00 Build 0)  -->
<svg version="1.1" id="Layer_1" xmlns="http://www.w3.org/2000/svg" xmlns:xlink="http://www.w3.org/1999/xlink" x="0px" y="0px"
	 viewBox="0 0 100 100" style="enable-background:new 0 0 100 100;" xml:space="preserve">
<style type="text/css">
	.st0{stroke:#000000;stroke-width:1.8;stroke-miterlimit:10;}
</style>
<g>
	<g id="Layer_1_00000031889594821075502970000003189252074837220483_">
		
			<image style="display:none;overflow:visible;opacity:0.2;enable-background:new    ;" width="702" height="702" xlink:href="291719C0.png"  transform="matrix(0.24 0 0 0.24 -141.24 -148.76)">
		</image>
		
			<image style="overflow:visible;opacity:0.2;enable-background:new    ;" width="674" height="666" xlink:href="291719C1.png"  transform="matrix(0.24 0 0 0.24 -12.97 -12.01)">
		</image>
		<path class="st0" d="M84.3,38.8c-1.2,0-1.8,0.8-1.8,2.2c0,10.2,0,20.5,0,30.7c0,8.6-6.2,14.9-14.8,15c-13.5,0-27,0-40.5,0
			c-7.9,0.2-14.4-6.1-14.6-13.9c0-0.2,0-0.3,0-0.5c-0.1-13.7-0.1-27.4,0-41.1c-0.1-7.9,6.2-14.4,14.1-14.5c0.1,0,0.3,0,0.4,0
			c1.6,0,3.2,0,4.8,0h26c1.4,0,2.2-0.7,2.3-1.9c0-1.2-1-2.2-2.2-2.2c0,0,0,0-0.1,0h-0.6c-10.1,0-20.3,0-30.4,0
			c-10.1-0.2-18.4,7.9-18.6,18c0,0.2,0,0.4,0,0.6c0,6.8,0,13.6,0,20.4V72c-0.2,10.1,7.9,18.5,18,18.6c0.2,0,0.4,0,0.6,0h40.6
			c1.1,0,2.2-0.1,3.3-0.3c8.2-1.2,15.2-8.7,15.4-16.8c0.2-10.9,0.1-21.8,0.1-32.7c0-1.2-0.9-2.1-2-2.2
			C84.4,38.7,84.3,38.7,84.3,38.8z"/>
		<path class="st0" d="M90.1,14.8c-1.2-1.3-2.5-2.5-3.7-3.8c-1.9-2.1-5.1-2.2-7.2-0.3c-0.1,0.1-0.2,0.2-0.3,0.4
			c-1.5,1.5-3.1,3.1-4.6,4.6C61.2,28.8,48.1,41.9,35.1,55.1c-0.3,0.4-0.5,0.9-0.5,1.4c0.1,2.5,0.2,5,0.3,7.5c-0.1,1,0.6,1.8,1.6,1.9
			c0.1,0,0.3,0,0.4,0c1.3,0,2.5,0,3.8,0s2.3-0.1,3.5,0c0.6,0.2,1.3,0,1.8-0.4c14.7-14.7,29.4-29.5,44.2-44.2
			c1.8-1.7,1.9-4.4,0.2-6.2C90.3,14.9,90.2,14.8,90.1,14.8z M79.7,27C68,38.7,56.3,50.4,44.7,62.1c-0.4,0.5-1.1,0.7-1.8,0.7
			c-1.5-0.1-3.1,0-4.7,0c-0.1-2-0.3-3.8-0.4-5.6c0-0.3,0.2-0.6,0.4-0.8c11.9-12,23.8-23.9,35.8-35.8c0.1-0.1,0.3-0.2,0.4-0.3
			l5.6,6.2l0.3-0.2C80.1,26.5,79.9,26.8,79.7,27z M87.7,19c-1.6,1.6-3.3,3.3-5.1,5.1l-5.4-6c1.4-1.5,3-3.4,4.6-5.1
			c0.5-0.5,1.3-0.5,1.8,0c0,0,0.1,0.1,0.1,0.1c1.3,1.3,2.7,2.7,4,4c0.5,0.4,0.6,1.2,0.2,1.7C87.9,18.9,87.8,18.9,87.7,19L87.7,19z"
			/>
	</g>
</g>
</svg>
