<?xml version="1.0" encoding="utf-8"?>
<!-- Generator: Adobe Illustrator 26.0.1, SVG Export Plug-In . SVG Version: 6.00 Build 0)  -->
<svg version="1.1" id="Layer_1" xmlns="http://www.w3.org/2000/svg" xmlns:xlink="http://www.w3.org/1999/xlink" x="0px" y="0px"
	 viewBox="0 0 200 100" style="enable-background:new 0 0 200 100;" xml:space="preserve">
<g>
	<path d="M1,44.7c0.8-1.6,1.9-2.8,3.4-3.6s3.3-1.2,5.5-1.2c1.1,0,2,0.1,2.9,0.2c0.9,0.1,1.7,0.3,2.2,0.4v2.3v0.1
		c-1.7-0.4-3.3-0.6-4.8-0.6c-1.4,0-2.5,0.1-3.4,0.4c-0.9,0.3-1.6,0.6-2.2,1.2c-0.7,0.6-1.2,1.5-1.6,2.7s-0.6,2.6-0.6,4.1v1.1
		c0,1.6,0.2,3,0.6,4.3s0.9,2.1,1.5,2.7c0.6,0.5,1.3,0.9,2.2,1.1c0.9,0.2,1.9,0.3,2.9,0.3s2-0.1,3-0.3c1.1-0.2,2-0.4,2.7-0.6l0.2,0.2
		v2.2c-0.8,0.3-1.7,0.5-2.6,0.6c-0.9,0.2-2.1,0.2-3.5,0.2c-2.3,0-4.1-0.4-5.5-1.2s-2.5-2.1-3.1-3.8c-0.7-1.7-1-3.9-1-6.5
		C-0.1,48.4,0.3,46.3,1,44.7z"/>
	<path d="M20.4,53.4c1-0.9,2.5-1.4,4.6-1.4c1.1,0,2,0,2.9,0.1s1.6,0.2,2.2,0.3h0.4v1.7c-1.2,0-2.2-0.1-3-0.1s-1.8,0-3.1,0
		c-1.1,0-1.8,0.2-2.3,0.7c-0.5,0.4-0.7,1-0.7,1.8v0.9c0,0.9,0.3,1.6,0.8,2s1.3,0.7,2.5,0.7h0.4c1.1,0,2-0.2,2.8-0.5s1.6-0.7,2.2-1.2
		l0.5,1.2h-0.5c-0.4,0.9-1.1,1.7-2,2.1c-0.9,0.5-2.1,0.7-3.6,0.7c-1.8,0-3.1-0.5-4.1-1.4s-1.5-2.2-1.5-3.9
		C18.9,55.6,19.4,54.3,20.4,53.4z M22,44.6c0.8-0.1,1.7-0.2,2.6-0.2c2,0,3.5,0.3,4.7,0.8s2,1.3,2.6,2.4c0.5,1.1,0.8,2.4,0.8,4.1
		v10.4h-1.8l-0.8-2.6v-8.8c0-1-0.2-1.8-0.6-2.4c-0.4-0.6-1-1-1.8-1.2c-0.8-0.3-1.8-0.4-3.1-0.4c-0.9,0-1.8,0.1-2.7,0.2
		c-0.9,0.1-1.7,0.3-2.1,0.4l-0.1-0.2V45C20.4,44.9,21.2,44.7,22,44.6z"/>
	<path d="M37.4,46.9c0.5-0.8,1.2-1.4,2.3-1.8c1.1-0.5,2.5-0.7,4.2-0.7c0.9,0,1.6,0,2.3,0.1s1.3,0.2,1.9,0.3V47L48,47.2
		c-0.6-0.1-1.3-0.2-2-0.3s-1.4-0.1-2.2-0.1c-1.2,0-2.1,0.1-2.7,0.3s-1.1,0.4-1.4,0.8c-0.3,0.4-0.4,0.8-0.4,1.5v0.3
		c0,0.5,0.1,0.9,0.3,1.2s0.6,0.6,1.3,0.8c0.6,0.2,1.7,0.4,3,0.7c1.3,0.2,2.4,0.5,3.2,0.9s1.3,0.9,1.6,1.5s0.5,1.4,0.5,2.2
		c0,1.1-0.2,2.1-0.7,2.9s-1.2,1.5-2.2,1.9c-1,0.5-2.3,0.7-3.9,0.7c-1.1,0-2,0-2.9-0.1s-1.6-0.2-2.1-0.3v-2.2l0.2-0.2
		c1.7,0.3,3.3,0.5,4.8,0.5c1.2,0,2.1-0.1,2.7-0.3s1.1-0.5,1.3-0.9c0.3-0.4,0.4-1,0.4-1.7V57c0-0.5-0.1-1-0.3-1.3s-0.6-0.6-1.3-0.9
		c-0.7-0.2-1.6-0.5-3-0.6c-1.4-0.2-2.5-0.6-3.2-1s-1.3-0.9-1.6-1.5s-0.5-1.3-0.5-2.1C36.8,48.6,37,47.7,37.4,46.9z"/>
	<path d="M53.2,46.9c0.5-0.8,1.2-1.4,2.3-1.8c1.1-0.5,2.5-0.7,4.2-0.7c0.9,0,1.6,0,2.3,0.1c0.7,0.1,1.3,0.2,1.9,0.3V47l-0.2,0.2
		c-0.6-0.1-1.3-0.2-2-0.3s-1.4-0.1-2.2-0.1c-1.2,0-2.1,0.1-2.7,0.3s-1.1,0.4-1.4,0.8c-0.3,0.4-0.4,0.8-0.4,1.5v0.3
		c0,0.5,0.1,0.9,0.3,1.2s0.6,0.6,1.3,0.8c0.6,0.2,1.7,0.4,3,0.7c1.3,0.2,2.4,0.5,3.2,0.9c0.8,0.4,1.3,0.9,1.6,1.5
		c0.3,0.6,0.5,1.4,0.5,2.2c0,1.1-0.2,2.1-0.7,2.9S63,61.4,62,61.8c-1,0.5-2.3,0.7-3.9,0.7c-1.1,0-2,0-2.9-0.1s-1.6-0.2-2.1-0.3v-2.2
		l0.2-0.2c1.7,0.3,3.3,0.5,4.8,0.5c1.2,0,2.1-0.1,2.7-0.3s1.1-0.5,1.3-0.9c0.3-0.4,0.4-1,0.4-1.7V57c0-0.5-0.1-1-0.3-1.3
		c-0.2-0.3-0.6-0.6-1.3-0.9c-0.7-0.2-1.6-0.5-3-0.6c-1.4-0.2-2.5-0.6-3.2-1s-1.3-0.9-1.6-1.5s-0.5-1.3-0.5-2.1
		C52.5,48.6,52.7,47.7,53.2,46.9z"/>
	<path d="M69.8,53.4c1-0.9,2.5-1.4,4.6-1.4c1.1,0,2,0,2.9,0.1s1.6,0.2,2.2,0.3h0.4v1.7c-1.2,0-2.2-0.1-3-0.1s-1.8,0-3.1,0
		c-1.1,0-1.8,0.2-2.3,0.7c-0.5,0.4-0.7,1-0.7,1.8v0.9c0,0.9,0.3,1.6,0.8,2s1.3,0.7,2.5,0.7h0.4c1.1,0,2-0.2,2.8-0.5s1.6-0.7,2.2-1.2
		l0.5,1.2h-0.5c-0.4,0.9-1.1,1.7-2,2.1c-0.9,0.5-2.1,0.7-3.6,0.7c-1.8,0-3.1-0.5-4.1-1.4s-1.5-2.2-1.5-3.9
		C68.3,55.6,68.8,54.3,69.8,53.4z M71.4,44.6c0.8-0.1,1.7-0.2,2.6-0.2c2,0,3.5,0.3,4.7,0.8s2,1.3,2.6,2.4c0.5,1.1,0.8,2.4,0.8,4.1
		v10.4h-1.8l-0.8-2.6v-8.8c0-1-0.2-1.8-0.6-2.4c-0.4-0.6-1-1-1.8-1.2c-0.8-0.3-1.8-0.4-3.1-0.4c-0.9,0-1.8,0.1-2.7,0.2
		c-0.9,0.1-1.7,0.3-2.1,0.4l-0.1-0.2V45C69.8,44.9,70.6,44.7,71.4,44.6z"/>
	<path d="M88.6,44.7l0.8,2.6v14.8h-2.5V44.7H88.6z M91.5,45.2c0.9-0.5,1.9-0.7,3.2-0.7c1.7,0,3,0.4,3.9,1.3c1,0.9,1.5,2.3,1.5,4.3
		v12h-2.5V49.5c0-0.6-0.1-1.1-0.3-1.5c-0.2-0.4-0.6-0.7-1.1-0.9S95,46.8,94,46.8c-0.9,0-1.7,0.1-2.6,0.4c-0.9,0.3-1.6,0.7-2.1,1.2
		L89,47.3h0.5C89.9,46.3,90.6,45.7,91.5,45.2z"/>
	<path d="M107,61.5c-1-0.6-1.8-1.6-2.3-3s-0.8-3-0.8-4.9c0-2.1,0.3-3.8,1-5.1c0.6-1.4,1.5-2.4,2.6-3s2.4-1,3.9-1
		c0.8,0,1.6,0.1,2.2,0.2c0.7,0.1,1.3,0.3,2,0.6h0.5l-0.3,2c-0.7-0.2-1.4-0.3-2.2-0.4c-0.7-0.1-1.5-0.1-2.3-0.1c-1.2,0-2.2,0.2-3,0.5
		c-0.7,0.4-1.3,1-1.6,1.8c-0.4,0.9-0.5,2.1-0.5,3.6v1.8c0,1.4,0.2,2.4,0.5,3.2s0.8,1.4,1.5,1.7c0.6,0.4,1.5,0.5,2.6,0.5
		s2-0.2,2.8-0.5s1.5-0.7,2.1-1.3l0.5,1.3h-0.6c-0.4,0.9-1,1.6-1.9,2.1s-2,0.7-3.3,0.7S108,62.1,107,61.5z M115.8,59.4V37.6h2.5v24.6
		h-1.8L115.8,59.4z"/>
	<path d="M124.8,44.7l1,2.6v14.8h-2.5V44.7H124.8z M127.8,45.2c0.8-0.5,1.8-0.7,2.9-0.7c0.3,0,0.6,0,0.9,0.1
		c0.3,0.1,0.5,0.1,0.6,0.1V47l-0.1,0.1c-0.4,0-0.7-0.1-1.1-0.1c-0.9,0-1.8,0.1-2.4,0.3c-0.7,0.2-1.3,0.4-1.7,0.7
		c-0.5,0.3-0.9,0.7-1.4,1.2l-0.1-1.9h0.6C126.4,46.4,127,45.7,127.8,45.2z"/>
	<path d="M135.8,53.4c1-0.9,2.5-1.4,4.6-1.4c1.1,0,2,0,2.9,0.1s1.6,0.2,2.2,0.3h0.4v1.7c-1.2,0-2.2-0.1-3-0.1s-1.8,0-3.1,0
		c-1.1,0-1.8,0.2-2.3,0.7c-0.5,0.4-0.7,1-0.7,1.8v0.9c0,0.9,0.3,1.6,0.8,2s1.3,0.7,2.5,0.7h0.4c1.1,0,2-0.2,2.8-0.5s1.6-0.7,2.2-1.2
		l0.5,1.2h-0.5c-0.4,0.9-1.1,1.7-2,2.1c-0.9,0.5-2.1,0.7-3.6,0.7c-1.8,0-3.1-0.5-4.1-1.4s-1.5-2.2-1.5-3.9
		C134.3,55.6,134.8,54.3,135.8,53.4z M137.4,44.6c0.8-0.1,1.7-0.2,2.6-0.2c2,0,3.5,0.3,4.7,0.8s2,1.3,2.6,2.4
		c0.5,1.1,0.8,2.4,0.8,4.1v10.4h-1.8l-0.8-2.6v-8.8c0-1-0.2-1.8-0.6-2.4c-0.4-0.6-1-1-1.8-1.2c-0.8-0.3-1.8-0.4-3.1-0.4
		c-0.9,0-1.8,0.1-2.7,0.2c-0.9,0.1-1.7,0.3-2.1,0.4l-0.1-0.2V45C135.8,44.9,136.6,44.7,137.4,44.6z"/>
</g>
</svg>
