<?xml version="1.0" encoding="utf-8"?>
<!-- Generator: Adobe Illustrator 26.0.1, SVG Export Plug-In . SVG Version: 6.00 Build 0)  -->
<svg version="1.1" id="Layer_1" xmlns="http://www.w3.org/2000/svg" xmlns:xlink="http://www.w3.org/1999/xlink" x="0px" y="0px"
	 viewBox="0 0 200 100" style="enable-background:new 0 0 200 100;" xml:space="preserve">
<g>
	<path d="M6.9,39H10l7.4,13.3l0,0L24.7,39h3v22h-2.5V48.4c0-1,0-2.3,0-3.7v-2.2H25c-0.3,0.6-0.6,1.4-1,2.3c-0.4,0.9-0.7,1.6-1.1,2.1
		l-5.2,9.3h-1l-5.3-9.3c-0.3-0.5-0.6-1.3-1-2.1c-0.4-0.9-0.7-1.6-1-2.3H9.2l0.1,2.2c0,1.4,0.1,2.7,0.1,3.7V61H6.8V39H6.9z"/>
	<path d="M33.1,57.7c0.1-0.3,0.2-0.5,0.5-0.6c0.2-0.1,0.6-0.2,1.1-0.2s0.8,0.1,1.1,0.2c0.2,0.1,0.4,0.3,0.5,0.6s0.1,0.7,0.1,1.3
		s0,1-0.1,1.3s-0.2,0.5-0.5,0.6C35.6,61,35.2,61,34.7,61s-0.8,0-1.1-0.1c-0.2-0.1-0.4-0.3-0.5-0.6S33,59.6,33,59
		C32.9,58.4,33,58,33.1,57.7z"/>
	<path d="M41,43.6c0.8-1.7,1.9-2.9,3.3-3.7s3-1.2,4.9-1.2c1.8,0,3.5,0.4,4.9,1.2s2.5,2.1,3.3,3.7c0.8,1.7,1.2,3.8,1.2,6.4
		c0,2.5-0.4,4.5-1.1,6.2c-0.7,1.6-1.8,2.9-3.2,3.8c-1.4,0.9-3.1,1.3-5.1,1.3s-3.6-0.4-5-1.3c-1.4-0.9-2.5-2.1-3.2-3.8
		s-1.1-3.7-1.1-6.1C39.8,47.5,40.2,45.3,41,43.6z M43.2,55.3c0.5,1.2,1.2,2,2.2,2.7c1,0.6,2.2,0.9,3.7,0.9s2.7-0.3,3.7-0.9
		c1-0.6,1.7-1.5,2.2-2.7s0.7-2.6,0.7-4.3v-2c0-1.7-0.2-3.1-0.7-4.3s-1.2-2-2.2-2.7c-1-0.6-2.2-0.9-3.7-0.9s-2.7,0.3-3.7,0.9
		c-1,0.6-1.7,1.5-2.2,2.7s-0.7,2.6-0.7,4.3v2C42.5,52.7,42.7,54.2,43.2,55.3z"/>
	<path d="M62,57.7c0.1-0.3,0.2-0.5,0.5-0.6c0.2-0.1,0.6-0.2,1.1-0.2s0.8,0.1,1.1,0.2c0.2,0.1,0.4,0.3,0.5,0.6s0.1,0.7,0.1,1.3
		s0,1-0.1,1.3s-0.2,0.5-0.5,0.6C64.5,61,64.1,61,63.6,61s-0.8,0-1.1-0.1c-0.2-0.1-0.4-0.3-0.5-0.6s-0.1-0.7-0.1-1.3S62,58,62,57.7z"
		/>
	<path d="M70.4,39h3.1l7.8,12.2c0.5,0.8,1,1.7,1.6,2.8s1.1,2.2,1.7,3.3h0.2c-0.1-1.3-0.2-2.6-0.3-4c-0.1-1.4-0.1-2.4-0.1-3.1V39h2.5
		v22h-2.5L76,47.8c-0.4-0.7-0.9-1.6-1.5-2.7C73.9,44,73.4,43,72.9,42h-0.1c0,0.9,0.1,2,0.1,3.1s0.1,2.2,0.1,3.2V61h-2.6
		C70.4,61,70.4,39,70.4,39z"/>
	<path d="M92.3,57.7c0.1-0.3,0.2-0.5,0.5-0.6c0.2-0.1,0.6-0.2,1.1-0.2s0.8,0.1,1.1,0.2c0.2,0.1,0.4,0.3,0.5,0.6s0.1,0.7,0.1,1.3
		s0,1-0.1,1.3s-0.2,0.5-0.5,0.6C94.8,61,94.4,61,93.9,61s-0.8,0-1.1-0.1c-0.2-0.1-0.4-0.3-0.5-0.6s-0.1-0.7-0.1-1.3
		S92.2,58,92.3,57.7z"/>
	<path d="M109.3,39l0.6,2.6H109c-0.9,2.9-1.9,5.6-2.8,7.9L101.7,61h-2.5l-0.1-0.2l8.6-21.8H109.3z M114.8,52.8V55h-11.6v-2.2H114.8z
		 M119.1,60.8l-0.2,0.2h-2.5l-4.5-11.5c-0.9-2.3-1.8-5-2.7-7.9h-1l0.6-2.6h1.7L119.1,60.8z"/>
</g>
</svg>
