<svg id="Layer_1" data-name="Layer 1" xmlns="http://www.w3.org/2000/svg" viewBox="0 0 400 100"><path d="M6.76,36.43H9.31L13.93,48.7,15,51.93c.42,1.27.84,2.58,1.25,3.92h.14c.48-1.36.93-2.68,1.35-4s.77-2.34,1.06-3.2l4.59-12.27h2.51l.17.2-8.3,21.83H14.92L6.66,36.63Z"/><path d="M28.85,34.8a.74.74,0,0,1,.41-.51,2.39,2.39,0,0,1,.92-.13,2.57,2.57,0,0,1,.95.13.72.72,0,0,1,.41.53,5.4,5.4,0,0,1,.1,1.15,5.16,5.16,0,0,1-.1,1.14.78.78,0,0,1-.41.53,2.34,2.34,0,0,1-.95.14,2.19,2.19,0,0,1-.92-.14.8.8,0,0,1-.41-.53A4,4,0,0,1,28.73,36,4.16,4.16,0,0,1,28.85,34.8Zm2.62,6.25V58.46H28.93V41.05Z"/><path d="M38,41.05l1,2.6V58.46H36.39V41.05Zm3,.46a5.54,5.54,0,0,1,2.87-.73,4,4,0,0,1,.89.09,2.61,2.61,0,0,1,.56.15v2.24l-.13.13a10.43,10.43,0,0,0-3.57.2,5.87,5.87,0,0,0-1.71.69,6.45,6.45,0,0,0-1.36,1.15l-.06-1.88h.59A5,5,0,0,1,41,41.51Z"/><path d="M57.64,41.05v2.17H47V41.05ZM56.53,58.64a14.48,14.48,0,0,1-1.73.11,5.53,5.53,0,0,1-3-.74,4,4,0,0,1-1.65-2.09,10.13,10.13,0,0,1-.48-3.36V37.39l1.55-.83h1V53.18a7.68,7.68,0,0,0,.18,1.93,1.56,1.56,0,0,0,.77,1,4.1,4.1,0,0,0,1.89.33,15.15,15.15,0,0,0,2.77-.23l.13.13v2A9,9,0,0,1,56.53,58.64Z"/><path d="M69.68,58a6.86,6.86,0,0,1-3.22.72,5.51,5.51,0,0,1-4-1.46,6.23,6.23,0,0,1-1.47-4.57V41.05h2.54V53.48a2.77,2.77,0,0,0,.83,2.26,4.35,4.35,0,0,0,2.74.67,7,7,0,0,0,2.54-.48,6,6,0,0,0,2.12-1.3l.46,1.29h-.53A4.19,4.19,0,0,1,69.68,58Zm2.76.43-.73-2.71V41.05h2.54V58.46Z"/><path d="M80.05,49.74a6.57,6.57,0,0,1,4.61-1.37,25.41,25.41,0,0,1,2.89.15c.87.1,1.6.2,2.2.31h.43l0,1.68-3-.11c-.77,0-1.81,0-3.11,0A3.18,3.18,0,0,0,81.8,51a2.41,2.41,0,0,0-.68,1.81v.89a2.53,2.53,0,0,0,.78,2,3.82,3.82,0,0,0,2.49.66h.43A8.1,8.1,0,0,0,87.66,56a7.3,7.3,0,0,0,2.18-1.22l.47,1.19h-.53a4.36,4.36,0,0,1-2,2.13,7.93,7.93,0,0,1-3.62.7,5.69,5.69,0,0,1-4.11-1.4,5.08,5.08,0,0,1-1.47-3.87A4.86,4.86,0,0,1,80.05,49.74Zm1.62-8.82a19.77,19.77,0,0,1,2.62-.17,11.59,11.59,0,0,1,4.73.81A5.13,5.13,0,0,1,91.6,44a9.4,9.4,0,0,1,.79,4.09V58.46H90.6l-.76-2.61V47.08a4.24,4.24,0,0,0-.57-2.39,3.26,3.26,0,0,0-1.75-1.22,10.47,10.47,0,0,0-3.09-.38,17.24,17.24,0,0,0-2.71.22,19.92,19.92,0,0,0-2.15.41l-.13-.17V41.31C80.1,41.16,80.84,41,81.67,40.92Z"/><path d="M99.59,33.86v24.6H97.05V33.86Z"/><path d="M112.34,47.15v2.11h-8.85V47.15Z"/><path d="M130.08,36.43v2.41H116.37V36.43Zm-11.16.79V58.46h-2.55V37.22Zm10,8.87v2.38H117.2V46.09Z"/><path d="M133.47,34.8a.74.74,0,0,1,.41-.51,2.39,2.39,0,0,1,.92-.13,2.57,2.57,0,0,1,.95.13.72.72,0,0,1,.41.53,4.81,4.81,0,0,1,.1,1.15,4.61,4.61,0,0,1-.1,1.14.78.78,0,0,1-.41.53,2.34,2.34,0,0,1-.95.14,2.19,2.19,0,0,1-.92-.14.8.8,0,0,1-.41-.53,4,4,0,0,1-.12-1.14A4.16,4.16,0,0,1,133.47,34.8Zm2.62,6.25V58.46h-2.54V41.05Z"/><path d="M142.6,41.05l1,2.6V58.46H141V41.05Zm3,.46a5.54,5.54,0,0,1,2.87-.73,4,4,0,0,1,.89.09,2.61,2.61,0,0,1,.56.15v2.24l-.13.13a10.43,10.43,0,0,0-3.57.2,5.87,5.87,0,0,0-1.71.69,6.45,6.45,0,0,0-1.36,1.15l-.06-1.88h.59A5,5,0,0,1,145.61,41.51Z"/><path d="M152.38,44.72a6.11,6.11,0,0,1,2.51-3,7.75,7.75,0,0,1,4-1,7.63,7.63,0,0,1,3.39.71,5,5,0,0,1,2.21,2.09,6.8,6.8,0,0,1,.78,3.37v2.93h-11.6V47.94h9.06V46.39a4.25,4.25,0,0,0-.37-1.9,2.17,2.17,0,0,0-1.2-1,6.37,6.37,0,0,0-2.27-.33h-.33a5.29,5.29,0,0,0-2.56.54,3.19,3.19,0,0,0-1.43,1.73,9.18,9.18,0,0,0-.47,3.26V51.6a6.53,6.53,0,0,0,.48,2.72,3.19,3.19,0,0,0,1.69,1.57,8.7,8.7,0,0,0,3.38.52,13,13,0,0,0,2.7-.26,22.2,22.2,0,0,0,2.19-.56l.14.1v2.17a8.9,8.9,0,0,1-2.12.65,16.18,16.18,0,0,1-2.94.24,9.49,9.49,0,0,1-4.86-1,5.64,5.64,0,0,1-2.47-3,13.94,13.94,0,0,1-.73-4.88A13.33,13.33,0,0,1,152.38,44.72Z"/><path d="M177.29,41.07a7.81,7.81,0,0,1,3.61-3.68A13.75,13.75,0,0,1,187,36.2a29.93,29.93,0,0,1,3.39.18,14.15,14.15,0,0,1,2.52.48v2.31l-.13.1c-.79-.16-1.72-.31-2.79-.46a20,20,0,0,0-3-.23,13.4,13.4,0,0,0-3.68.44,5.1,5.1,0,0,0-3.6,2.95,9.37,9.37,0,0,0-.73,2.26,14.62,14.62,0,0,0-.25,2.72v1a14.34,14.34,0,0,0,.61,4.29,5.65,5.65,0,0,0,1.54,2.67A6.25,6.25,0,0,0,183.08,56a11.51,11.51,0,0,0,3,.34,9.37,9.37,0,0,0,2.67-.38,6.78,6.78,0,0,0,2.18-1l.4,1.65h-.69a4.16,4.16,0,0,1-2,1.56,7.76,7.76,0,0,1-3,.55,10.45,10.45,0,0,1-5.36-1.24,7.6,7.6,0,0,1-3.17-3.71,16.34,16.34,0,0,1-1.05-6.33A14.27,14.27,0,0,1,177.29,41.07Zm15.92,6.14V58.46h-1.78l-.76-2V47.21Z"/><path d="M198.54,49.74a6.57,6.57,0,0,1,4.61-1.37,25.41,25.41,0,0,1,2.89.15c.87.1,1.61.2,2.2.31h.43l0,1.68-3-.11c-.77,0-1.8,0-3.1,0a3.16,3.16,0,0,0-2.26.66,2.38,2.38,0,0,0-.68,1.81v.89a2.55,2.55,0,0,0,.77,2,3.84,3.84,0,0,0,2.5.66h.43a8.14,8.14,0,0,0,2.84-.46,7.42,7.42,0,0,0,2.18-1.22l.46,1.19h-.53a4.3,4.3,0,0,1-2,2.13,8,8,0,0,1-3.62.7,5.72,5.72,0,0,1-4.12-1.4,5.08,5.08,0,0,1-1.47-3.87A4.86,4.86,0,0,1,198.54,49.74Zm1.62-8.82a19.93,19.93,0,0,1,2.63-.17,11.54,11.54,0,0,1,4.72.81A5.13,5.13,0,0,1,210.09,44a9.26,9.26,0,0,1,.79,4.09V58.46H209.1l-.76-2.61V47.08a4.16,4.16,0,0,0-.58-2.39A3.22,3.22,0,0,0,206,43.47a10.38,10.38,0,0,0-3.09-.38,17.34,17.34,0,0,0-2.71.22,20.14,20.14,0,0,0-2.14.41l-.14-.17V41.31C198.59,41.16,199.34,41,200.16,40.92Z"/><path d="M217.33,41.05l.76,2.6V58.46h-2.55V41.05Zm2.74.41a5.43,5.43,0,0,1,2.87-.71,4.92,4.92,0,0,1,2.91.78,4.05,4.05,0,0,1,1.52,2.35l.16.23V58.46H225v-13a2.12,2.12,0,0,0-.71-1.79,3.76,3.76,0,0,0-2.3-.55,6.11,6.11,0,0,0-2.26.45A4.09,4.09,0,0,0,218,44.68l-.33-1.13h.52A5.28,5.28,0,0,1,220.07,41.46Zm9.33,0a5.45,5.45,0,0,1,2.89-.74,4.56,4.56,0,0,1,3.47,1.3A5.68,5.68,0,0,1,237,46V58.46h-2.54v-13a2.1,2.1,0,0,0-.73-1.79,3.69,3.69,0,0,0-2.25-.55,6.15,6.15,0,0,0-2.26.45,4.45,4.45,0,0,0-1.77,1.14l-.43-1h.43A5.58,5.58,0,0,1,229.4,41.49Z"/><path d="M241.59,34.8a.77.77,0,0,1,.41-.51,2.42,2.42,0,0,1,.93-.13,2.51,2.51,0,0,1,.94.13.7.7,0,0,1,.41.53,4.81,4.81,0,0,1,.1,1.15,4.61,4.61,0,0,1-.1,1.14.75.75,0,0,1-.41.53,2.29,2.29,0,0,1-.94.14,2.21,2.21,0,0,1-.93-.14.83.83,0,0,1-.41-.53,4,4,0,0,1-.12-1.14A4.16,4.16,0,0,1,241.59,34.8Zm2.63,6.25V58.46h-2.55V41.05Z"/><path d="M250.92,41.05l.76,2.6V58.46h-2.54V41.05Zm3,.43a6.32,6.32,0,0,1,3.15-.73,5.66,5.66,0,0,1,4,1.34,5.59,5.59,0,0,1,1.47,4.33v12h-2.54V45.76a2.79,2.79,0,0,0-.35-1.48,2.3,2.3,0,0,0-1.12-.87,6,6,0,0,0-2.17-.32,8.87,8.87,0,0,0-2.61.41,5,5,0,0,0-2.08,1.18l-.33-1.13h.53A5.49,5.49,0,0,1,253.88,41.48Z"/><path d="M268.07,64.87a4.28,4.28,0,0,1-1.72-3.68,4,4,0,0,1,.61-2.4,2.63,2.63,0,0,1,1.67-1l0-.49,1.49.69a2,2,0,0,0-.93,1,3.75,3.75,0,0,0-.33,1.66v.3a3.26,3.26,0,0,0,.38,1.74,2.27,2.27,0,0,0,1.31.88,10.32,10.32,0,0,0,2.74.28h.92a11.33,11.33,0,0,0,2.8-.28,2.35,2.35,0,0,0,1.4-.88,3,3,0,0,0,.4-1.68v-.59a2.25,2.25,0,0,0-.47-1.6,2.43,2.43,0,0,0-1.75-.48h-4.89a5.61,5.61,0,0,1-3.73-1,3.56,3.56,0,0,1-1.12-2.83,3.32,3.32,0,0,1,.46-1.8,2.3,2.3,0,0,1,1.26-1l.13-.3,1.12.79a1.74,1.74,0,0,0-.58.76,2.72,2.72,0,0,0-.18,1v.33a1.83,1.83,0,0,0,.51,1.38,2.4,2.4,0,0,0,1.7.5h5.12a5.41,5.41,0,0,1,3.67,1.12,4,4,0,0,1,1.29,3.23,5.74,5.74,0,0,1-.83,3.2,4.9,4.9,0,0,1-2.47,1.86,12.19,12.19,0,0,1-4.2.61Q269.78,66.14,268.07,64.87Zm1.68-12.53a5,5,0,0,1-2.1-2.08,7.77,7.77,0,0,1,.07-6.64,5.4,5.4,0,0,1,2.16-2.13,7.42,7.42,0,0,1,6.46,0,5.32,5.32,0,0,1,2.18,2.13,6.84,6.84,0,0,1,.78,3.4,6.74,6.74,0,0,1-.73,3.26,4.92,4.92,0,0,1-2.13,2.08,7.16,7.16,0,0,1-3.32.72A7,7,0,0,1,269.75,52.34Zm5.55-1.81a2.12,2.12,0,0,0,1.12-1,4,4,0,0,0,.34-1.72V46.19a4.36,4.36,0,0,0-.34-1.81,2.19,2.19,0,0,0-1.13-1.09,5.48,5.48,0,0,0-2.17-.36,5.18,5.18,0,0,0-2.2.38,2.26,2.26,0,0,0-1.14,1.07,4.24,4.24,0,0,0-.33,1.81v1.58a3.82,3.82,0,0,0,.35,1.72,2.21,2.21,0,0,0,1.16,1,7.09,7.09,0,0,0,4.34,0Zm-1-9.48h7.07V43l-3.57.26Z"/><path d="M292.31,39.07A5.54,5.54,0,0,1,295,36.94a13.3,13.3,0,0,1,4.91-.77,26.46,26.46,0,0,1,2.84.15c.92.1,1.74.21,2.44.34v2.25l-.16.13c-.73-.13-1.57-.25-2.51-.35a26.33,26.33,0,0,0-2.75-.15,12.41,12.41,0,0,0-3.37.38A3.67,3.67,0,0,0,294.58,40a2.94,2.94,0,0,0-.58,1.93v.39a2.34,2.34,0,0,0,1.35,2.35,8.85,8.85,0,0,0,2.22.75l3.37.79a10.66,10.66,0,0,1,3.17,1.29,5.08,5.08,0,0,1,1.8,1.93,6.19,6.19,0,0,1,.58,2.79,6.79,6.79,0,0,1-.83,3.42A5.45,5.45,0,0,1,303,57.91a12.51,12.51,0,0,1-4.91.81c-1.34,0-2.57,0-3.7-.16a26.71,26.71,0,0,1-2.77-.4V55.85l.13-.13a32.85,32.85,0,0,0,6.28.63,12.72,12.72,0,0,0,3.47-.37,3.45,3.45,0,0,0,1.86-1.17,3.69,3.69,0,0,0,.61-2.29v-.39a3.71,3.71,0,0,0-.31-1.65,2.89,2.89,0,0,0-1.22-1.14,11.21,11.21,0,0,0-2.63-.94l-3.44-.82a8.39,8.39,0,0,1-2.74-1A4.34,4.34,0,0,1,292,44.82a5.47,5.47,0,0,1-.53-2.55A6,6,0,0,1,292.31,39.07Z"/><path d="M310.88,41.05l3.83,9c.31.73.61,1.57.91,2.52s.6,1.94.91,3h.69l.4,2.9h-2.18l-7.17-17.21.13-.2Zm5,16.25-.17-1.74h1c.29-1,.55-2,.8-2.92s.51-1.85.82-2.76l3.17-8.83H324l.13.2-8.65,24.59h-2.51l-.1-.13Z"/><path d="M327,43.24a4.57,4.57,0,0,1,2.29-1.81,11.13,11.13,0,0,1,4.23-.68c.86,0,1.64,0,2.33.1s1.31.15,1.86.26v2.21l-.16.17c-.64-.11-1.31-.2-2-.28a19.24,19.24,0,0,0-2.18-.12,10.42,10.42,0,0,0-2.7.27,2.55,2.55,0,0,0-1.38.79,2.31,2.31,0,0,0-.41,1.45v.3a2.13,2.13,0,0,0,.3,1.2,2.44,2.44,0,0,0,1.25.77,20,20,0,0,0,3,.66,9.91,9.91,0,0,1,3.16.93A3.62,3.62,0,0,1,338.23,51a4.91,4.91,0,0,1,.47,2.24,5.69,5.69,0,0,1-.71,2.88,4.74,4.74,0,0,1-2.25,1.93,9.68,9.68,0,0,1-3.95.69c-1.06,0-2,0-2.89-.11a15,15,0,0,1-2.1-.31V56.08l.17-.16a25.44,25.44,0,0,0,4.79.49,9.73,9.73,0,0,0,2.69-.29,2.24,2.24,0,0,0,1.32-.93,3.21,3.21,0,0,0,.38-1.71v-.3a2.33,2.33,0,0,0-.31-1.28,2.52,2.52,0,0,0-1.29-.86,15.12,15.12,0,0,0-3-.63,10.5,10.5,0,0,1-3.2-1,3.67,3.67,0,0,1-1.59-1.52,4.5,4.5,0,0,1-.46-2.09A4.89,4.89,0,0,1,327,43.24Z"/><path d="M351.45,41.05v2.17H340.84V41.05Zm-1.11,17.59a14.48,14.48,0,0,1-1.73.11,5.55,5.55,0,0,1-3-.74,4,4,0,0,1-1.65-2.09,10.13,10.13,0,0,1-.48-3.36V37.39l1.56-.83h1V53.18a7.68,7.68,0,0,0,.18,1.93,1.54,1.54,0,0,0,.78,1,4,4,0,0,0,1.88.33,15.15,15.15,0,0,0,2.77-.23l.14.13v2A9.17,9.17,0,0,1,350.34,58.64Z"/><path d="M355,44.72a6.06,6.06,0,0,1,2.51-3,7.75,7.75,0,0,1,4-1,7.63,7.63,0,0,1,3.39.71,5.07,5.07,0,0,1,2.21,2.09,6.8,6.8,0,0,1,.78,3.37v2.93h-11.6V47.94h9.05V46.39a4.26,4.26,0,0,0-.36-1.9,2.19,2.19,0,0,0-1.21-1,6.31,6.31,0,0,0-2.26-.33h-.33a5.26,5.26,0,0,0-2.56.54,3.24,3.24,0,0,0-1.44,1.73,9.21,9.21,0,0,0-.46,3.26V51.6a6.53,6.53,0,0,0,.48,2.72,3.2,3.2,0,0,0,1.68,1.57,8.79,8.79,0,0,0,3.39.52,12.92,12.92,0,0,0,2.69-.26,22.47,22.47,0,0,0,2.2-.56l.13.1v2.17a8.66,8.66,0,0,1-2.11.65,16.18,16.18,0,0,1-2.94.24,9.49,9.49,0,0,1-4.86-1,5.66,5.66,0,0,1-2.48-3,14.2,14.2,0,0,1-.72-4.88A13.15,13.15,0,0,1,355,44.72Z"/><path d="M373.68,41.05l.76,2.6V58.46H371.9V41.05Zm2.74.41a5.44,5.44,0,0,1,2.88-.71,4.86,4.86,0,0,1,2.9.78,4,4,0,0,1,1.52,2.35l.17.23V58.46h-2.55v-13a2.09,2.09,0,0,0-.71-1.79,3.72,3.72,0,0,0-2.29-.55,6.07,6.07,0,0,0-2.26.45,4.13,4.13,0,0,0-1.74,1.14L374,43.55h.53A5.19,5.19,0,0,1,376.42,41.46Zm9.33,0a5.48,5.48,0,0,1,2.9-.74,4.54,4.54,0,0,1,3.46,1.3,5.63,5.63,0,0,1,1.23,4V58.46h-2.55v-13a2.1,2.1,0,0,0-.72-1.79,3.73,3.73,0,0,0-2.25-.55,6.11,6.11,0,0,0-2.26.45,4.45,4.45,0,0,0-1.77,1.14l-.43-1h.43A5.56,5.56,0,0,1,385.75,41.49Z"/></svg>