<?xml version="1.0" encoding="utf-8"?>
<!-- Generator: Adobe Illustrator 26.0.1, SVG Export Plug-In . SVG Version: 6.00 Build 0)  -->
<svg version="1.1" id="Layer_1" xmlns="http://www.w3.org/2000/svg" xmlns:xlink="http://www.w3.org/1999/xlink" x="0px" y="0px"
	 viewBox="0 0 400 100" style="enable-background:new 0 0 400 100;" xml:space="preserve">
<path d="M8.8,36.4h2.6l4.6,12.3l1.1,3.2c0.4,1.3,0.8,2.6,1.2,3.9h0.1c0.5-1.4,0.9-2.7,1.4-4s0.8-2.3,1.1-3.2l4.6-12.3h2.5l0.2,0.2
	l-8.3,21.8h-2.9L8.7,36.6L8.8,36.4z"/>
<path d="M30.9,34.8c0-0.2,0.2-0.4,0.4-0.5c0.3-0.1,0.6-0.1,0.9-0.1c0.3,0,0.6,0,1,0.1c0.2,0.1,0.4,0.3,0.4,0.5
	c0.1,0.4,0.1,0.8,0.1,1.2c0,0.4,0,0.8-0.1,1.1c0,0.2-0.2,0.4-0.4,0.5c-0.3,0.1-0.6,0.2-1,0.1c-0.3,0-0.6,0-0.9-0.1
	c-0.2-0.1-0.4-0.3-0.4-0.5c-0.1-0.4-0.1-0.7-0.1-1.1C30.7,35.6,30.8,35.2,30.9,34.8z M33.5,41v17.4h-2.5V41H33.5z"/>
<path d="M40,41l1,2.6v14.8h-2.6V41H40z M43,41.5c0.9-0.5,1.9-0.8,2.9-0.7c0.3,0,0.6,0,0.9,0.1c0.2,0,0.4,0.1,0.6,0.2v2.2l-0.1,0.1
	c-1.2-0.1-2.4-0.1-3.6,0.2c-0.6,0.1-1.2,0.4-1.7,0.7c-0.5,0.3-1,0.7-1.4,1.2l-0.1-1.9h0.6C41.5,42.7,42.2,42,43,41.5z"/>
<path d="M59.6,41v2.2H49V41H59.6z M58.5,58.6c-0.6,0.1-1.2,0.1-1.7,0.1c-1,0-2.1-0.2-3-0.7c-0.8-0.5-1.4-1.2-1.7-2.1
	c-0.3-1.1-0.5-2.2-0.5-3.4V37.4l1.5-0.8h1v16.6c0,0.6,0,1.3,0.2,1.9c0.1,0.4,0.4,0.8,0.8,1c0.6,0.3,1.2,0.4,1.9,0.3
	c0.9,0,1.9-0.1,2.8-0.2l0.1,0.1v2C59.5,58.5,59,58.6,58.5,58.6z"/>
<path d="M71.7,58c-1,0.5-2.1,0.7-3.2,0.7c-1.5,0.1-2.9-0.5-4-1.5c-1.1-1.3-1.6-2.9-1.5-4.6V41h2.5v12.4c-0.1,0.8,0.2,1.7,0.8,2.3
	c0.8,0.5,1.8,0.8,2.7,0.7c0.9,0,1.7-0.2,2.5-0.5c0.8-0.3,1.5-0.7,2.1-1.3l0.5,1.3h-0.5C73.3,56.8,72.6,57.6,71.7,58z M74.4,58.4
	l-0.7-2.7V41h2.5v17.4L74.4,58.4z"/>
<path d="M82.1,49.7c1.3-1,3-1.5,4.6-1.4c1,0,1.9,0,2.9,0.2c0.9,0.1,1.6,0.2,2.2,0.3h0.4v1.7l-3-0.1c-0.8,0-1.8,0-3.1,0
	c-0.8-0.1-1.6,0.1-2.3,0.6c-0.5,0.5-0.7,1.1-0.7,1.8v0.9c0,0.7,0.2,1.5,0.8,2c0.7,0.5,1.6,0.7,2.5,0.7h0.4c1,0,1.9-0.1,2.8-0.4
	c0.8-0.3,1.5-0.7,2.2-1.2l0.5,1.2h-0.5c-0.4,0.9-1.1,1.7-2,2.1c-1.1,0.5-2.4,0.8-3.6,0.7c-1.5,0.1-3-0.4-4.1-1.4
	c-1-1-1.6-2.4-1.5-3.9C80.5,52.1,81,50.7,82.1,49.7z M83.7,40.9c0.9-0.1,1.7-0.2,2.6-0.2c1.6-0.1,3.2,0.2,4.7,0.8
	c1.1,0.5,2,1.3,2.6,2.4c0.6,1.3,0.8,2.7,0.8,4.1v10.4h-1.8l-0.8-2.6v-8.8c0.1-0.8-0.1-1.7-0.6-2.4c-0.4-0.6-1-1-1.8-1.2
	c-1-0.3-2-0.4-3.1-0.4c-0.9,0-1.8,0.1-2.7,0.2c-0.7,0.1-1.4,0.2-2.2,0.4l-0.1-0.2v-2.2C82.1,41.2,82.8,41,83.7,40.9z"/>
<path d="M101.6,33.9v24.6h-2.5V33.9H101.6z"/>
<path d="M114.3,47.2v2.1h-8.8v-2.1H114.3z"/>
<path d="M132.1,36.4v2.4h-13.7v-2.4H132.1z M120.9,37.2v21.2h-2.6V37.2H120.9z M130.9,46.1v2.4h-11.7v-2.4H130.9z"/>
<path d="M135.5,34.8c0.1-0.2,0.2-0.4,0.4-0.5c0.3-0.1,0.6-0.1,0.9-0.1c0.3,0,0.6,0,0.9,0.1c0.2,0.1,0.4,0.3,0.4,0.5
	c0.1,0.4,0.1,0.8,0.1,1.2c0,0.4,0,0.8-0.1,1.1c0,0.2-0.2,0.4-0.4,0.5c-0.3,0.1-0.6,0.2-0.9,0.1c-0.3,0-0.6,0-0.9-0.1
	c-0.2-0.1-0.4-0.3-0.4-0.5c-0.1-0.4-0.1-0.8-0.1-1.1C135.3,35.6,135.4,35.2,135.5,34.8z M138.1,41v17.4h-2.5V41H138.1z"/>
<path d="M144.6,41l1,2.6v14.8H143V41H144.6z M147.6,41.5c0.9-0.5,1.9-0.8,2.9-0.7c0.3,0,0.6,0,0.9,0.1c0.2,0,0.4,0.1,0.6,0.2v2.2
	l-0.1,0.1c-1.2-0.1-2.4-0.1-3.6,0.2c-0.6,0.1-1.2,0.4-1.7,0.7c-0.5,0.3-1,0.7-1.4,1.2l-0.1-1.9h0.6C146.1,42.7,146.8,42,147.6,41.5
	L147.6,41.5z"/>
<path d="M154.4,44.7c0.5-1.2,1.4-2.3,2.5-3c1.2-0.7,2.6-1,4-1c1.2,0,2.3,0.2,3.4,0.7c0.9,0.5,1.7,1.2,2.2,2.1c0.5,1,0.8,2.2,0.8,3.4
	v2.9h-11.6v-1.9h9.1v-1.5c0-0.7-0.1-1.3-0.4-1.9c-0.3-0.5-0.7-0.8-1.2-1c-0.7-0.2-1.5-0.4-2.3-0.3h-0.3c-0.9,0-1.8,0.1-2.6,0.5
	c-0.7,0.4-1.2,1-1.4,1.7c-0.4,1-0.5,2.2-0.5,3.3v2.9c0,0.9,0.1,1.9,0.5,2.7c0.3,0.7,1,1.3,1.7,1.6c1.1,0.4,2.2,0.6,3.4,0.5
	c0.9,0,1.8-0.1,2.7-0.3c0.7-0.1,1.5-0.3,2.2-0.6l0.1,0.1v2.2c-0.7,0.3-1.4,0.5-2.1,0.7c-1,0.2-2,0.2-2.9,0.2c-1.7,0.1-3.4-0.2-4.9-1
	c-1.2-0.7-2-1.7-2.5-3c-0.5-1.6-0.8-3.2-0.7-4.9C153.5,48.1,153.8,46.4,154.4,44.7z"/>
<path d="M179.3,41.1c0.8-1.6,2-2.9,3.6-3.7c1.9-0.9,4-1.3,6.1-1.2c1.1,0,2.3,0.1,3.4,0.2c0.9,0.1,1.7,0.2,2.5,0.5v2.3l-0.1,0.1
	c-0.8-0.2-1.7-0.3-2.8-0.5c-1-0.2-2-0.2-3-0.2c-1.2,0-2.5,0.1-3.7,0.4c-1.6,0.3-2.9,1.4-3.6,3c-0.3,0.7-0.6,1.5-0.7,2.3
	c-0.2,0.9-0.3,1.8-0.2,2.7v1c0,1.5,0.2,2.9,0.6,4.3c0.3,1,0.8,1.9,1.5,2.7c0.7,0.5,1.4,0.9,2.2,1.1c1,0.2,2,0.4,3,0.3
	c0.9,0,1.8-0.1,2.7-0.4c0.8-0.2,1.5-0.5,2.2-1l0.4,1.7h-0.7c-0.5,0.7-1.2,1.3-2,1.6c-1,0.4-2,0.6-3,0.5c-1.9,0.1-3.7-0.4-5.4-1.2
	c-1.4-0.9-2.5-2.2-3.2-3.7c-0.8-2-1.1-4.2-1.1-6.3C178,45.3,178.4,43.1,179.3,41.1z M195.2,47.2v11.2h-1.8l-0.8-2v-9.2H195.2z"/>
<path d="M200.5,49.7c1.3-1,3-1.5,4.6-1.4c1,0,1.9,0,2.9,0.2c0.9,0.1,1.6,0.2,2.2,0.3h0.4v1.7l-3-0.1c-0.8,0-1.8,0-3.1,0
	c-0.8-0.1-1.6,0.2-2.3,0.7c-0.5,0.5-0.7,1.1-0.7,1.8v0.9c0,0.7,0.2,1.5,0.8,2c0.7,0.5,1.6,0.7,2.5,0.7h0.4c1,0,1.9-0.1,2.8-0.5
	c0.8-0.3,1.5-0.7,2.2-1.2l0.5,1.2h-0.5c-0.4,0.9-1.1,1.7-2,2.1c-1.1,0.5-2.4,0.8-3.6,0.7c-1.5,0.1-3-0.4-4.1-1.4
	c-1-1-1.6-2.4-1.5-3.9C199,52.1,199.5,50.7,200.5,49.7z M202.2,40.9c0.9-0.1,1.8-0.2,2.6-0.2c1.6-0.1,3.2,0.2,4.7,0.8
	c1.1,0.5,2,1.3,2.6,2.4c0.6,1.3,0.8,2.7,0.8,4.1v10.4h-1.8l-0.8-2.6v-8.8c0.1-0.8-0.2-1.7-0.6-2.4c-0.4-0.6-1.1-1-1.8-1.2
	c-1-0.3-2-0.4-3.1-0.4c-0.9,0-1.8,0.1-2.7,0.2c-0.7,0.1-1.4,0.2-2.1,0.4l-0.1-0.2v-2.2C200.6,41.2,201.3,41,202.2,40.9L202.2,40.9z"
	/>
<path d="M219.3,41l0.8,2.6v14.8h-2.6V41H219.3z M222.1,41.5c0.9-0.5,1.9-0.7,2.9-0.7c1-0.1,2,0.2,2.9,0.8c0.8,0.6,1.3,1.4,1.5,2.3
	l0.2,0.2v14.4H227v-13c0.1-0.7-0.2-1.3-0.7-1.8c-0.7-0.4-1.5-0.6-2.3-0.5c-0.8,0-1.5,0.2-2.3,0.5c-0.7,0.2-1.3,0.6-1.7,1.1l-0.3-1.1
	h0.5C220.6,42.7,221.3,42,222.1,41.5z M231.4,41.5c0.9-0.5,1.9-0.8,2.9-0.7c1.3-0.1,2.5,0.4,3.5,1.3c0.9,1.1,1.3,2.5,1.2,4v12.5
	h-2.5v-13c0.1-0.7-0.2-1.3-0.7-1.8c-0.7-0.4-1.5-0.6-2.2-0.5c-0.8,0-1.5,0.2-2.3,0.5c-0.7,0.2-1.3,0.6-1.8,1.1l-0.4-1h0.4
	C229.9,42.8,230.6,42,231.4,41.5L231.4,41.5z"/>
<path d="M243.6,34.8c0.1-0.2,0.2-0.4,0.4-0.5c0.3-0.1,0.6-0.1,0.9-0.1c0.3,0,0.6,0,0.9,0.1c0.2,0.1,0.4,0.3,0.4,0.5
	c0.1,0.4,0.1,0.8,0.1,1.2c0,0.4,0,0.8-0.1,1.1c0,0.2-0.2,0.4-0.4,0.5c-0.3,0.1-0.6,0.2-0.9,0.1c-0.3,0-0.6,0-0.9-0.1
	c-0.2-0.1-0.4-0.3-0.4-0.5c-0.1-0.4-0.1-0.8-0.1-1.1C243.5,35.6,243.5,35.2,243.6,34.8z M246.2,41v17.4h-2.6V41H246.2z"/>
<path d="M252.9,41l0.8,2.6v14.8h-2.5V41H252.9z M255.9,41.5c1-0.5,2.1-0.8,3.2-0.7c1.5-0.1,2.9,0.4,4,1.3c1.1,1.2,1.6,2.7,1.5,4.3
	v12H262V45.8c0-0.5-0.1-1-0.4-1.5c-0.3-0.4-0.7-0.7-1.1-0.9c-0.7-0.2-1.4-0.3-2.2-0.3c-0.9,0-1.8,0.1-2.6,0.4
	c-0.8,0.2-1.5,0.6-2.1,1.2l-0.3-1.1h0.5C254.3,42.7,255,42,255.9,41.5L255.9,41.5z"/>
<path d="M270.1,64.9c-1.2-0.9-1.8-2.2-1.7-3.7c-0.1-0.8,0.2-1.7,0.6-2.4c0.4-0.5,1-0.9,1.7-1v-0.5l1.5,0.7c-0.4,0.2-0.7,0.6-0.9,1
	c-0.2,0.5-0.3,1.1-0.3,1.7v0.3c0,0.6,0.1,1.2,0.4,1.7c0.3,0.4,0.8,0.8,1.3,0.9c0.9,0.2,1.8,0.3,2.7,0.3h0.9c0.9,0,1.9-0.1,2.8-0.3
	c0.6-0.1,1.1-0.4,1.4-0.9c0.3-0.5,0.4-1.1,0.4-1.7v-0.6c0.1-0.6-0.1-1.1-0.5-1.6c-0.5-0.4-1.1-0.6-1.8-0.5h-4.9
	c-1.3,0.1-2.6-0.2-3.7-1c-0.8-0.7-1.2-1.8-1.1-2.8c0-0.6,0.1-1.3,0.5-1.8c0.3-0.5,0.7-0.8,1.3-1l0.1-0.3l1.1,0.8
	c-0.3,0.2-0.5,0.5-0.6,0.8c-0.1,0.3-0.2,0.7-0.2,1v0.3c0,0.5,0.2,1,0.5,1.4c0.5,0.4,1.1,0.6,1.7,0.5h5.1c1.3-0.1,2.6,0.3,3.7,1.1
	c0.9,0.8,1.4,2,1.3,3.2c0,1.1-0.2,2.2-0.8,3.2c-0.6,0.9-1.5,1.5-2.5,1.9c-1.4,0.4-2.8,0.7-4.2,0.6C273.1,66.2,271.2,65.7,270.1,64.9
	z M271.8,52.3c-0.9-0.5-1.6-1.2-2.1-2.1c-1-2.1-0.9-4.5,0.1-6.6c0.5-0.9,1.3-1.6,2.2-2.1c2-1,4.4-1,6.5,0c0.9,0.5,1.7,1.2,2.2,2.1
	c0.5,1,0.8,2.2,0.8,3.4c0,1.1-0.2,2.3-0.7,3.3c-0.5,0.9-1.2,1.6-2.1,2.1c-1,0.5-2.2,0.7-3.3,0.7C274,53.1,272.8,52.9,271.8,52.3z
	 M277.3,50.5c0.5-0.2,0.9-0.5,1.1-1c0.2-0.5,0.4-1.1,0.3-1.7v-1.6c0-0.6-0.1-1.2-0.3-1.8c-0.2-0.5-0.6-0.9-1.1-1.1
	c-0.7-0.3-1.4-0.4-2.2-0.4c-0.8,0-1.5,0.1-2.2,0.4c-0.5,0.2-0.9,0.6-1.1,1.1c-0.2,0.6-0.4,1.2-0.3,1.8v1.6c0,0.6,0.1,1.2,0.4,1.7
	c0.3,0.5,0.7,0.8,1.2,1C274.4,50.9,275.9,50.9,277.3,50.5L277.3,50.5z M276.3,41.1h7.1V43l-3.6,0.3L276.3,41.1z"/>
<path d="M294.3,39.1c0.6-1,1.6-1.7,2.7-2.1c1.6-0.6,3.2-0.8,4.9-0.8c0.9,0,1.9,0,2.8,0.2c0.9,0.1,1.7,0.2,2.4,0.3v2.2L307,39
	c-0.7-0.1-1.6-0.2-2.5-0.3c-0.9-0.1-1.8-0.1-2.8-0.2c-1.1,0-2.3,0.1-3.4,0.4c-0.7,0.2-1.3,0.5-1.8,1.1c-0.4,0.6-0.6,1.2-0.6,1.9v0.4
	c-0.1,1,0.4,1.9,1.4,2.3c0.7,0.3,1.5,0.6,2.2,0.8l3.4,0.8c1.1,0.3,2.2,0.7,3.2,1.3c0.8,0.5,1.4,1.1,1.8,1.9c0.4,0.9,0.6,1.8,0.6,2.8
	c0,1.2-0.3,2.4-0.8,3.4c-0.6,1-1.5,1.8-2.7,2.3c-1.6,0.6-3.2,0.9-4.9,0.8c-1.3,0-2.6,0-3.7-0.2c-0.9-0.1-1.9-0.2-2.8-0.4v-2.3
	l0.1-0.1c2.1,0.4,4.2,0.6,6.3,0.6c1.2,0,2.3-0.1,3.5-0.4c0.7-0.2,1.4-0.6,1.9-1.2c0.4-0.7,0.7-1.5,0.6-2.3v-0.4
	c0-0.6-0.1-1.1-0.3-1.7c-0.3-0.5-0.7-0.9-1.2-1.1c-0.8-0.4-1.7-0.7-2.6-0.9l-3.4-0.8c-1-0.2-1.9-0.5-2.7-1c-0.7-0.4-1.3-1-1.6-1.8
	c-0.4-0.8-0.6-1.7-0.5-2.5C293.4,41.1,293.7,40,294.3,39.1z"/>
<path d="M312.9,41l3.8,9c0.3,0.7,0.6,1.6,0.9,2.5s0.6,1.9,0.9,3h0.7l0.4,2.9h-2.2l-7.2-17.2l0.1-0.2L312.9,41z M317.9,57.3l-0.2-1.7
	h1c0.3-1,0.5-2,0.8-2.9s0.5-1.8,0.8-2.8l3.2-8.8h2.5l0.1,0.2l-8.6,24.6H315l-0.1-0.1L317.9,57.3z"/>
<path d="M329,43.2c0.5-0.8,1.3-1.5,2.3-1.8c1.4-0.5,2.8-0.7,4.2-0.7c0.9,0,1.6,0,2.3,0.1s1.3,0.2,1.9,0.3v2.2l-0.2,0.2
	c-0.6-0.1-1.3-0.2-2-0.3c-0.7-0.1-1.5-0.1-2.2-0.1c-0.9,0-1.8,0.1-2.7,0.3c-0.5,0.1-1,0.4-1.4,0.8c-0.3,0.4-0.4,0.9-0.4,1.5v0.3
	c0,0.4,0.1,0.8,0.3,1.2c0.3,0.4,0.8,0.6,1.2,0.8c1,0.3,2,0.5,3,0.7c1.1,0.1,2.2,0.4,3.2,0.9c0.7,0.3,1.3,0.9,1.6,1.5
	c0.3,0.7,0.5,1.5,0.5,2.2c0,1-0.2,2-0.7,2.9c-0.5,0.9-1.3,1.5-2.2,1.9c-1.3,0.5-2.6,0.7-4,0.7c-1.1,0-2,0-2.9-0.1
	c-0.7-0.1-1.4-0.2-2.1-0.3v-2.2l0.2-0.2c1.6,0.3,3.2,0.5,4.8,0.5c0.9,0,1.8-0.1,2.7-0.3c0.5-0.1,1-0.5,1.3-0.9
	c0.3-0.5,0.4-1.1,0.4-1.7v-0.3c0-0.4-0.1-0.9-0.3-1.3c-0.3-0.4-0.8-0.7-1.3-0.9c-1-0.3-2-0.5-3-0.6c-1.1-0.2-2.2-0.5-3.2-1
	c-0.7-0.3-1.2-0.9-1.6-1.5c-0.3-0.6-0.5-1.4-0.5-2.1C328.3,44.9,328.5,44,329,43.2z"/>
<path d="M353.5,41v2.2h-10.6V41H353.5z M352.3,58.6c-0.6,0.1-1.2,0.1-1.7,0.1c-1,0-2.1-0.2-3-0.7c-0.8-0.5-1.4-1.2-1.6-2.1
	c-0.3-1.1-0.5-2.2-0.5-3.4V37.4l1.6-0.8h1v16.6c0,0.6,0,1.3,0.2,1.9c0.1,0.4,0.4,0.8,0.8,1c0.6,0.3,1.2,0.4,1.9,0.3
	c0.9,0,1.9-0.1,2.8-0.2l0.1,0.1v2C353.3,58.5,352.8,58.6,352.3,58.6L352.3,58.6z"/>
<path d="M357,44.7c0.5-1.2,1.4-2.3,2.5-3c1.2-0.7,2.6-1,4-1c1.2,0,2.3,0.2,3.4,0.7c0.9,0.5,1.7,1.2,2.2,2.1c0.5,1,0.8,2.2,0.8,3.4
	v2.9h-11.6v-1.9h9v-1.5c0-0.7-0.1-1.3-0.4-1.9c-0.3-0.5-0.7-0.8-1.2-1c-0.7-0.2-1.5-0.4-2.3-0.3h-0.3c-0.9,0-1.8,0.1-2.6,0.5
	c-0.7,0.4-1.2,1-1.4,1.7c-0.3,1.1-0.5,2.2-0.5,3.3v2.9c0,0.9,0.1,1.9,0.5,2.7c0.3,0.7,0.9,1.3,1.7,1.6c1.1,0.4,2.2,0.6,3.4,0.5
	c0.9,0,1.8-0.1,2.7-0.3c0.7-0.1,1.5-0.3,2.2-0.6l0.1,0.1v2.2c-0.7,0.3-1.4,0.5-2.1,0.7c-1,0.2-2,0.2-2.9,0.2c-1.7,0.1-3.4-0.2-4.9-1
	c-1.2-0.7-2-1.7-2.5-3c-0.5-1.6-0.8-3.2-0.7-4.9C356.1,48.1,356.4,46.4,357,44.7z"/>
<path d="M375.7,41l0.8,2.6v14.8h-2.5V41H375.7z M378.4,41.5c0.9-0.5,1.9-0.7,2.9-0.7c1-0.1,2,0.2,2.9,0.8c0.8,0.6,1.3,1.4,1.5,2.3
	l0.2,0.2v14.4h-2.5v-13c0.1-0.7-0.2-1.3-0.7-1.8c-0.7-0.4-1.5-0.6-2.3-0.5c-0.8,0-1.5,0.2-2.3,0.5c-0.7,0.2-1.3,0.6-1.7,1.1
	l-0.3-1.2h0.5C377,42.7,377.6,42,378.4,41.5L378.4,41.5z M387.7,41.5c0.9-0.5,1.9-0.8,2.9-0.7c1.3-0.1,2.5,0.4,3.5,1.3
	c0.9,1.1,1.3,2.6,1.2,4v12.4h-2.5v-13c0.1-0.7-0.2-1.3-0.7-1.8c-0.7-0.4-1.5-0.6-2.2-0.5c-0.8,0-1.5,0.2-2.3,0.5
	c-0.7,0.2-1.3,0.6-1.8,1.1l-0.4-1h0.4C386.2,42.8,386.9,42,387.7,41.5L387.7,41.5z"/>
</svg>
