<?xml version="1.0" encoding="utf-8"?>
<!-- Generator: Adobe Illustrator 26.0.1, SVG Export Plug-In . SVG Version: 6.00 Build 0)  -->
<svg version="1.1" id="Layer_1" xmlns="http://www.w3.org/2000/svg" xmlns:xlink="http://www.w3.org/1999/xlink" x="0px" y="0px"
	 viewBox="0 0 602.3 99" style="enable-background:new 0 0 602.3 99;" xml:space="preserve">
<style type="text/css">
	.st0{stroke:#000000;stroke-miterlimit:10;}
	.st1{stroke:#000000;stroke-width:0.71;stroke-miterlimit:10;}
</style>
<g>
	<g id="Layer_1_00000099648720077085108590000017222763077895811219_">
		
			<image style="display:none;overflow:visible;opacity:0.2;enable-background:new    ;" width="489" height="98" xlink:href="5AC29B65.png"  transform="matrix(1 0 0 1 113.33 1)">
		</image>
		<path class="st0" d="M154.3,9.2c19.8,0,29.3,12.2,29.5,26.6h-8.7c-0.4-10-6.6-18.8-20.8-18.8c-14.4,0-23.9,10.1-23.9,26.1
			s9.5,26.1,23.9,26.1s21.1-8.8,21.6-20.2h8.7c-0.6,15.2-10.5,28-30.3,28S121.7,63.3,121.7,43S134.5,9.2,154.3,9.2z"/>
		<path class="st0" d="M208.4,48l17.1-0.7v-2.5c0-6.7-3.4-10.5-11.7-10.5S202.2,38.1,202,43h-8.4c0.4-8.9,6.7-15.8,20.2-15.8
			s19.6,6.9,19.6,18v30.2h-7.9v-7.1c0-0.3-0.1-0.5-0.4-0.5c0,0-0.1,0-0.1,0c-0.4,0-0.8,0.2-0.9,0.6c-2.1,5-6.8,8.4-14.8,8.4
			c-10.8,0-18-6.1-18-15.2C191.2,53.5,196.7,48.5,208.4,48z M210.6,69.8c9,0,14.9-5.1,14.9-15.1v-0.5l-17.1,0.7
			c-6.3,0.3-9,2.7-9,6.8C199.4,66.6,203.4,69.8,210.6,69.8L210.6,69.8z"/>
		<path class="st0" d="M283.5,43.5h-8.3c-0.6-6.4-5-9.3-12.5-9.3S252,37.1,252,41s2.8,5.2,9.2,6.5l6.7,1.3c8.6,1.6,16,4.4,16,13.7
			s-7.1,14.5-19.2,14.5s-21.2-5.2-21.9-16.4h8.2c0.6,6.2,5.8,9.5,13.7,9.5s11.1-3,11.1-7.1s-3.2-5.5-9.7-6.7l-6.7-1.3
			c-9.2-1.7-15.5-4.8-15.5-13.8s7.8-13.8,18.9-13.8S282.6,32,283.5,43.5z"/>
		<path class="st0" d="M331.5,43.5h-8.3c-0.6-6.4-5-9.3-12.5-9.3s-10.7,2.9-10.7,6.8s2.8,5.2,9.2,6.5l6.7,1.3
			c8.6,1.6,16.1,4.4,16.1,13.7s-7.1,14.5-19.2,14.5s-21.1-5.2-21.9-16.4h8.3c0.6,6.2,5.8,9.5,13.7,9.5s11.1-3,11.1-7.1
			s-3.2-5.5-9.7-6.7l-6.7-1.3c-9.1-1.7-15.5-4.8-15.5-13.8s7.8-13.8,18.9-13.8S330.6,32,331.5,43.5z"/>
		<path class="st0" d="M356.4,48l17.1-0.7v-2.5c0-6.7-3.4-10.5-11.7-10.5S350.1,38.1,350,43h-8.4c0.4-8.9,6.7-15.8,20.2-15.8
			s19.6,6.9,19.6,18v30.2h-7.9v-7.1c0-0.3-0.1-0.5-0.4-0.5c0,0-0.1,0-0.1,0c-0.4,0-0.8,0.2-0.9,0.6c-2.1,5-6.8,8.4-14.8,8.4
			c-10.8,0-18-6.1-18-15.2C339.2,53.5,344.6,48.5,356.4,48z M358.6,69.8c9,0,14.9-5.1,14.9-15.1v-0.5l-17.1,0.7
			c-6.3,0.3-9,2.7-9,6.8C347.4,66.6,351.4,69.8,358.6,69.8z"/>
		<path class="st0" d="M393.7,75.5V28.6h8.1v7.6c0,0.3,0.1,0.5,0.4,0.5c0,0,0.1,0,0.1,0c0.4,0,0.7-0.2,0.8-0.5
			c2.6-5.2,6.8-8.9,15.8-8.9c11.3,0,18,6.8,18,19v29.3h-8.1v-28c0-8.6-4.5-13.1-12.6-13.1c-9,0-14.4,5.4-14.4,16.7v24.4H393.7z"/>
		<path class="st0" d="M469.2,27.2c7.8,0,13.2,3.2,16.2,9.2c0.3,0.5,0.5,0.7,0.9,0.7c0.3,0,0.5-0.1,0.5-0.4c0,0,0-0.1,0-0.1V10.5
			h8.1v65h-8.1v-8c0-0.3-0.1-0.5-0.4-0.5c0,0-0.1,0-0.1,0c-0.5,0-0.6,0.2-0.9,0.7c-3.1,6-8.5,9.2-16.2,9.2
			c-11.3,0-22.5-8.1-22.5-24.8S458,27.2,469.2,27.2z M471.1,69.6c9.5,0,16.2-6.3,16.2-17.6s-6.8-17.6-16.2-17.6s-16.2,6.3-16.2,17.6
			S461.7,69.6,471.1,69.6z"/>
		<path class="st0" d="M507.7,75.5V28.6h8.1v7.5c0,0.5,0.2,0.6,0.6,0.6s0.7-0.3,0.9-0.9c1.6-5.1,5.7-7.5,11.6-7.5h5.3v7.9h-6.5
			c-7.9,0-12,3.6-12,12.6v26.6H507.7z"/>
		<path class="st0" d="M555.3,48l17.1-0.7v-2.5c0-6.7-3.4-10.5-11.7-10.5s-11.6,3.9-11.8,8.8h-8.4c0.4-8.9,6.7-15.8,20.2-15.8
			s19.6,6.9,19.6,18v30.2h-7.9v-7.1c0-0.3-0.1-0.5-0.4-0.5c0,0-0.1,0-0.1,0c-0.4,0-0.8,0.2-0.9,0.6c-2.1,5-6.8,8.4-14.8,8.4
			c-10.8,0-18-6.1-18-15.2C538.2,53.5,543.6,48.5,555.3,48z M557.6,69.8c9,0,14.9-5.1,14.9-15.1v-0.5l-17.1,0.7
			c-6.3,0.3-9,2.7-9,6.8C546.3,66.6,550.4,69.8,557.6,69.8L557.6,69.8z"/>
		<path class="st1" d="M43,85.6c-7.4,0-13.4-6-13.4-13.4c0-7.4,6-13.4,13.4-13.4c7.4,0,13.4,6,13.4,13.4c0,3.1-1.1,6.2-3.1,8.6
			C50.8,83.9,47,85.7,43,85.6z M44.3,60.3c-6.6-0.7-12.5,4.1-13.2,10.7c-0.7,6.6,4.1,12.5,10.7,13.2c4,0.4,8-1.2,10.6-4.4
			c4.2-5.1,3.4-12.7-1.8-16.9C48.8,61.4,46.6,60.5,44.3,60.3z"/>
		<path class="st1" d="M13.8,56.4c-7.4,0-13.4-6-13.4-13.4c0-7.4,6-13.4,13.4-13.4c7.4,0,13.4,6,13.4,13.4c0,3.6-1.4,7-3.9,9.5
			C20.7,55,17.3,56.4,13.8,56.4z M14.8,31C8.1,30.5,2.4,35.4,1.8,42c-0.5,6.6,4.4,12.4,11,12.9c6.6,0.5,12.4-4.4,12.9-11
			c0.3-4-1.4-8-4.6-10.5C19.3,32.1,17.1,31.2,14.8,31L14.8,31z"/>
		<path class="st1" d="M33.5,81.7c-8.7-8.7-7.2-16.6-5.8-24.2s2.7-14.8-5.4-23l1-1c8.7,8.7,7.2,16.6,5.8,24.2s-2.7,14.8,5.4,23
			L33.5,81.7z"/>
		<path class="st1" d="M13.8,56.4c-7.4,0-13.4-6-13.4-13.4c0-7.4,6-13.4,13.4-13.4c7.4,0,13.4,6,13.4,13.4c0,3.6-1.4,7-3.9,9.5
			C20.7,55,17.3,56.4,13.8,56.4z M14.8,31C8.1,30.5,2.4,35.4,1.8,42c-0.5,6.6,4.4,12.4,11,12.9c6.6,0.5,12.4-4.4,12.9-11
			c0.3-4-1.4-8-4.6-10.5C19.3,32.1,17.1,31.2,14.8,31L14.8,31z"/>
		<path class="st1" d="M44,27.2c-3.9,0.3-7.8-1.1-10.5-3.9l0,0c-5.2-5.2-5.2-13.7,0-19c5.2-5.2,13.7-5.2,19,0c5.2,5.2,5.2,13.7,0,19
			C50.2,25.5,47.2,26.9,44,27.2z M43,1.8c-6.6,0-12,5.3-12,12c0,3.2,1.3,6.3,3.5,8.5l0,0c4.7,4.7,12.3,4.7,17,0
			c4.7-4.7,4.7-12.3,0-17C49.2,3,46.1,1.8,43,1.8z"/>
		<path class="st1" d="M5.3,34.5l-1-1c8.7-8.7,16.6-7.2,24.2-5.8s14.8,2.7,23-5.4l1,1c-8.7,8.7-16.6,7.2-24.2,5.8
			S13.4,26.3,5.3,34.5z"/>
		<path class="st1" d="M72.2,56.4c-7.4,0-13.4-6-13.4-13.4c0-7.4,6-13.4,13.4-13.4c7.4,0,13.4,6,13.4,13.4c0,3.1-1.1,6.2-3.1,8.6
			C80,54.7,76.2,56.4,72.2,56.4z M73.5,31c-6.6-0.7-12.5,4.1-13.2,10.7c-0.7,6.6,4.1,12.5,10.7,13.2c4,0.4,8-1.2,10.6-4.4
			c4.2-5.1,3.4-12.7-1.8-16.9C78,32.2,75.8,31.3,73.5,31z"/>
		<path class="st1" d="M43,27.2c-7.4,0-13.4-6-13.4-13.4c0-7.4,6-13.4,13.4-13.4c7.4,0,13.4,6,13.4,13.4c0,3.6-1.4,7-3.9,9.5l0,0
			C50,25.8,46.5,27.2,43,27.2z M43,1.8c-6.6,0-12,5.4-12,12c0,6.6,5.4,12,12,12s12-5.4,12-12c0-3.2-1.3-6.2-3.5-8.5
			C49.2,3,46.2,1.8,43,1.8z"/>
		<path class="st1" d="M62.7,52.5c-8.7-8.7-7.2-16.6-5.8-24.2s2.7-14.8-5.4-23l1-1c8.7,8.7,7.2,16.6,5.8,24.2s-2.7,14.8,5.4,23
			L62.7,52.5z"/>
		<path class="st1" d="M72.2,56.4c-7.4,0-13.4-6-13.5-13.4c0-7.4,6-13.4,13.4-13.5c3.6,0,7,1.4,9.5,3.9l0,0c5.2,5.2,5.2,13.7,0,19
			C79.2,55,75.8,56.4,72.2,56.4z M72.2,31c-6.6,0-12,5.4-12,12c0,6.6,5.4,12,12,12s12-5.4,12-12c0-3.2-1.3-6.2-3.5-8.5l0,0
			C78.5,32.2,75.4,31,72.2,31L72.2,31z"/>
		<path class="st1" d="M43,85.6c-7.4,0-13.4-6-13.4-13.4c0-7.4,6-13.4,13.4-13.4c7.4,0,13.4,6,13.4,13.4c0,3.1-1.1,6.2-3.1,8.6
			C50.8,83.9,47,85.7,43,85.6z M44.3,60.3c-6.6-0.7-12.5,4.1-13.2,10.7c-0.7,6.6,4.1,12.5,10.7,13.2c4,0.4,8-1.2,10.6-4.4
			c4.2-5.1,3.4-12.7-1.8-16.9C48.8,61.4,46.6,60.5,44.3,60.3z"/>
		<path class="st1" d="M34.5,63.7l-1-1c8.7-8.7,16.6-7.2,24.2-5.8s14.8,2.7,23-5.4l1,1c-8.7,8.7-16.6,7.2-24.2,5.8
			S42.6,55.6,34.5,63.7z"/>
	</g>
</g>
</svg>
