<?xml version="1.0" encoding="utf-8"?>
<!-- Generator: Adobe Illustrator 26.0.1, SVG Export Plug-In . SVG Version: 6.00 Build 0)  -->
<svg version="1.1" id="Layer_1" xmlns="http://www.w3.org/2000/svg" xmlns:xlink="http://www.w3.org/1999/xlink" x="0px" y="0px"
	 viewBox="0 0 100 100" style="enable-background:new 0 0 100 100;" xml:space="preserve">
<style type="text/css">
	.st0{stroke:#000000;stroke-miterlimit:10;}
</style>
<path class="st0" d="M60,33.3c-3.1,2-4.9,4.5-7.4,7.3l6,6c1.5-1.6,2.3-2.6,3.8-4.2c1.7-1.9,3.8-3,6.2-3.2c4.5-0.4,8.7,2.6,10,7.2
	C79.9,50.9,78,56,74,58.3c-3.8,2.2-8.2,1.5-11.5-1.7c-6.4-6.6-13-13.2-19.7-19.7c-4.6-4.5-10.1-6.2-16.2-4.8
	C16.9,34.3,10.9,44.3,13,54.6c2.8,13.7,18.8,19.6,28.9,10.5c2.2-2,3.8-3.8,5.6-5.9l-5.8-5.8c-1.4,1.4-2.8,2.7-4.2,4.1
	c-3.1,3.1-7.3,4.1-11.1,2.2c-3.8-1.9-6-6.1-5.5-10.5c0.5-4.1,2.6-6.9,6.3-8.3c3.6-1.4,7-0.7,9.8,2.1c6.7,6.7,13.4,13.4,20.2,20.1
	c4.3,4.2,9.4,5.9,15.1,4.9c9.8-1.6,16.4-11.3,14.8-21.7C85.1,33.1,70.9,26.2,60,33.3z"/>
</svg>
