<svg id="Layer_1" data-name="Layer 1" xmlns="http://www.w3.org/2000/svg" viewBox="0 0 92.41 92.43"><defs><style>.cls-1{fill:#fff;stroke:#fff;stroke-miterlimit:10;stroke-width:0.71px;}</style></defs><path class="cls-1" d="M7198.65,7243.12a14.44,14.44,0,1,1,11.1-5.2A14.36,14.36,0,0,1,7198.65,7243.12Zm1.39-27.28a12.89,12.89,0,0,0-11.44,4.73,12.75,12.75,0,0,0-2.79,6.73,12.89,12.89,0,0,0,4.73,11.44,12.75,12.75,0,0,0,6.73,2.79,12.92,12.92,0,0,0,9.5-22.9A12.75,12.75,0,0,0,7200,7215.84Z" transform="translate(-7152.46 -7151.04)"/><path class="cls-1" d="M7167.22,7211.69a14.44,14.44,0,1,1,1.38-28.81,14.26,14.26,0,0,1,7.44,2.94,14.44,14.44,0,0,1-8.82,25.87Zm1.06-27.31a12.92,12.92,0,1,0,6.83,2.65A12.86,12.86,0,0,0,7168.28,7184.38Z" transform="translate(-7152.46 -7151.04)"/><path class="cls-1" d="M7188.44,7238.9c-9.34-9.35-7.77-17.85-6.25-26.07s3-15.92-5.83-24.71l1.07-1.07c9.35,9.35,7.78,17.84,6.25,26.06s-2.94,15.93,5.84,24.71Z" transform="translate(-7152.46 -7151.04)"/><path class="cls-1" d="M7167.22,7211.69a14.44,14.44,0,1,1,1.38-28.81,14.26,14.26,0,0,1,7.44,2.94,14.44,14.44,0,0,1-8.82,25.87Zm1.06-27.31a12.92,12.92,0,1,0,6.83,2.65A12.86,12.86,0,0,0,7168.28,7184.38Z" transform="translate(-7152.46 -7151.04)"/><path class="cls-1" d="M7199.8,7180.22a14.37,14.37,0,0,1-11.35-4.19h0a14.42,14.42,0,1,1,11.35,4.19Zm-1.15-27.31a12.92,12.92,0,0,0-9.13,22.05h0a12.92,12.92,0,1,0,9.13-22.05Z" transform="translate(-7152.46 -7151.04)"/><path class="cls-1" d="M7158.09,7188.12l-1.08-1.07c9.35-9.35,17.85-7.78,26.07-6.26s15.92,2.95,24.71-5.83l1.07,1.07c-9.35,9.35-17.84,7.78-26.06,6.26S7166.87,7179.34,7158.09,7188.12Z" transform="translate(-7152.46 -7151.04)"/><path class="cls-1" d="M7230.08,7211.69a14.44,14.44,0,1,1,11.1-5.2A14.39,14.39,0,0,1,7230.08,7211.69Zm1.39-27.28a12.89,12.89,0,0,0-11.44,4.73,12.75,12.75,0,0,0-2.79,6.73,12.89,12.89,0,0,0,4.73,11.44,12.75,12.75,0,0,0,6.73,2.79,12.89,12.89,0,0,0,11.44-4.73,12.75,12.75,0,0,0,2.79-6.73,12.89,12.89,0,0,0-4.73-11.44A12.75,12.75,0,0,0,7231.47,7184.41Z" transform="translate(-7152.46 -7151.04)"/><path class="cls-1" d="M7198.65,7180.25a14.43,14.43,0,1,1,10.21-4.22h0A14.36,14.36,0,0,1,7198.65,7180.25Zm0-27.34a12.92,12.92,0,1,0,9.14,3.78A12.82,12.82,0,0,0,7198.65,7152.91Z" transform="translate(-7152.46 -7151.04)"/><path class="cls-1" d="M7219.88,7207.46c-9.35-9.35-7.78-17.84-6.26-26.06s2.95-15.93-5.83-24.71l1.07-1.07c9.35,9.34,7.78,17.84,6.26,26.06s-2.95,15.93,5.83,24.71Z" transform="translate(-7152.46 -7151.04)"/><path class="cls-1" d="M7230.08,7211.69a14.44,14.44,0,1,1,10.21-24.64h0a14.44,14.44,0,0,1-10.21,24.64Zm0-27.35a12.82,12.82,0,0,0-9.49,4.16,12.92,12.92,0,1,0,18.63-.38h0A12.83,12.83,0,0,0,7230.08,7184.34Z" transform="translate(-7152.46 -7151.04)"/><path class="cls-1" d="M7198.65,7243.12a14.44,14.44,0,1,1,11.1-5.2A14.36,14.36,0,0,1,7198.65,7243.12Zm1.39-27.28a12.89,12.89,0,0,0-11.44,4.73,12.75,12.75,0,0,0-2.79,6.73,12.89,12.89,0,0,0,4.73,11.44,12.75,12.75,0,0,0,6.73,2.79,12.92,12.92,0,0,0,9.5-22.9A12.75,12.75,0,0,0,7200,7215.84Z" transform="translate(-7152.46 -7151.04)"/><path class="cls-1" d="M7189.52,7219.55l-1.07-1.07c9.34-9.35,17.84-7.78,26.06-6.26s15.92,2.95,24.71-5.83l1.07,1.07c-9.35,9.35-17.84,7.78-26.06,6.26S7198.3,7210.77,7189.52,7219.55Z" transform="translate(-7152.46 -7151.04)"/></svg>