<svg id="Layer_1" data-name="Layer 1" xmlns="http://www.w3.org/2000/svg" viewBox="0 0 64.22 64.21"><defs><style>.cls-1,.cls-2{fill:#fff;stroke:#fff;stroke-miterlimit:10;}.cls-1{stroke-width:0.71px;}</style></defs><path class="cls-1" d="M7229.42,7189.05c-.95,0-1.5.68-1.5,1.76q0,12.48,0,25a11.75,11.75,0,0,1-12.06,12.18q-16.47,0-32.93,0a11.62,11.62,0,0,1-11.88-11.72q-.11-16.72,0-33.45a11.63,11.63,0,0,1,11.87-11.72c1.31,0,2.62,0,3.94,0h21.21c1.16,0,1.84-.55,1.86-1.52a1.77,1.77,0,0,0-1.8-1.78c-.17,0-.34,0-.51,0-8.25,0-16.5,0-24.75,0a14.88,14.88,0,0,0-15.13,15.18c0,5.52,0,11,0,16.57s0,11.05,0,16.57a14.91,14.91,0,0,0,15.15,15.17h33a17.57,17.57,0,0,0,2.71-.21c6.64-1,12.4-7.08,12.52-13.65.17-8.86.06-17.72.06-26.58A1.7,1.7,0,0,0,7229.42,7189.05Z" transform="translate(-7167.39 -7167.4)"/><line class="cls-2" x1="32.11" y1="13.05" x2="32.11" y2="53.25"/><rect class="cls-2" x="29.85" y="13.05" width="4.52" height="40.2" rx="1.68"/><line class="cls-2" x1="12.01" y1="33.15" x2="52.21" y2="33.15"/><rect class="cls-2" x="12.01" y="30.89" width="40.2" height="4.52" rx="1.68"/></svg>