<svg id="Layer_1" data-name="Layer 1" xmlns="http://www.w3.org/2000/svg" viewBox="0 0 79.69 79.69"><defs><style>.cls-1{fill:#fff;}.cls-1,.cls-2{stroke:#fff;stroke-miterlimit:10;}.cls-2{fill:none;stroke-width:2.13px;}</style></defs><path class="cls-1" d="M7182.66,7189.09v-1c.21-8.62,7.15-13.49,17.22-13.49s16.49,4.87,16.46,12.83c0,7.66-5,10.91-10,13.7l-.69.41c-2.45,1.42-3.41,2.69-3.41,6v4.24h-5.87v-4.55c0-4.66,1.35-7.21,5.39-9.52l1.1-.59c4.24-2.48,7.32-4.86,7.32-9.62,0-5-3.9-8-10.46-8s-11.1,3-11.18,9.56Zm13.05,28.56H7203v7.41h-7.24Z" transform="translate(-7159.66 -7159.97)"/><rect class="cls-2" x="1.06" y="1.06" width="77.56" height="77.56" rx="16.39"/></svg>