<?xml version="1.0" encoding="utf-8"?>
<!-- Generator: Adobe Illustrator 25.4.8, SVG Export Plug-In . SVG Version: 6.00 Build 0)  -->
<svg version="1.1" id="Layer_1" xmlns="http://www.w3.org/2000/svg" xmlns:xlink="http://www.w3.org/1999/xlink" x="0px" y="0px"
	 viewBox="0 0 100 100" style="enable-background:new 0 0 100 100;" xml:space="preserve">
<g>
	<path d="M6.8,45c0.4-0.9,1.1-1.6,1.9-2c0.8-0.4,1.9-0.7,3.1-0.7c0.6,0,1.1,0,1.6,0.1c0.5,0.1,0.9,0.1,1.2,0.2v1.3L14.6,44
		c-0.9-0.2-1.8-0.3-2.7-0.3c-0.8,0-1.4,0.1-1.9,0.2c-0.5,0.1-0.9,0.4-1.2,0.6C8.5,44.8,8.2,45.3,8,46c-0.2,0.7-0.3,1.4-0.3,2.3v0.6
		c0,0.9,0.1,1.7,0.3,2.4c0.2,0.7,0.5,1.2,0.8,1.5c0.3,0.3,0.7,0.5,1.2,0.6c0.5,0.1,1,0.2,1.6,0.2c0.5,0,1.1,0,1.7-0.1
		c0.6-0.1,1.1-0.2,1.5-0.3l0.1,0.1v1.2c-0.5,0.1-1,0.3-1.5,0.4c-0.5,0.1-1.2,0.1-1.9,0.1c-1.3,0-2.3-0.2-3.1-0.7
		C7.7,53.7,7.1,53,6.8,52c-0.4-0.9-0.6-2.1-0.6-3.6C6.2,47,6.4,45.9,6.8,45z"/>
	<path d="M17,47.1c0.4-0.8,0.9-1.3,1.5-1.7c0.6-0.4,1.3-0.5,2.1-0.5c0.8,0,1.5,0.2,2.1,0.5c0.6,0.4,1.1,0.9,1.5,1.7
		c0.4,0.8,0.5,1.7,0.5,2.8c0,1-0.2,1.9-0.5,2.7c-0.3,0.7-0.8,1.3-1.5,1.7c-0.6,0.4-1.4,0.6-2.2,0.6c-0.8,0-1.6-0.2-2.2-0.6
		c-0.6-0.4-1.1-1-1.4-1.7c-0.3-0.7-0.5-1.6-0.5-2.7C16.4,48.8,16.6,47.9,17,47.1z M18.1,52.2c0.2,0.5,0.5,0.8,0.9,1
		c0.4,0.2,0.9,0.4,1.6,0.4c0.6,0,1.2-0.1,1.6-0.4c0.4-0.2,0.7-0.6,0.9-1.1c0.2-0.5,0.3-1,0.3-1.7v-1c0-0.7-0.1-1.3-0.3-1.8
		c-0.2-0.5-0.5-0.8-0.9-1.1c-0.4-0.2-0.9-0.4-1.6-0.4c-0.6,0-1.1,0.1-1.5,0.4c-0.4,0.2-0.7,0.6-0.9,1.1c-0.2,0.5-0.3,1.1-0.3,1.8v1
		C17.8,51.1,17.9,51.7,18.1,52.2z"/>
	<path d="M27.7,45l0.4,1.4v8.2h-1.4V45H27.7z M29.2,45.3c0.4-0.3,1-0.4,1.6-0.4c0.7,0,1.2,0.1,1.6,0.4c0.4,0.3,0.7,0.7,0.8,1.3
		l0.1,0.1v8H32v-7.2c0-0.5-0.1-0.8-0.4-1c-0.3-0.2-0.7-0.3-1.3-0.3c-0.4,0-0.8,0.1-1.3,0.2c-0.4,0.2-0.7,0.4-1,0.6l-0.2-0.6h0.3
		C28.5,45.9,28.8,45.5,29.2,45.3z M34.4,45.3c0.4-0.3,1-0.4,1.6-0.4c0.8,0,1.5,0.2,1.9,0.7s0.7,1.2,0.7,2.2v6.9h-1.4v-7.2
		c0-0.5-0.1-0.8-0.4-1c-0.3-0.2-0.7-0.3-1.2-0.3c-0.4,0-0.8,0.1-1.3,0.2c-0.4,0.2-0.7,0.4-1,0.6l-0.2-0.5h0.2
		C33.6,46,34,45.6,34.4,45.3z"/>
	<path d="M42,45l0.4,1.4v8.2H41V45H42z M43.5,45.3c0.4-0.3,1-0.4,1.6-0.4c0.7,0,1.2,0.1,1.6,0.4c0.4,0.3,0.7,0.7,0.8,1.3l0.1,0.1v8
		h-1.4v-7.2c0-0.5-0.1-0.8-0.4-1c-0.3-0.2-0.7-0.3-1.3-0.3c-0.4,0-0.8,0.1-1.3,0.2c-0.4,0.2-0.7,0.4-1,0.6l-0.2-0.6h0.3
		C42.7,45.9,43.1,45.5,43.5,45.3z M48.7,45.3c0.4-0.3,1-0.4,1.6-0.4c0.8,0,1.5,0.2,1.9,0.7s0.7,1.2,0.7,2.2v6.9h-1.4v-7.2
		c0-0.5-0.1-0.8-0.4-1c-0.3-0.2-0.7-0.3-1.2-0.3c-0.4,0-0.8,0.1-1.3,0.2c-0.4,0.2-0.7,0.4-1,0.6l-0.2-0.5h0.2
		C47.8,46,48.2,45.6,48.7,45.3z"/>
	<path d="M59.9,54.5c-0.5,0.3-1.1,0.4-1.8,0.4c-1,0-1.7-0.3-2.2-0.8c-0.5-0.5-0.8-1.4-0.8-2.5V45h1.4v6.9c0,0.6,0.2,1,0.5,1.3
		c0.3,0.2,0.8,0.4,1.5,0.4c0.5,0,0.9-0.1,1.4-0.3c0.5-0.2,0.9-0.4,1.2-0.7l0.3,0.7H61C60.8,53.8,60.4,54.2,59.9,54.5z M61.5,54.7
		l-0.4-1.5V45h1.4v9.7H61.5z"/>
	<path d="M65.9,45l0.4,1.4v8.2h-1.4V45H65.9z M67.6,45.3c0.5-0.3,1.1-0.4,1.7-0.4c0.9,0,1.6,0.2,2.2,0.7c0.5,0.5,0.8,1.3,0.8,2.4
		v6.7h-1.4v-7c0-0.3-0.1-0.6-0.2-0.8c-0.1-0.2-0.3-0.4-0.6-0.5c-0.3-0.1-0.7-0.2-1.2-0.2c-0.5,0-1,0.1-1.4,0.2
		c-0.5,0.2-0.9,0.4-1.2,0.6l-0.2-0.6h0.3C66.7,45.9,67.1,45.5,67.6,45.3z"/>
	<path d="M74.6,41.6c0-0.1,0.1-0.2,0.2-0.3c0.1,0,0.3-0.1,0.5-0.1s0.4,0,0.5,0.1c0.1,0,0.2,0.1,0.2,0.3c0,0.1,0.1,0.4,0.1,0.6
		s0,0.5-0.1,0.6c0,0.1-0.1,0.2-0.2,0.3c-0.1,0.1-0.3,0.1-0.5,0.1s-0.4,0-0.5-0.1c-0.1-0.1-0.2-0.2-0.2-0.3c0-0.1-0.1-0.4-0.1-0.6
		C74.5,41.9,74.6,41.7,74.6,41.6z M76.1,45v9.7h-1.4V45H76.1z"/>
	<path d="M83.8,45v1.2h-5.9V45H83.8z M83.2,54.8c-0.3,0-0.6,0.1-1,0.1c-0.7,0-1.2-0.1-1.7-0.4c-0.4-0.3-0.7-0.7-0.9-1.2
		c-0.2-0.5-0.3-1.1-0.3-1.9V43l0.9-0.5h0.5v9.2c0,0.5,0,0.8,0.1,1.1c0.1,0.2,0.2,0.4,0.4,0.5c0.2,0.1,0.6,0.2,1,0.2
		c0.5,0,1.1,0,1.5-0.1l0.1,0.1v1.1C83.8,54.7,83.5,54.7,83.2,54.8z"/>
	<path d="M86.5,45l2.1,5c0.2,0.4,0.3,0.9,0.5,1.4c0.2,0.5,0.3,1.1,0.5,1.6H90l0.2,1.6H89l-4-9.5l0.1-0.1H86.5z M89.2,54l-0.1-1h0.6
		c0.2-0.6,0.3-1.1,0.4-1.6c0.1-0.5,0.3-1,0.5-1.5l1.8-4.9h1.4l0.1,0.1L89,58.8h-1.4l-0.1-0.1L89.2,54z"/>
</g>
</svg>
