<?xml version="1.0" encoding="utf-8"?>
<!-- Generator: Adobe Illustrator 26.0.1, SVG Export Plug-In . SVG Version: 6.00 Build 0)  -->
<svg version="1.1" id="Layer_1" xmlns="http://www.w3.org/2000/svg" xmlns:xlink="http://www.w3.org/1999/xlink" x="0px" y="0px"
	 viewBox="0 0 100 100" style="enable-background:new 0 0 100 100;" xml:space="preserve">
<g>
	<path d="M14.6,43.4c0.4-0.9,1.1-1.6,1.9-2s1.9-0.7,3.1-0.7c0.6,0,1.1,0,1.6,0.1s0.9,0.1,1.2,0.2v1.3l-0.1,0.1
		c-0.9-0.2-1.8-0.3-2.7-0.3c-0.8,0-1.4,0.1-1.9,0.2c-0.5,0.1-0.9,0.4-1.2,0.6c-0.4,0.3-0.7,0.8-0.9,1.5s-0.3,1.4-0.3,2.3v0.6
		c0,0.9,0.1,1.7,0.3,2.4s0.5,1.2,0.8,1.5s0.7,0.5,1.2,0.6s1,0.2,1.6,0.2c0.5,0,1.1,0,1.7-0.1s1.1-0.2,1.5-0.3l0.1,0.1v1.2
		c-0.5,0.1-1,0.3-1.5,0.4c-0.5,0.1-1.2,0.1-1.9,0.1c-1.3,0-2.3-0.2-3.1-0.7c-0.8-0.5-1.4-1.1-1.7-2.1c-0.4-0.9-0.6-2.1-0.6-3.6
		C14,45.5,14.2,44.3,14.6,43.4z"/>
	<path d="M24.7,45.5c0.4-0.8,0.9-1.3,1.5-1.7s1.3-0.5,2.1-0.5c0.8,0,1.5,0.2,2.1,0.5c0.6,0.4,1.1,0.9,1.5,1.7
		c0.4,0.8,0.5,1.7,0.5,2.8c0,1-0.2,1.9-0.5,2.7c-0.3,0.7-0.8,1.3-1.5,1.7s-1.4,0.6-2.2,0.6c-0.8,0-1.6-0.2-2.2-0.6s-1.1-1-1.4-1.7
		s-0.5-1.6-0.5-2.7C24.2,47.2,24.3,46.3,24.7,45.5z M25.8,50.6c0.2,0.5,0.5,0.8,0.9,1s0.9,0.4,1.6,0.4c0.6,0,1.2-0.1,1.6-0.4
		c0.4-0.2,0.7-0.6,0.9-1.1c0.2-0.5,0.3-1,0.3-1.7v-1c0-0.7-0.1-1.3-0.3-1.8c-0.2-0.5-0.5-0.8-0.9-1.1c-0.4-0.2-0.9-0.4-1.6-0.4
		c-0.6,0-1.1,0.1-1.5,0.4c-0.4,0.2-0.7,0.6-0.9,1.1c-0.2,0.5-0.3,1.1-0.3,1.8v1C25.6,49.5,25.7,50.1,25.8,50.6z"/>
	<path d="M35.5,43.5l0.4,1.4v8.2h-1.4v-9.7L35.5,43.5L35.5,43.5z M37,43.7c0.4-0.3,1-0.4,1.6-0.4c0.7,0,1.2,0.1,1.6,0.4
		c0.4,0.3,0.7,0.7,0.8,1.3l0.1,0.1v8h-1.4v-7.2c0-0.5-0.1-0.8-0.4-1c-0.3-0.2-0.7-0.3-1.3-0.3c-0.4,0-0.8,0.1-1.3,0.2
		c-0.4,0.2-0.7,0.4-1,0.6l-0.2-0.6H36C36.2,44.3,36.6,44,37,43.7z M42.2,43.7c0.4-0.3,1-0.4,1.6-0.4c0.8,0,1.5,0.2,1.9,0.7
		c0.5,0.5,0.7,1.2,0.7,2.2v6.9H45v-7.2c0-0.5-0.1-0.8-0.4-1c-0.3-0.2-0.7-0.3-1.2-0.3c-0.4,0-0.8,0.1-1.3,0.2
		c-0.4,0.2-0.7,0.4-1,0.6l-0.2-0.5h0.2C41.4,44.4,41.7,44,42.2,43.7z"/>
	<path d="M49.7,43.5l0.4,1.5v6.3L50,51.9c0,0.3,0.1,0.6,0.1,0.9c0,0.3,0.1,0.7,0.1,1v3.4h-1.4V43.5H49.7z M51.2,52.9
		c-0.4-0.2-0.8-0.6-1-1c0,0,0,0-0.1-0.1H50l-0.4-0.5l0.5-0.9v0.7c0.2,0.2,0.6,0.4,1,0.6c0.4,0.2,0.9,0.2,1.5,0.2s1.1-0.1,1.5-0.4
		c0.4-0.2,0.7-0.6,0.8-1.1c0.2-0.5,0.3-1.1,0.3-1.9v-1c0-0.8-0.1-1.4-0.3-1.8c-0.2-0.4-0.4-0.7-0.8-0.9c-0.4-0.2-0.9-0.3-1.5-0.3
		c-0.5,0-1,0.1-1.5,0.2c-0.5,0.2-0.9,0.4-1.2,0.6l-0.2-0.6H50c0.3-0.5,0.7-0.9,1.1-1.2c0.5-0.3,1.1-0.4,1.8-0.4s1.3,0.2,1.8,0.5
		s1,0.9,1.3,1.6c0.3,0.7,0.5,1.6,0.5,2.8c0,1.1-0.2,2.1-0.5,2.9c-0.3,0.8-0.7,1.4-1.3,1.7s-1.3,0.6-2,0.6
		C52.2,53.3,51.6,53.2,51.2,52.9z"/>
	<path d="M59.3,48.3c0.5-0.5,1.4-0.8,2.6-0.8c0.6,0,1.1,0,1.6,0.1s0.9,0.1,1.2,0.2h0.2v0.9c-0.7,0-1.2,0-1.6-0.1c-0.4,0-1,0-1.7,0
		c-0.6,0-1,0.1-1.3,0.4c-0.2,0.2-0.4,0.6-0.4,1v0.5c0,0.5,0.1,0.9,0.4,1.1c0.3,0.2,0.7,0.4,1.4,0.4h0.2c0.6,0,1.1-0.1,1.6-0.3
		s0.9-0.4,1.2-0.7l0.3,0.7h-0.3c-0.2,0.5-0.6,0.9-1.1,1.2s-1.2,0.4-2,0.4c-1,0-1.7-0.3-2.3-0.8c-0.5-0.5-0.8-1.2-0.8-2.1
		C58.5,49.5,58.8,48.8,59.3,48.3z M60.2,43.4c0.5-0.1,0.9-0.1,1.5-0.1c1.1,0,2,0.1,2.6,0.4c0.7,0.3,1.1,0.7,1.4,1.3s0.4,1.4,0.4,2.3
		v5.8h-1l-0.4-1.4v-4.9c0-0.6-0.1-1-0.3-1.3c-0.2-0.3-0.5-0.5-1-0.7c-0.4-0.1-1-0.2-1.7-0.2c-0.5,0-1,0-1.5,0.1s-0.9,0.2-1.2,0.2v0
		v-1.2C59.3,43.5,59.7,43.5,60.2,43.4z"/>
	<path d="M69.5,43.5l0.4,1.4v8.2h-1.4v-9.7L69.5,43.5L69.5,43.5z M71.1,43.7c0.5-0.3,1.1-0.4,1.7-0.4c0.9,0,1.6,0.2,2.2,0.7
		c0.5,0.5,0.8,1.3,0.8,2.4v6.7h-1.4v-7c0-0.3-0.1-0.6-0.2-0.8s-0.3-0.4-0.6-0.5c-0.3-0.1-0.7-0.2-1.2-0.2s-1,0.1-1.4,0.2
		c-0.5,0.2-0.9,0.4-1.2,0.6l-0.2-0.6H70C70.2,44.4,70.6,44,71.1,43.7z"/>
	<path d="M78.7,43.5l2.1,5c0.2,0.4,0.3,0.9,0.5,1.4s0.3,1.1,0.5,1.6h0.4l0.2,1.6h-1.2l-4-9.5l0.1-0.1H78.7z M81.5,52.5l-0.1-1H82
		c0.2-0.6,0.3-1.1,0.4-1.6s0.3-1,0.5-1.5l1.8-4.9H86l0.1,0.1l-4.8,13.6h-1.4l-0.1-0.1L81.5,52.5z"/>
</g>
</svg>
