<?xml version="1.0" encoding="utf-8"?>
<!-- Generator: Adobe Illustrator 26.0.1, SVG Export Plug-In . SVG Version: 6.00 Build 0)  -->
<svg version="1.1" id="Layer_1" xmlns="http://www.w3.org/2000/svg" xmlns:xlink="http://www.w3.org/1999/xlink" x="0px" y="0px"
	 viewBox="0 0 200 100" style="enable-background:new 0 0 200 100;" xml:space="preserve">
<g>
	<path d="M4.3,41.6H8c1.4,0,2.5,0.2,3.4,0.6c0.8,0.4,1.4,1.1,1.7,2s0.5,2,0.5,3.4s-0.1,2.6-0.4,3.5c-0.3,0.9-0.8,1.5-1.6,2
		s-1.9,0.7-3.4,0.7H4.3V41.6z M10,52.3c0.5-0.1,0.9-0.3,1.2-0.6c0.4-0.3,0.6-0.8,0.8-1.4c0.2-0.6,0.3-1.4,0.3-2.3v-0.8
		c0-0.8-0.1-1.5-0.2-2c-0.1-0.5-0.3-1-0.7-1.3c-0.3-0.3-0.7-0.6-1.3-0.7C9.6,43,8.9,43,8.1,43H5.8v9.6h2.5
		C8.9,52.5,9.5,52.4,10,52.3z"/>
	<path d="M15.8,46.2c0.3-0.7,0.8-1.3,1.4-1.7s1.3-0.5,2.2-0.5c0.7,0,1.3,0.1,1.9,0.4c0.5,0.3,0.9,0.6,1.2,1.2
		c0.3,0.5,0.4,1.1,0.4,1.9V49h-6.4v-1h5v-0.9c0-0.4-0.1-0.8-0.2-1.1s-0.4-0.5-0.7-0.6c-0.3-0.1-0.7-0.2-1.3-0.2h-0.2
		c-0.6,0-1.1,0.1-1.4,0.3c-0.4,0.2-0.6,0.5-0.8,1c-0.2,0.4-0.3,1-0.3,1.8V50c0,0.6,0.1,1.1,0.3,1.5c0.2,0.4,0.5,0.7,0.9,0.9
		s1.1,0.3,1.9,0.3c0.5,0,1,0,1.5-0.1s0.9-0.2,1.2-0.3l0.1,0.1v1.2c-0.3,0.1-0.7,0.3-1.2,0.4c-0.5,0.1-1,0.1-1.6,0.1
		c-1.1,0-2-0.2-2.7-0.6c-0.6-0.4-1.1-0.9-1.4-1.7c-0.3-0.7-0.4-1.6-0.4-2.7C15.4,47.9,15.5,46.9,15.8,46.2z"/>
	<path d="M25.6,44.1l1.9,5.6c0.1,0.5,0.3,1,0.4,1.5s0.3,1,0.4,1.6h0.1c0.1-0.5,0.3-1.1,0.4-1.6s0.3-1,0.4-1.5l1.9-5.6h1.4l0.1,0.1
		l-3.3,9.5h-1.9l-3.3-9.5l0.1-0.1H25.6z"/>
	<path d="M34.1,46.2c0.3-0.7,0.8-1.3,1.4-1.7c0.6-0.4,1.3-0.5,2.2-0.5c0.7,0,1.3,0.1,1.9,0.4c0.5,0.3,0.9,0.6,1.2,1.2
		c0.3,0.5,0.4,1.1,0.4,1.9V49h-6.4v-1h5v-0.9c0-0.4-0.1-0.8-0.2-1.1c-0.1-0.3-0.4-0.5-0.7-0.6s-0.7-0.2-1.3-0.2h-0.2
		c-0.6,0-1.1,0.1-1.4,0.3c-0.4,0.2-0.6,0.5-0.8,1c-0.2,0.4-0.3,1-0.3,1.8V50c0,0.6,0.1,1.1,0.3,1.5s0.5,0.7,0.9,0.9s1.1,0.3,1.9,0.3
		c0.5,0,1,0,1.5-0.1s0.9-0.2,1.2-0.3l0.1,0.1v1.2c-0.3,0.1-0.7,0.3-1.2,0.4c-0.5,0.1-1,0.1-1.6,0.1c-1.1,0-2-0.2-2.7-0.6
		c-0.6-0.4-1.1-0.9-1.4-1.7c-0.3-0.7-0.4-1.6-0.4-2.7C33.6,47.9,33.8,46.9,34.1,46.2z"/>
	<path d="M44.6,40.2v13.6h-1.4V40.2H44.6z"/>
	<path d="M47.2,46.2c0.4-0.8,0.9-1.3,1.5-1.7S50,44,50.8,44s1.5,0.2,2.1,0.5s1.1,0.9,1.5,1.7S55,47.9,55,49c0,1-0.2,1.9-0.5,2.7
		c-0.3,0.7-0.8,1.3-1.5,1.7S51.6,54,50.8,54s-1.6-0.2-2.2-0.6s-1.1-1-1.4-1.7c-0.3-0.7-0.5-1.6-0.5-2.7C46.7,47.9,46.8,47,47.2,46.2
		z M48.3,51.3c0.2,0.5,0.5,0.8,0.9,1s0.9,0.4,1.6,0.4c0.6,0,1.2-0.1,1.6-0.4c0.4-0.2,0.7-0.6,0.9-1.1s0.3-1,0.3-1.7v-1
		c0-0.7-0.1-1.3-0.3-1.8s-0.5-0.8-0.9-1.1c-0.4-0.2-0.9-0.4-1.6-0.4c-0.6,0-1.1,0.1-1.5,0.4c-0.4,0.2-0.7,0.6-0.9,1.1
		s-0.3,1.1-0.3,1.8v1C48,50.2,48.1,50.8,48.3,51.3z"/>
	<path d="M58,44.1l0.4,1.5v6.3l-0.1,0.6c0,0.3,0.1,0.6,0.1,0.9c0,0.3,0.1,0.7,0.1,1v3.4H57V44.1H58z M59.4,53.6
		c-0.4-0.2-0.8-0.6-1-1c0,0,0,0-0.1-0.1h-0.1L57.8,52l0.5-0.9v0.7c0.2,0.2,0.6,0.4,1,0.6c0.4,0.2,0.9,0.2,1.5,0.2s1.1-0.1,1.5-0.4
		c0.4-0.2,0.7-0.6,0.8-1.1c0.2-0.5,0.3-1.1,0.3-1.9v-1c0-0.8-0.1-1.4-0.3-1.8c-0.2-0.4-0.4-0.7-0.8-0.9c-0.4-0.2-0.9-0.3-1.5-0.3
		c-0.5,0-1,0.1-1.5,0.2c-0.5,0.2-0.9,0.4-1.2,0.6l-0.2-0.6h0.3c0.3-0.5,0.7-0.9,1.1-1.2c0.5-0.3,1.1-0.4,1.8-0.4s1.3,0.2,1.8,0.5
		s1,0.9,1.3,1.6c0.3,0.7,0.5,1.6,0.5,2.8c0,1.1-0.2,2.1-0.5,2.9c-0.3,0.8-0.7,1.4-1.3,1.7c-0.6,0.4-1.3,0.6-2,0.6
		C60.4,54,59.8,53.8,59.4,53.6z"/>
	<path d="M67,40.7c0-0.1,0.1-0.2,0.2-0.3c0.1,0,0.3-0.1,0.5-0.1s0.4,0,0.5,0.1c0.1,0,0.2,0.1,0.2,0.3c0,0.1,0.1,0.4,0.1,0.6
		s0,0.5-0.1,0.6c0,0.1-0.1,0.2-0.2,0.3s-0.3,0.1-0.5,0.1s-0.4,0-0.5-0.1c-0.1,0-0.2-0.1-0.2-0.2s-0.1-0.4-0.1-0.6
		C66.9,41,66.9,40.8,67,40.7z M68.4,44.1v9.7H67v-9.7H68.4z"/>
	<path d="M71.9,44.1l0.4,1.4v8.2h-1.4V44L71.9,44.1L71.9,44.1z M73.5,44.4c0.5-0.3,1.1-0.4,1.7-0.4c0.9,0,1.6,0.2,2.2,0.7
		c0.5,0.5,0.8,1.3,0.8,2.4v6.7h-1.4v-7c0-0.3-0.1-0.6-0.2-0.8s-0.3-0.4-0.6-0.5c-0.3-0.1-0.7-0.2-1.2-0.2s-1,0.1-1.4,0.2
		c-0.5,0.2-0.9,0.4-1.2,0.6L72,45.5h0.3C72.6,45,73,44.6,73.5,44.4z"/>
	<path d="M81.1,57.4c-0.6-0.5-1-1.1-1-2c0-0.6,0.1-1,0.3-1.3c0.2-0.3,0.5-0.5,0.9-0.6v-0.3l0.8,0.4c-0.2,0.1-0.4,0.3-0.5,0.5
		s-0.2,0.6-0.2,0.9v0.2c0,0.4,0.1,0.7,0.2,1c0.1,0.2,0.4,0.4,0.7,0.5s0.8,0.2,1.5,0.2h0.5c0.7,0,1.2-0.1,1.5-0.2
		c0.4-0.1,0.6-0.3,0.8-0.5c0.1-0.2,0.2-0.5,0.2-0.9V55c0-0.4-0.1-0.7-0.3-0.9c-0.2-0.2-0.5-0.3-1-0.3h-2.7c-1,0-1.7-0.2-2.1-0.5
		c-0.4-0.4-0.6-0.9-0.6-1.6c0-0.4,0.1-0.7,0.3-1c0.2-0.3,0.4-0.5,0.7-0.6l0.1-0.2l0.6,0.4c-0.1,0.1-0.3,0.2-0.3,0.4
		c-0.1,0.2-0.1,0.4-0.1,0.5v0.2c0,0.3,0.1,0.6,0.3,0.8c0.2,0.2,0.5,0.3,0.9,0.3h2.8c0.9,0,1.6,0.2,2,0.6c0.5,0.4,0.7,1,0.7,1.8
		c0,0.7-0.2,1.3-0.5,1.8s-0.8,0.8-1.4,1S84.8,58,83.9,58C82.8,58.1,81.8,57.8,81.1,57.4z M82.1,50.4c-0.5-0.3-0.9-0.7-1.2-1.2
		c-0.3-0.5-0.4-1.1-0.4-1.8s0.1-1.4,0.4-1.9s0.7-0.9,1.2-1.2s1.1-0.4,1.8-0.4c0.7,0,1.3,0.1,1.8,0.4c0.5,0.3,0.9,0.7,1.2,1.2
		c0.3,0.5,0.4,1.1,0.4,1.9c0,0.7-0.1,1.3-0.4,1.8s-0.7,0.9-1.2,1.2s-1.1,0.4-1.8,0.4C83.2,50.8,82.6,50.7,82.1,50.4z M85.1,49.4
		c0.3-0.1,0.5-0.3,0.6-0.6s0.2-0.6,0.2-1V47c0-0.4-0.1-0.7-0.2-1s-0.3-0.5-0.6-0.6c-0.3-0.1-0.7-0.2-1.2-0.2s-0.9,0.1-1.2,0.2
		s-0.5,0.3-0.6,0.6s-0.2,0.6-0.2,1v0.9c0,0.4,0.1,0.7,0.2,1s0.3,0.4,0.6,0.6c0.3,0.1,0.7,0.2,1.2,0.2C84.4,49.6,84.8,49.5,85.1,49.4
		z M84.6,44.1h3.9v1.1l-2,0.1L84.6,44.1z"/>
	<path d="M103,41.6v1.3h-9.6v-1.3H103z M98.8,42.1v11.7h-1.4V42.1H98.8z"/>
	<path d="M103.8,46.2c0.3-0.7,0.8-1.3,1.4-1.7s1.3-0.5,2.2-0.5c0.7,0,1.3,0.1,1.9,0.4c0.5,0.3,0.9,0.6,1.2,1.2
		c0.3,0.5,0.4,1.1,0.4,1.9V49h-6.4v-1h5v-0.9c0-0.4-0.1-0.8-0.2-1.1s-0.4-0.5-0.7-0.6c-0.3-0.1-0.7-0.2-1.3-0.2h-0.2
		c-0.6,0-1.1,0.1-1.4,0.3c-0.4,0.2-0.6,0.5-0.8,1c-0.2,0.4-0.3,1-0.3,1.8V50c0,0.6,0.1,1.1,0.3,1.5c0.2,0.4,0.5,0.7,0.9,0.9
		s1.1,0.3,1.9,0.3c0.5,0,1,0,1.5-0.1s0.9-0.2,1.2-0.3l0.1,0.1v1.2c-0.3,0.1-0.7,0.3-1.2,0.4c-0.5,0.1-1,0.1-1.6,0.1
		c-1.1,0-2-0.2-2.7-0.6c-0.6-0.4-1.1-0.9-1.4-1.7c-0.3-0.7-0.4-1.6-0.4-2.7C103.4,47.9,103.5,46.9,103.8,46.2z"/>
	<path d="M113.1,46.1c0.4-0.7,0.9-1.3,1.6-1.6c0.7-0.4,1.5-0.5,2.5-0.5c0.4,0,0.8,0,1.2,0.1c0.4,0.1,0.7,0.1,0.9,0.2v1.2l-0.1,0.1
		c-0.7-0.2-1.5-0.3-2.2-0.3s-1.3,0.1-1.7,0.3c-0.4,0.2-0.8,0.6-1,1c-0.2,0.5-0.3,1.1-0.3,1.9v0.8c0,0.8,0.1,1.5,0.3,2
		c0.2,0.5,0.5,0.8,0.9,1s1,0.3,1.7,0.3c0.5,0,0.9,0,1.4-0.1s0.9-0.2,1.2-0.3l0.1,0.1v1.2c-0.3,0.1-0.7,0.2-1.1,0.3s-1,0.1-1.5,0.1
		c-1,0-1.8-0.2-2.5-0.6c-0.6-0.4-1.1-0.9-1.4-1.7c-0.3-0.7-0.4-1.7-0.4-2.8C112.6,47.8,112.7,46.9,113.1,46.1z"/>
	<path d="M123,39.8v14h-1.4v-14H123z M124.3,44.2c0.5-0.3,1.1-0.4,1.8-0.4c0.9,0,1.7,0.3,2.2,0.8s0.8,1.3,0.8,2.4v6.8h-1.4v-7.2
		c0-0.3-0.1-0.6-0.2-0.8s-0.3-0.4-0.6-0.5c-0.3-0.1-0.7-0.2-1.2-0.2s-1,0.1-1.5,0.2c-0.5,0.2-0.9,0.4-1.2,0.7l-0.2-0.6h0.3
		C123.3,44.8,123.7,44.4,124.3,44.2z"/>
	<path d="M132.5,43.9l0.4,1.5v8.4h-1.4v-9.9H132.5z M134.2,44.2c0.5-0.3,1.1-0.4,1.8-0.4c0.9,0,1.7,0.3,2.2,0.8
		c0.6,0.5,0.8,1.3,0.8,2.5v6.8h-1.4v-7.2c0-0.3-0.1-0.6-0.2-0.8c-0.1-0.2-0.3-0.4-0.6-0.5s-0.7-0.2-1.2-0.2s-1,0.1-1.5,0.2
		c-0.5,0.2-0.9,0.4-1.2,0.7l-0.2-0.6h0.3C133.3,44.8,133.7,44.4,134.2,44.2z"/>
	<path d="M141.6,46c0.4-0.8,0.9-1.4,1.5-1.7c0.6-0.4,1.4-0.6,2.1-0.6c0.8,0,1.5,0.2,2.2,0.6c0.6,0.4,1.2,0.9,1.5,1.7
		c0.4,0.8,0.6,1.7,0.6,2.9c0,1.1-0.2,2-0.5,2.7c-0.4,0.8-0.9,1.3-1.5,1.7s-1.4,0.6-2.2,0.6s-1.6-0.2-2.2-0.6c-0.6-0.4-1.1-1-1.5-1.7
		S141,50,141,48.9C141,47.8,141.2,46.8,141.6,46z M142.7,51.2c0.2,0.5,0.5,0.8,0.9,1.1c0.4,0.2,0.9,0.4,1.6,0.4
		c0.7,0,1.2-0.1,1.6-0.4c0.4-0.2,0.7-0.6,0.9-1.1s0.3-1.1,0.3-1.8v-1c0-0.7-0.1-1.3-0.3-1.8s-0.5-0.8-0.9-1.1
		c-0.4-0.2-0.9-0.4-1.6-0.4c-0.6,0-1.2,0.1-1.6,0.4c-0.4,0.2-0.7,0.6-0.9,1.1s-0.3,1.1-0.3,1.8v1C142.4,50.1,142.5,50.7,142.7,51.2z
		"/>
	<path d="M153,39.8v14h-1.4v-14H153z"/>
	<path d="M155.7,46c0.4-0.8,0.9-1.4,1.5-1.7c0.6-0.4,1.4-0.6,2.1-0.6c0.8,0,1.5,0.2,2.2,0.6c0.6,0.4,1.2,0.9,1.5,1.7
		c0.4,0.8,0.6,1.7,0.6,2.9c0,1.1-0.2,2-0.5,2.7c-0.4,0.8-0.9,1.3-1.5,1.7s-1.4,0.6-2.2,0.6s-1.6-0.2-2.2-0.6c-0.6-0.4-1.1-1-1.5-1.7
		c-0.3-0.8-0.5-1.7-0.5-2.7C155.1,47.8,155.3,46.8,155.7,46z M156.8,51.2c0.2,0.5,0.5,0.8,0.9,1.1c0.4,0.2,0.9,0.4,1.6,0.4
		c0.7,0,1.2-0.1,1.6-0.4c0.4-0.2,0.7-0.6,0.9-1.1s0.3-1.1,0.3-1.8v-1c0-0.7-0.1-1.3-0.3-1.8s-0.5-0.8-0.9-1.1
		c-0.4-0.2-0.9-0.4-1.6-0.4c-0.6,0-1.2,0.1-1.6,0.4c-0.4,0.2-0.7,0.6-0.9,1.1s-0.3,1.1-0.3,1.8v1C156.5,50.1,156.6,50.7,156.8,51.2z
		"/>
	<path d="M166.2,57.4c-0.6-0.5-1-1.2-1-2.1c0-0.6,0.1-1.1,0.3-1.4c0.2-0.3,0.5-0.5,0.9-0.6V53l0.8,0.4c-0.2,0.1-0.4,0.3-0.5,0.6
		s-0.2,0.6-0.2,0.9v0.2c0,0.4,0.1,0.8,0.2,1c0.1,0.2,0.4,0.4,0.7,0.5s0.9,0.2,1.6,0.2h0.5c0.7,0,1.2-0.1,1.6-0.2
		c0.4-0.1,0.6-0.3,0.8-0.5c0.1-0.2,0.2-0.5,0.2-1v-0.3c0-0.4-0.1-0.7-0.3-0.9s-0.5-0.3-1-0.3H168c-1,0-1.7-0.2-2.1-0.6
		c-0.4-0.4-0.6-0.9-0.6-1.6c0-0.4,0.1-0.7,0.3-1s0.4-0.5,0.7-0.6l0.1-0.2L167,50c-0.1,0.1-0.3,0.3-0.3,0.4c-0.1,0.2-0.1,0.4-0.1,0.6
		v0.2c0,0.3,0.1,0.6,0.3,0.8s0.5,0.3,1,0.3h2.9c0.9,0,1.6,0.2,2.1,0.6c0.5,0.4,0.7,1,0.7,1.8c0,0.7-0.2,1.3-0.5,1.8
		s-0.8,0.8-1.4,1.1c-0.6,0.2-1.4,0.3-2.4,0.3C168,58.2,166.9,57.9,166.2,57.4z M167.2,50.3c-0.5-0.3-0.9-0.7-1.2-1.2
		s-0.4-1.1-0.4-1.8c0-0.8,0.1-1.4,0.4-1.9c0.3-0.5,0.7-0.9,1.2-1.2s1.1-0.4,1.8-0.4s1.3,0.1,1.8,0.4c0.5,0.3,0.9,0.7,1.2,1.2
		s0.4,1.2,0.4,1.9s-0.1,1.3-0.4,1.9c-0.3,0.5-0.7,0.9-1.2,1.2s-1.2,0.4-1.9,0.4C168.3,50.7,167.7,50.6,167.2,50.3z M170.3,49.3
		c0.3-0.1,0.5-0.3,0.6-0.6s0.2-0.6,0.2-1v-0.9c0-0.4-0.1-0.8-0.2-1c-0.1-0.3-0.3-0.5-0.6-0.6s-0.7-0.2-1.2-0.2s-0.9,0.1-1.2,0.2
		c-0.3,0.1-0.5,0.3-0.6,0.6s-0.2,0.6-0.2,1v0.9c0,0.4,0.1,0.7,0.2,1c0.1,0.3,0.3,0.5,0.7,0.6c0.3,0.1,0.7,0.2,1.2,0.2
		C169.6,49.5,170,49.4,170.3,49.3z M169.8,43.9h4V45l-2,0.1L169.8,43.9z"/>
	<path d="M175.5,40.4c0-0.1,0.1-0.2,0.2-0.3c0.1,0,0.3-0.1,0.5-0.1s0.4,0,0.5,0.1c0.1,0,0.2,0.1,0.2,0.3c0,0.1,0.1,0.4,0.1,0.7
		s0,0.5-0.1,0.6c0,0.1-0.1,0.2-0.2,0.3c-0.1,0.1-0.3,0.1-0.5,0.1s-0.4,0-0.5-0.1s-0.2-0.2-0.2-0.3s-0.1-0.4-0.1-0.6
		C175.5,40.7,175.5,40.5,175.5,40.4z M177,43.9v9.9h-1.4v-9.9H177z"/>
	<path d="M179.6,46c0.3-0.8,0.8-1.3,1.4-1.7c0.6-0.4,1.4-0.6,2.2-0.6c0.7,0,1.4,0.1,1.9,0.4c0.5,0.3,1,0.7,1.3,1.2s0.4,1.2,0.4,1.9
		v1.7h-6.6v-1.1h5.1V47c0-0.4-0.1-0.8-0.2-1.1c-0.1-0.3-0.4-0.5-0.7-0.6s-0.7-0.2-1.3-0.2H183c-0.6,0-1.1,0.1-1.4,0.3
		c-0.4,0.2-0.6,0.5-0.8,1c-0.2,0.4-0.3,1.1-0.3,1.9V50c0,0.6,0.1,1.2,0.3,1.5c0.2,0.4,0.5,0.7,1,0.9s1.1,0.3,1.9,0.3
		c0.5,0,1,0,1.5-0.1s0.9-0.2,1.2-0.3l0.1,0.1v1.2c-0.3,0.1-0.7,0.3-1.2,0.4c-0.5,0.1-1,0.1-1.7,0.1c-1.2,0-2.1-0.2-2.7-0.6
		c-0.7-0.4-1.1-1-1.4-1.7c-0.3-0.7-0.4-1.7-0.4-2.8C179.1,47.7,179.2,46.8,179.6,46z"/>
	<path d="M189,45.2c0.3-0.4,0.7-0.8,1.3-1c0.6-0.3,1.4-0.4,2.4-0.4c0.5,0,0.9,0,1.3,0.1c0.4,0,0.7,0.1,1.1,0.1v1.3l-0.1,0.1
		c-0.4-0.1-0.7-0.1-1.1-0.2c-0.4,0-0.8-0.1-1.2-0.1c-0.7,0-1.2,0-1.5,0.1c-0.4,0.1-0.6,0.2-0.8,0.4s-0.2,0.5-0.2,0.8v0.2
		c0,0.3,0.1,0.5,0.2,0.7c0.1,0.2,0.3,0.3,0.7,0.4c0.4,0.1,0.9,0.2,1.7,0.4c0.7,0.1,1.3,0.3,1.8,0.5c0.4,0.2,0.8,0.5,0.9,0.9
		s0.3,0.8,0.3,1.3c0,0.6-0.1,1.2-0.4,1.6c-0.3,0.5-0.7,0.8-1.3,1.1s-1.3,0.4-2.2,0.4c-0.6,0-1.1,0-1.6-0.1c-0.5,0-0.9-0.1-1.2-0.2
		v-1.3l0.1-0.1c1,0.2,1.9,0.3,2.7,0.3c0.7,0,1.2-0.1,1.5-0.2c0.4-0.1,0.6-0.3,0.7-0.5c0.1-0.2,0.2-0.6,0.2-1v-0.2
		c0-0.3-0.1-0.5-0.2-0.7c-0.1-0.2-0.4-0.3-0.7-0.5s-0.9-0.3-1.7-0.4c-0.8-0.1-1.4-0.3-1.8-0.6c-0.4-0.2-0.7-0.5-0.9-0.9
		c-0.2-0.3-0.3-0.7-0.3-1.2C188.7,46.1,188.8,45.6,189,45.2z"/>
</g>
</svg>
