<?xml version="1.0" encoding="utf-8"?>
<!-- Generator: Adobe Illustrator 25.4.8, SVG Export Plug-In . SVG Version: 6.00 Build 0)  -->
<svg version="1.1" id="Layer_1" xmlns="http://www.w3.org/2000/svg" xmlns:xlink="http://www.w3.org/1999/xlink" x="0px" y="0px"
	 viewBox="0 0 200 100" style="enable-background:new 0 0 200 100;" xml:space="preserve">
<style type="text/css">
	.st0{fill:none;stroke:#808080;stroke-width:4.0021;stroke-miterlimit:10;}
	.st1{fill:#92B4F3;}
	.st2{fill:#92B4F3;stroke:#92B4F3;stroke-width:8.6079;stroke-miterlimit:10;}
	.st3{fill:#4185F4;}
	.st4{fill:#FABB02;}
	.st5{fill:#35A752;}
	.st6{fill:#EA4033;}
	.st7{fill:#5186ED;}
	.st8{fill:#58A55D;}
	.st9{fill:#F2BD42;}
	.st10{fill:#D95040;}
	.st11{fill:none;stroke:#B3B3B3;stroke-width:6.3578;stroke-miterlimit:10;}
	.st12{fill:#1F2020;}
	.st13{fill:#3C3C3C;}
	.st14{fill:#282828;}
	.st15{fill:#ED6055;}
	.st16{fill:#65CC58;}
	.st17{fill:#F6BE4F;}
	.st18{fill:none;stroke:#FFFFFF;stroke-width:2.5007;stroke-miterlimit:10;}
	.st19{fill:#FFFFFF;stroke:#FFFFFF;stroke-width:0.6731;stroke-miterlimit:10;}
	.st20{fill:none;stroke:#FFFFFF;stroke-width:1.8166;stroke-miterlimit:10;}
	.st21{fill:none;stroke:#FFFFFF;stroke-width:2.126;stroke-miterlimit:10;}
	.st22{fill:#FFFFFF;stroke:#FFFFFF;stroke-width:2.126;stroke-miterlimit:10;}
	.st23{fill:none;stroke:#CCCCCC;stroke-width:2.0017;stroke-miterlimit:10;}
	.st24{fill:#FFFFFF;stroke:#FFFFFF;stroke-width:1.5157;stroke-miterlimit:10;}
	.st25{fill:#FFFFFF;stroke:#FFFFFF;stroke-width:1.3197;stroke-miterlimit:10;}
	.st26{fill:#478E99;}
	.st27{fill:none;stroke:#FFFFFF;stroke-width:0.5357;stroke-miterlimit:10;}
	.st28{fill:#FFFFFF;}
	.st29{fill:#9F50B6;}
	.st30{fill:url(#SVGID_1_);}
	.st31{fill:#FFFFFF;stroke:#FFFFFF;stroke-miterlimit:10;}
	.st32{fill:none;stroke:#000000;stroke-width:4.0769;stroke-linecap:round;stroke-linejoin:round;stroke-miterlimit:10;}
	.st33{fill:none;stroke:#000000;stroke-width:4.0769;stroke-miterlimit:10;}
</style>
<g>
	<g>
		<path class="st32" d="M18.9,37.1L18.9,37.1c-0.3-14.5,17.5-14.4,17.8,0l0,0"/>
		<path class="st33" d="M13.2,37.9h29.1c2.4,0,4.4,2,4.4,4.4v21.9c0,2.4-2,4.4-4.4,4.4H13.2c-2.4,0-4.4-2-4.4-4.4V42.3
			C8.8,39.8,10.8,37.9,13.2,37.9z"/>
		<line class="st32" x1="27.8" y1="48.2" x2="27.8" y2="58.2"/>
	</g>
	<g>
		<path d="M85.4,35.6h4.1v28.2h-4.1V35.6z M85.4,59.9h17.6v3.9H85.4V59.9z"/>
		<path d="M107.7,46.3c0.9-1.8,2.1-3.1,3.6-3.9c1.5-0.9,3.1-1.3,4.9-1.3c1.8,0,3.4,0.4,4.9,1.3c1.5,0.9,2.7,2.2,3.6,3.9
			c0.9,1.8,1.3,3.9,1.3,6.5c0,2.4-0.4,4.4-1.2,6.1c-0.8,1.7-2,3.1-3.4,4c-1.5,0.9-3.2,1.4-5.1,1.4c-1.9,0-3.6-0.5-5.1-1.4
			c-1.5-0.9-2.6-2.2-3.4-4c-0.8-1.7-1.2-3.8-1.2-6.1C106.4,50.2,106.8,48,107.7,46.3z M111.1,57.7c0.4,0.9,1,1.6,1.8,2
			s1.9,0.7,3.3,0.7s2.5-0.2,3.3-0.7c0.8-0.4,1.4-1.1,1.8-2c0.4-0.9,0.5-2.1,0.5-3.5v-2.9c0-1.4-0.2-2.6-0.6-3.5
			c-0.4-0.9-1-1.6-1.8-2.1s-1.9-0.7-3.3-0.7c-1.4,0-2.5,0.2-3.3,0.7s-1.4,1.1-1.8,2.1c-0.4,0.9-0.6,2.1-0.6,3.5v2.9
			C110.5,55.6,110.7,56.8,111.1,57.7z"/>
		<path d="M132.5,72c-1.5-1.1-2.2-2.7-2.2-4.8c0-1.2,0.2-2.2,0.7-2.9c0.5-0.7,1.2-1.1,2.1-1.2l0-0.8l1.9,0.9
			c-0.2,0.4-0.4,0.8-0.5,1.4c-0.1,0.5-0.1,1.1-0.1,1.7v0.4c0,0.9,0.1,1.5,0.3,2c0.2,0.4,0.7,0.8,1.3,0.9c0.7,0.2,1.7,0.3,3.1,0.3
			h1.5c1.4,0,2.5-0.1,3.2-0.3c0.7-0.2,1.2-0.5,1.5-0.9c0.2-0.4,0.4-1,0.4-1.9v-0.9c0-0.8-0.1-1.3-0.4-1.7c-0.3-0.3-0.8-0.5-1.7-0.5
			h-6.1c-2.4,0-4.1-0.4-5.1-1.3c-1-0.9-1.5-2.1-1.5-3.8c0-0.9,0.2-1.7,0.6-2.3c0.4-0.6,1-1,1.7-1.2l0.2-0.4l1.7,1.2
			c-0.2,0.3-0.4,0.5-0.5,0.9c-0.1,0.3-0.1,0.7-0.1,1v0.4c0,0.7,0.2,1.2,0.5,1.6c0.3,0.4,0.9,0.5,1.8,0.5h6.5c2.1,0,3.7,0.5,4.9,1.5
			c1.2,1,1.8,2.4,1.8,4.3c0,1.7-0.4,3.1-1.1,4.2c-0.7,1.1-1.8,2-3.2,2.6c-1.4,0.6-3.2,0.8-5.4,0.8C136.5,73.7,134,73.1,132.5,72z
			 M134.7,56c-1.2-0.6-2.1-1.5-2.8-2.7c-0.6-1.2-0.9-2.5-0.9-4.1c0-1.7,0.3-3.2,1.1-4.4c0.7-1.2,1.7-2.1,2.9-2.8
			c1.2-0.6,2.6-0.9,4.2-0.9c1.5,0,2.9,0.3,4.1,0.9c1.2,0.6,2.2,1.6,2.9,2.8c0.7,1.2,1.1,2.7,1.1,4.4c0,1.6-0.3,3-1,4.2
			c-0.6,1.2-1.6,2-2.8,2.7c-1.2,0.6-2.6,0.9-4.3,0.9C137.4,56.9,135.9,56.6,134.7,56z M141.5,53.1c0.6-0.2,1-0.5,1.2-1
			c0.2-0.4,0.3-1,0.3-1.7v-2.6c0-0.8-0.1-1.4-0.3-1.9c-0.2-0.4-0.6-0.8-1.2-1c-0.6-0.2-1.4-0.3-2.4-0.3c-1.1,0-1.9,0.1-2.5,0.3
			c-0.6,0.2-1,0.6-1.2,1S135,47,135,47.8v2.6c0,0.7,0.1,1.3,0.3,1.7c0.2,0.4,0.6,0.8,1.2,1c0.6,0.2,1.4,0.3,2.5,0.3
			C140.1,53.4,140.9,53.3,141.5,53.1z M140.7,41.5h9.2v3L146,45L140.7,41.5z"/>
		<path d="M163.3,33.4c0.1-0.4,0.3-0.6,0.6-0.7c0.3-0.1,0.8-0.2,1.5-0.2c0.7,0,1.2,0.1,1.5,0.2c0.3,0.1,0.5,0.4,0.6,0.7
			c0.1,0.4,0.2,0.9,0.2,1.6s-0.1,1.2-0.2,1.6c-0.1,0.3-0.3,0.6-0.6,0.7c-0.3,0.1-0.8,0.2-1.5,0.2c-0.7,0-1.2-0.1-1.5-0.2
			c-0.3-0.1-0.5-0.4-0.6-0.7c-0.1-0.3-0.2-0.9-0.2-1.6S163.2,33.8,163.3,33.4z M167.5,41.5v22.3h-4.1V41.5H167.5z"/>
		<path d="M176.5,41.5l1.3,3.4v18.9h-4.1V41.5H176.5z M180.3,42c1-0.6,2.2-0.9,3.8-0.9c2.2,0,3.9,0.6,5.2,1.9c1.3,1.3,1.9,3.3,1.9,6
			v14.8h-4.1V47.7c0-0.7-0.1-1.2-0.3-1.5c-0.2-0.4-0.7-0.7-1.3-0.9c-0.6-0.2-1.5-0.3-2.7-0.3c-1,0-1.9,0.1-3,0.4
			c-1,0.3-1.8,0.6-2.3,1l-0.5-1.6h0.8C178.6,43.5,179.4,42.6,180.3,42z"/>
	</g>
</g>
</svg>
