<svg id="Layer_1" data-name="Layer 1" xmlns="http://www.w3.org/2000/svg" viewBox="0 0 84.26 80.4"><defs><style>.cls-1{fill:#292a35;}.cls-2{fill:#87f4d3;}</style></defs><path class="cls-1" d="M59.6,81.2A18.1,18.1,0,0,1,46.5,68.9L42.7,56.3l7.7-8.2,4.2,14A15.36,15.36,0,0,0,65.9,72.7l25.9,6.1L84.1,87Z" transform="translate(-19.95 -9.8)"/><path class="cls-2" d="M50.2,48.7l3.1,10.4.9,3.1A15.85,15.85,0,0,0,65.7,73.1l25.4,6L84,86.7,59.7,81A17.74,17.74,0,0,1,46.8,68.9l-.4-1.3h0L43,56.3l7.2-7.6m.3-1.3-8.2,8.7h0l3.4,11.5h0l.4,1.3A18.37,18.37,0,0,0,59.5,81.5l24.7,5.8,8.2-8.7L65.9,72.4A15.18,15.18,0,0,1,54.8,62L54,58.9,50.5,47.4Z" transform="translate(-19.95 -9.8)"/><path class="cls-1" d="M65.8,72a14.59,14.59,0,0,1-10.5-9.9L51,47.9l10.9,2.6,3.4,11.3a.22.22,0,0,0,.2.2l11.7,2.8h.1c.1,0,.2,0,.2-.1l7.8-8.3,6.6,21.9Z" transform="translate(-19.95 -9.8)"/><path class="cls-2" d="M51.5,48.3l10.2,2.4L65,61.9a1.21,1.21,0,0,0,.5.5l11.7,2.8h.2a.76.76,0,0,0,.5-.2l7.4-7.9,3.1,10.3h0l3.1,10.4-25.6-6A14.18,14.18,0,0,1,55.6,62l-1-3.3L51.5,48.3m-1-.9L54,58.9l1,3.3A14.77,14.77,0,0,0,65.7,72.3l26.7,6.3L89,67.2h0L85.6,55.7l-8.2,8.7L65.7,61.6,62.3,50.1,50.5,47.4Z" transform="translate(-19.95 -9.8)"/><path class="cls-1" d="M20.5,54.5a6.68,6.68,0,0,1,1.6-6.6L36.1,33a19.29,19.29,0,0,1,14.1-6.1,23,23,0,0,1,4.5.5l12.1,2.9L69.9,41l-13-3.1a18.41,18.41,0,0,0-4.1-.5A17.47,17.47,0,0,0,39.9,43L22.6,61.5Z" transform="translate(-19.95 -9.8)"/><path class="cls-2" d="M50.2,27.2a22,22,0,0,1,4.4.5l.6.1h0l11.3,2.7,3,10L59,38l-2-.4a20.07,20.07,0,0,0-4.2-.5,18.23,18.23,0,0,0-13.2,5.7l-17,18-1.9-6.4a6.38,6.38,0,0,1,1.5-6.3l14-14.9a19.53,19.53,0,0,1,14-6m0-.7a19.45,19.45,0,0,0-14.3,6.2l-14,14.9a6.82,6.82,0,0,0-1.6,6.9L22.6,62,40.4,43.1a17.48,17.48,0,0,1,12.7-5.5,18.25,18.25,0,0,1,4,.5l1.9.4,11.7,2.8L67,30h0L55.3,27.2h0l-.6-.1a17.4,17.4,0,0,0-4.5-.6Z" transform="translate(-19.95 -9.8)"/><path class="cls-1" d="M23,61.9l17.9-19A15.9,15.9,0,0,1,52.3,38a14.72,14.72,0,0,1,3.6.4l13.8,3.3L62,49.9,50.5,47.2h-.1c-.1,0-.2,0-.2.1L42,56a.14.14,0,0,0,0,.2l3.3,10.9Z" transform="translate(-19.95 -9.8)"/><path class="cls-2" d="M52.4,38.3h0a13.42,13.42,0,0,1,3.5.4l2.7.6,10.5,2.5L62,49.5,50.7,46.8h-.2a.76.76,0,0,0-.5.2l-8.2,8.7a.73.73,0,0,0-.2.6l3.1,10.4L34.2,64.2h0L23.7,61.7,41.2,43.1a15.75,15.75,0,0,1,11.2-4.8m0-.7a16.27,16.27,0,0,0-11.7,5L22.4,62.1l11.7,2.8h0l11.7,2.8L42.4,56.2l8.2-8.7,11.7,2.8,8.2-8.7L58.8,38.8l-2.7-.6a11.93,11.93,0,0,0-3.7-.6Z" transform="translate(-19.95 -9.8)"/><path class="cls-1" d="M66.3,61.5,77.1,50a13.6,13.6,0,0,0,3.1-13.2l-8-26.6,6.7,1.6a7.35,7.35,0,0,1,5.4,5.1l7.1,23.6a11.51,11.51,0,0,1-2.7,11.3L77.2,64.1Z" transform="translate(-19.95 -9.8)"/><path class="cls-2" d="M72.7,10.7l6.2,1.5a7.16,7.16,0,0,1,5.2,4.9l7.1,23.6a11.21,11.21,0,0,1-2.6,10.9l-3.5,3.7h0l-8,8.4L66.9,61.3l7.4-7.9,3-3.2a14,14,0,0,0,3.2-13.5l-7.8-26m-.9-.9,8.1,27.1a13.06,13.06,0,0,1-3.1,12.9l-3,3.2-8.2,8.7,11.7,2.8h0l8.2-8.7h0L89,52a11.76,11.76,0,0,0,2.7-11.6L84.6,16.8a7.66,7.66,0,0,0-5.7-5.3L71.8,9.8Z" transform="translate(-19.95 -9.8)"/><path class="cls-1" d="M62.6,50.3l8.1-8.6a.37.37,0,0,0,.1-.3L67.4,29.9a.22.22,0,0,0-.2-.2L55.9,27,71.6,10.4l7.9,26.5a13.12,13.12,0,0,1-3,12.7L65.8,61Z" transform="translate(-19.95 -9.8)"/><path class="cls-2" d="M71.4,11.1,79.2,37a12.83,12.83,0,0,1-2.9,12.4l-2.9,3.1L66,60.4l-3-10L71,42a.73.73,0,0,0,.2-.6L67.8,29.9a1.21,1.21,0,0,0-.5-.5L56.7,26.9,64,19h0l7.4-7.9m.4-1.3-8.2,8.7h0l-8.2,8.7L67,30l3.4,11.5-8.2,8.7,3.4,11.5L73.8,53l2.9-3.1a13.29,13.29,0,0,0,3.1-13l-8-27.1Z" transform="translate(-19.95 -9.8)"/><path class="cls-1" d="M40.5,87,33.6,62.8A17.92,17.92,0,0,1,38,45.3l9.2-9.5L58,38.6,47.8,49.1A15.77,15.77,0,0,0,44,64.2l7.3,25.6Z" transform="translate(-19.95 -9.8)"/><path class="cls-2" d="M47.2,36.2l10.1,2.5-7.5,7.8-2.2,2.3a16.19,16.19,0,0,0-3.9,15.4l7.2,25L40.8,86.7l-6.9-24a17.62,17.62,0,0,1,4.3-17.1l.8-.9h0l.1-.1,8.1-8.4m-.2-.7h0l-8.3,8.6h0l-1,1a18.27,18.27,0,0,0-4.5,17.8l7,24.4,11.6,2.9L44.3,64A15.06,15.06,0,0,1,48,49.3L50.2,47l8.3-8.6L47,35.5Z" transform="translate(-19.95 -9.8)"/><path class="cls-1" d="M44.6,63.8a14.46,14.46,0,0,1,3.5-14L58.5,39.1l3.1,10.8-8.3,8.6,3.4,11.9L68,73.2,52,89.6Z" transform="translate(-19.95 -9.8)"/><path class="cls-2" d="M58.3,39.7l2.9,10.1-8.1,8.3-.3.3.1.4,3.3,11.5.1.4.4.1,10.5,2.6L59.8,81h0l-.1.1-7.5,7.8L45,63.6a14.11,14.11,0,0,1,3.4-13.7l2.4-2.5,7.5-7.7m.3-1.3L50.3,47l-2.4,2.5a14.76,14.76,0,0,0-3.6,14.3l7.5,26.4,8.3-8.6h0L68.4,73,56.8,70.1,53.5,58.6,61.8,50,58.6,38.4Z" transform="translate(-19.95 -9.8)"/><path class="cls-1" d="M70.1,39.4A17.56,17.56,0,0,0,57.4,27.1L32.8,20.9l5.1-5.2a7.07,7.07,0,0,1,4.9-2.1,9.85,9.85,0,0,1,1.7.2l19.9,5A19.36,19.36,0,0,1,78.3,32.3l3.4,11.9-7.8,8.1Z" transform="translate(-19.95 -9.8)"/><path class="cls-2" d="M42.7,13.9h0a8.75,8.75,0,0,1,1.6.2l19.9,5A19.17,19.17,0,0,1,77.9,32.4l.2.5h0l3.2,11.2L74,51.6,71,41.2l-.5-1.9a18.18,18.18,0,0,0-13-12.6l-24-6,4.7-4.8a5.91,5.91,0,0,1,4.5-2m0-.7a7,7,0,0,0-5.1,2.2L32.1,21l25.1,6.3A17.38,17.38,0,0,1,69.7,39.4l.5,1.9,3.3,11.5,8.3-8.6h0L78.5,32.7h0l-.2-.6A19.51,19.51,0,0,0,64.1,18.4l-19.9-5a5.42,5.42,0,0,0-1.5-.2Z" transform="translate(-19.95 -9.8)"/><path class="cls-1" d="M62.2,49.7,59,38.3a.22.22,0,0,0-.2-.2L47.2,35.2h-.1c-.1,0-.2,0-.2.1L39,43.5l-6.3-22L58,27.9A15.93,15.93,0,0,1,69.3,38.8l3.9,13.6Z" transform="translate(-19.95 -9.8)"/><path class="cls-2" d="M33.1,22l24.8,6.2a15.26,15.26,0,0,1,11,10.7l.7,2.6,3,10.4L62.5,49.4,59.3,38.2a.82.82,0,0,0-.5-.5L47.2,34.8H47c-.2,0-.3.1-.5.2L39,42.8,36,32.4h0L33.1,22m-1-1,3.3,11.5h0L38.7,44,47,35.4l11.6,2.9L61.9,50l11.6,2.9L70.2,41.4l-.7-2.6A16.24,16.24,0,0,0,58,27.6L32.1,21Z" transform="translate(-19.95 -9.8)"/><path class="cls-1" d="M76.4,74.3a13.33,13.33,0,0,1-2.8-.3L57.2,69.9,54.1,59l15.3,3.8a12.42,12.42,0,0,0,3.3.4,13.85,13.85,0,0,0,9.8-4.1l19.3-19.9,1.9,6.7a7.56,7.56,0,0,1-1.8,7.2L84.7,70.8A11.82,11.82,0,0,1,76.4,74.3Z" transform="translate(-19.95 -9.8)"/><path class="cls-2" d="M101.6,39.9l1.7,6.1a7.27,7.27,0,0,1-1.7,6.9L84.4,70.5a11.1,11.1,0,0,1-8.1,3.4,12.41,12.41,0,0,1-2.7-.3l-4.9-1.2h0L57.4,69.6,54.5,59.5,65,62.1l4.2,1.1a12.67,12.67,0,0,0,3.4.4,14,14,0,0,0,10-4.2l19-19.5m.3-1.3L82.2,58.9a13.24,13.24,0,0,1-9.5,4,11.24,11.24,0,0,1-3.2-.4l-4.2-1.1L53.7,58.5,57,70h0l11.5,3h0l5,1.2a14.46,14.46,0,0,0,2.9.4A11.8,11.8,0,0,0,84.9,71L102,53.3a7.86,7.86,0,0,0,1.9-7.6l-2-7.1Z" transform="translate(-19.95 -9.8)"/><path class="cls-1" d="M72.6,62.6a11.7,11.7,0,0,1-3.2-.4L54.2,58.4,62,50.3l11.4,2.9h.1c.1,0,.2,0,.2-.1L82,44.5a.37.37,0,0,0,.1-.3L79,33.2l22.1,5.6L82,58.6A13.25,13.25,0,0,1,72.6,62.6Z" transform="translate(-19.95 -9.8)"/><path class="cls-2" d="M79.6,33.7l10.5,2.6h0l10.5,2.6L81.8,58.4a12.64,12.64,0,0,1-9.1,3.9,11,11,0,0,1-3.1-.4l-4.1-1L55,58.3l7.3-7.5,11.3,2.8h.2c.2,0,.3-.1.5-.2l8.3-8.6a.73.73,0,0,0,.2-.6L79.6,33.7m-1-1,3.3,11.5-8.3,8.6L61.9,50l-8.3,8.6,11.6,2.9,4.1,1a12.42,12.42,0,0,0,3.3.4,13,13,0,0,0,9.6-4.1l19.6-20.3L90.2,35.6h0L78.6,32.7Z" transform="translate(-19.95 -9.8)"/></svg>