<svg id="Layer_1" data-name="Layer 1" xmlns="http://www.w3.org/2000/svg" viewBox="0 0 307.9 54.8"><defs><style>.cls-1{fill:#292a35;}</style></defs><path class="cls-1" d="M153.7,23.3l17.1,51.9v1.1H159.6l-3.8-12.5H137l-3.8,12.5H122.3V75.2l17.1-51.9Zm-.6,31.2-6.4-21h-.6l-6.4,21Z" transform="translate(-122.3 -22.4)"/><path class="cls-1" d="M189,23.3l19.8,35.8h.6V23.3h10.3v53H207.2L187.4,40.5h-.6V76.3H176.4v-53Z" transform="translate(-122.3 -22.4)"/><path class="cls-1" d="M248.5,22.4c13.6,0,21.1,6.3,21.7,16.5V40H259.7c-.3-6.7-5-8.9-11.1-8.9s-9.8,2.3-9.8,6.4,3.1,5.8,8.8,6.7l6,1c11,1.9,17.1,6,17.1,15.7s-7.2,16.3-21.2,16.3S227,70.6,226.6,60.3V59.2h10.5c.6,6.7,5.6,9.3,12.3,9.3s10.5-2.6,10.5-7-3.2-5.9-9.2-6.9l-6-1c-10.9-1.9-16.8-6.7-16.8-15.8S234.9,22.4,248.5,22.4Z" transform="translate(-122.3 -22.4)"/><path class="cls-1" d="M284.5,23.3l6,40.1h.6l7.6-40.1h11.2l7.6,40.1h.6l6-40.1H334v1.1l-8.5,51.9H311.6l-7.1-37.2h-.6l-7.1,37.2H282.9l-8.5-51.9V23.3Z" transform="translate(-122.3 -22.4)"/><path class="cls-1" d="M340.9,23.3v9.2h27.3V45H344.6v9.2h23.6v13H340.4v9.2h39.1v-53H340.9Z" transform="translate(-122.3 -22.4)"/><path class="cls-1" d="M429.9,39.1c0,10.3-7.2,15.7-16.1,15.7h-1.7l18.1,20.4v1.1H417.8L398.9,54.6h-.7V76.3H387.1v-53h25.2C422.1,23.3,429.9,28.6,429.9,39.1Zm-19.3,7.2c5,0,8.4-2.3,8.4-7s-3.4-6.9-8.4-6.9H398.2V46.3Z" transform="translate(-122.3 -22.4)"/></svg>