<?xml version="1.0" encoding="utf-8"?>
<!-- Generator: Adobe Illustrator 25.4.8, SVG Export Plug-In . SVG Version: 6.00 Build 0)  -->
<svg version="1.1" id="Layer_1" xmlns="http://www.w3.org/2000/svg" xmlns:xlink="http://www.w3.org/1999/xlink" x="0px" y="0px"
	 viewBox="0 0 450 100" style="enable-background:new 0 0 450 100;" xml:space="preserve">
<style type="text/css">
	.st0{fill:none;stroke:#808080;stroke-width:4.0021;stroke-miterlimit:10;}
	.st1{fill:#92B4F3;}
	.st2{fill:#92B4F3;stroke:#92B4F3;stroke-width:8.6079;stroke-miterlimit:10;}
	.st3{fill:#4185F4;}
	.st4{fill:#FABB02;}
	.st5{fill:#35A752;}
	.st6{fill:#EA4033;}
	.st7{fill:#5186ED;}
	.st8{fill:#58A55D;}
	.st9{fill:#F2BD42;}
	.st10{fill:#D95040;}
	.st11{fill:none;stroke:#B3B3B3;stroke-width:6.3578;stroke-miterlimit:10;}
	.st12{fill:#1F2020;}
	.st13{fill:#3C3C3C;}
	.st14{fill:#282828;}
	.st15{fill:#ED6055;}
	.st16{fill:#65CC58;}
	.st17{fill:#F6BE4F;}
	.st18{fill:none;stroke:#FFFFFF;stroke-width:2.5007;stroke-miterlimit:10;}
	.st19{fill:#FFFFFF;stroke:#FFFFFF;stroke-width:0.6731;stroke-miterlimit:10;}
	.st20{fill:none;stroke:#FFFFFF;stroke-width:1.8166;stroke-miterlimit:10;}
	.st21{fill:none;stroke:#FFFFFF;stroke-width:2.126;stroke-miterlimit:10;}
	.st22{fill:#FFFFFF;stroke:#FFFFFF;stroke-width:2.126;stroke-miterlimit:10;}
	.st23{fill:none;stroke:#CCCCCC;stroke-width:2.0017;stroke-miterlimit:10;}
	.st24{fill:#FFFFFF;stroke:#FFFFFF;stroke-width:1.5157;stroke-miterlimit:10;}
	.st25{fill:#FFFFFF;stroke:#FFFFFF;stroke-width:1.3197;stroke-miterlimit:10;}
	.st26{fill:#478E99;}
	.st27{fill:none;stroke:#FFFFFF;stroke-width:0.5357;stroke-miterlimit:10;}
	.st28{fill:#FFFFFF;}
	.st29{fill:#9F50B6;}
	.st30{fill:url(#SVGID_1_);}
	.st31{fill:#FFFFFF;stroke:#FFFFFF;stroke-miterlimit:10;}
	.st32{fill:none;stroke:#000000;stroke-width:4.0769;stroke-linecap:round;stroke-linejoin:round;stroke-miterlimit:10;}
	.st33{fill:none;stroke:#000000;stroke-width:4.0769;stroke-miterlimit:10;}
	.st34{fill:#292A35;}
	.st35{fill:#87F4D3;}
	.st36{fill:#292A35;stroke:#87F4D3;stroke-width:0.6627;stroke-linejoin:round;stroke-miterlimit:110;}
	.st37{fill:#292A35;stroke:#87F4D3;stroke-width:0.6627;stroke-miterlimit:10;}
</style>
<g>
	<g>
		<g>
			<path class="st34" d="M59.6,81.2c-6.2-1.5-11.3-6.2-13.1-12.3l-3.8-12.6l7.7-8.2l4.2,14c1.6,5.3,5.9,9.4,11.3,10.6l25.9,6.1
				L84.1,87L59.6,81.2z"/>
			<path class="st35" d="M50.2,48.7l3.1,10.4l0.9,3.1c1.6,5.4,6,9.6,11.5,10.9l25.4,6L84,86.7l-24.3-5.7
				c-6.1-1.4-11.1-6.1-12.9-12.1l-0.4-1.3c0,0,0,0,0,0L43,56.3L50.2,48.7 M50.5,47.4l-8.2,8.7l0,0l3.4,11.5l0,0l0.4,1.3
				c1.9,6.3,7,11.1,13.4,12.6l24.7,5.8l8.2-8.7l-26.5-6.2c-5.3-1.2-9.5-5.2-11.1-10.4L54,58.9L50.5,47.4L50.5,47.4z"/>
		</g>
		<g>
			<path class="st34" d="M65.8,72c-5-1.2-9-5-10.5-9.9L51,47.9l10.9,2.6l3.4,11.3c0,0.1,0.1,0.2,0.2,0.2l11.7,2.8c0,0,0.1,0,0.1,0
				c0.1,0,0.2,0,0.2-0.1l7.8-8.3l6.6,21.9L65.8,72z"/>
			<path class="st35" d="M51.5,48.3l10.2,2.4L65,61.9c0.1,0.2,0.3,0.4,0.5,0.5l11.7,2.8c0.1,0,0.1,0,0.2,0c0.2,0,0.4-0.1,0.5-0.2
				l7.4-7.9l3.1,10.3c0,0,0,0,0,0l3.1,10.4l-25.6-6C61,70.6,57,66.9,55.6,62l-1-3.3L51.5,48.3 M50.5,47.4L54,58.9l1,3.3
				c1.5,5,5.6,8.9,10.7,10.1l26.7,6.3L89,67.2l0,0l-3.4-11.5l-8.2,8.7l-11.7-2.8l-3.4-11.5L50.5,47.4L50.5,47.4z"/>
		</g>
		<g>
			<g>
				<path class="st34" d="M20.5,54.5c-0.7-2.3-0.1-4.9,1.6-6.6l14-14.9c3.6-3.9,8.8-6.1,14.1-6.1c1.5,0,3,0.2,4.5,0.5l12.1,2.9
					L69.9,41l-13-3.1c-1.3-0.3-2.7-0.5-4.1-0.5c-4.9,0-9.6,2-12.9,5.6L22.6,61.5L20.5,54.5z"/>
				<path class="st35" d="M50.2,27.2c1.5,0,2.9,0.2,4.4,0.5l0.6,0.1c0,0,0,0,0,0l11.3,2.7l3,10l-10.5-2.5L57,37.6
					c-1.4-0.3-2.8-0.5-4.2-0.5c-5,0-9.8,2.1-13.2,5.7l-17,18l-1.9-6.4c-0.7-2.2-0.1-4.6,1.5-6.3l14-14.9
					C39.9,29.4,44.9,27.2,50.2,27.2 M50.2,26.5c-5.4,0-10.6,2.2-14.3,6.2l-14,14.9c-1.8,1.9-2.4,4.5-1.6,6.9l2.3,7.5l17.8-18.9
					c3.3-3.5,7.9-5.5,12.7-5.5c1.3,0,2.7,0.2,4,0.5l1.9,0.4l11.7,2.8L67,30l0,0l-11.7-2.8l0,0l-0.6-0.1
					C53.2,26.7,51.7,26.5,50.2,26.5L50.2,26.5z"/>
			</g>
			<g>
				<path class="st34" d="M23,61.9l17.9-19c3-3.1,7.1-4.9,11.4-4.9c1.2,0,2.4,0.1,3.6,0.4l13.8,3.3l-7.7,8.2l-11.5-2.7
					c0,0-0.1,0-0.1,0c-0.1,0-0.2,0-0.2,0.1l-8.2,8.7C42,56,41.9,56.1,42,56.2l3.3,10.9L23,61.9z"/>
				<path class="st35" d="M52.4,38.3L52.4,38.3c1.2,0,2.4,0.1,3.5,0.4l2.7,0.6l10.5,2.5L62,49.5l-11.3-2.7c-0.1,0-0.1,0-0.2,0
					c-0.2,0-0.4,0.1-0.5,0.2l-8.2,8.7c-0.2,0.2-0.2,0.4-0.2,0.6l3.1,10.4l-10.5-2.5c0,0,0,0,0,0l-10.5-2.5l17.5-18.6
					C44.1,40.1,48.2,38.3,52.4,38.3 M52.4,37.6c-4.4,0-8.6,1.8-11.7,5L22.4,62.1l11.7,2.8l0,0l11.7,2.8l-3.4-11.5l8.2-8.7l11.7,2.8
					l8.2-8.7l-11.7-2.8l-2.7-0.6C54.9,37.8,53.6,37.6,52.4,37.6L52.4,37.6z"/>
			</g>
		</g>
		<g>
			<path class="st34" d="M66.3,61.5L77.1,50c3.3-3.5,4.5-8.6,3.1-13.2l-8-26.6l6.7,1.6c2.6,0.6,4.7,2.6,5.4,5.1l7.1,23.6
				c1.2,3.9,0.2,8.3-2.7,11.3L77.2,64.1L66.3,61.5z"/>
			<path class="st35" d="M72.7,10.7l6.2,1.5c2.5,0.6,4.5,2.5,5.2,4.9l7.1,23.6c1.1,3.8,0.2,8-2.6,10.9l-3.5,3.7c0,0,0,0,0,0l-8,8.4
				l-10.2-2.4l7.4-7.9l3-3.2c3.4-3.6,4.6-8.8,3.2-13.5L72.7,10.7 M71.8,9.8l8.1,27.1c1.4,4.5,0.2,9.5-3.1,12.9l-3,3.2l-8.2,8.7
				l11.7,2.8l0,0l8.2-8.7l0,0L89,52c2.9-3.1,4-7.5,2.7-11.6l-7.1-23.6c-0.8-2.7-3-4.7-5.7-5.3L71.8,9.8L71.8,9.8z"/>
		</g>
		<g>
			<path class="st34" d="M62.6,50.3l8.1-8.6c0.1-0.1,0.1-0.2,0.1-0.3l-3.4-11.5c0-0.1-0.1-0.2-0.2-0.2L55.9,27l15.7-16.6l7.9,26.5
				c1.3,4.5,0.2,9.3-3,12.7L65.8,61L62.6,50.3z"/>
			<path class="st35" d="M71.4,11.1L79.2,37c1.3,4.3,0.2,9.1-2.9,12.4l-2.9,3.1l-7.4,7.9l-3-10l8-8.4c0.2-0.2,0.2-0.4,0.2-0.6
				l-3.4-11.5c-0.1-0.2-0.3-0.4-0.5-0.5l-10.6-2.5L64,19c0,0,0,0,0,0L71.4,11.1 M71.8,9.8l-8.2,8.7l0,0l-8.2,8.7L67,30l3.4,11.5
				l-8.2,8.7l3.4,11.5l8.2-8.7l2.9-3.1c3.3-3.5,4.5-8.5,3.1-13L71.8,9.8L71.8,9.8z"/>
		</g>
		<g>
			<path class="st34" d="M40.5,87l-6.9-24.2c-1.8-6.2-0.1-12.9,4.4-17.5l9.2-9.5L58,38.6L47.8,49.1c-3.8,4-5.3,9.7-3.8,15.1
				l7.3,25.6L40.5,87z"/>
			<path class="st35" d="M47.2,36.2l10.1,2.5l-7.5,7.8l-2.2,2.3c-3.9,4.1-5.4,10-3.9,15.4l7.2,25l-10.1-2.5l-6.9-24
				c-1.7-6.1-0.1-12.6,4.3-17.1l0.8-0.9l0,0l0.1-0.1L47.2,36.2 M47,35.5L47,35.5l-8.3,8.6l0,0l-1,1c-4.6,4.7-6.3,11.5-4.5,17.8
				l7,24.4l11.6,2.9l-7.5-26.2c-1.5-5.2-0.1-10.8,3.7-14.7l2.2-2.3l8.3-8.6L47,35.5L47,35.5z"/>
		</g>
		<g>
			<path class="st34" d="M44.6,63.8c-1.4-4.9-0.1-10.3,3.5-14l10.4-10.7l3.1,10.8l-8.3,8.6l3.4,11.9l11.3,2.8L52,89.6L44.6,63.8z"/>
			<path class="st35" d="M58.3,39.7l2.9,10.1l-8.1,8.3l-0.3,0.3l0.1,0.4l3.3,11.5l0.1,0.4l0.4,0.1l10.5,2.6L59.8,81l0,0l-0.1,0.1
				l-7.5,7.8l-7.2-25.3c-1.4-4.8-0.1-10.1,3.4-13.7l2.4-2.5L58.3,39.7 M58.6,38.4L50.3,47l-2.4,2.5c-3.7,3.8-5,9.2-3.6,14.3
				l7.5,26.4l8.3-8.6l0,0l8.3-8.6l-11.6-2.9l-3.3-11.5l8.3-8.6L58.6,38.4L58.6,38.4z"/>
		</g>
		<g>
			<path class="st34" d="M70.1,39.4c-1.7-6.1-6.6-10.8-12.7-12.3l-24.6-6.2l5.1-5.2c1.3-1.3,3.1-2.1,4.9-2.1c0.6,0,1.1,0.1,1.7,0.2
				l19.9,5c6.7,1.7,12,6.8,13.9,13.5l3.4,11.9l-7.8,8.1L70.1,39.4z"/>
			<path class="st35" d="M42.7,13.9L42.7,13.9c0.5,0,1.1,0.1,1.6,0.2l19.9,5c6.6,1.7,11.8,6.7,13.7,13.3l0.2,0.5c0,0,0,0,0,0
				l3.2,11.2l-7.3,7.5l-3-10.4l-0.5-1.9c-1.8-6.2-6.7-11-13-12.6l-24-6l4.7-4.8C39.3,14.6,41,13.9,42.7,13.9 M42.7,13.2
				c-1.9,0-3.8,0.8-5.1,2.2L32.1,21l25.1,6.3c6,1.5,10.8,6.1,12.5,12.1l0.5,1.9l3.3,11.5l8.3-8.6l0,0l-3.3-11.5l0,0l-0.2-0.6
				c-1.9-6.8-7.3-12-14.2-13.7l-19.9-5C43.9,13.3,43.3,13.2,42.7,13.2L42.7,13.2z"/>
		</g>
		<g>
			<path class="st34" d="M62.2,49.7L59,38.3c0-0.1-0.1-0.2-0.2-0.2l-11.6-2.9c0,0-0.1,0-0.1,0c-0.1,0-0.2,0-0.2,0.1l-7.9,8.2
				l-6.3-22l25.3,6.4c5.4,1.4,9.8,5.6,11.3,10.9l3.9,13.6L62.2,49.7z"/>
			<path class="st35" d="M33.1,22l24.8,6.2c5.3,1.3,9.5,5.4,11,10.7l0.7,2.6l3,10.4l-10.1-2.5l-3.2-11.2c-0.1-0.2-0.2-0.4-0.5-0.5
				l-11.6-2.9c-0.1,0-0.1,0-0.2,0c-0.2,0-0.3,0.1-0.5,0.2L39,42.8l-3-10.4c0,0,0,0,0,0L33.1,22 M32.1,21l3.3,11.5l0,0l3.3,11.5
				l8.3-8.6l11.6,2.9L61.9,50l11.6,2.9l-3.3-11.5l-0.7-2.6c-1.6-5.5-6-9.8-11.5-11.2L32.1,21L32.1,21z"/>
		</g>
		<g>
			<path class="st34" d="M76.4,74.3c-0.9,0-1.9-0.1-2.8-0.3l-16.4-4.1L54.1,59l15.3,3.8c1.1,0.3,2.2,0.4,3.3,0.4
				c3.7,0,7.2-1.5,9.8-4.1l19.3-19.9l1.9,6.7c0.7,2.6,0,5.3-1.8,7.2L84.7,70.8C82.5,73,79.5,74.3,76.4,74.3z"/>
			<path class="st35" d="M101.6,39.9l1.7,6.1c0.7,2.4,0,5.1-1.7,6.9L84.4,70.5c-2.1,2.2-5,3.4-8.1,3.4c-0.9,0-1.8-0.1-2.7-0.3
				l-4.9-1.2c0,0,0,0,0,0l-11.3-2.8l-2.9-10.1l10.5,2.6l4.2,1.1c1.1,0.3,2.2,0.4,3.4,0.4c3.7,0,7.4-1.5,10-4.2L101.6,39.9
				 M101.9,38.6L82.2,58.9c-2.5,2.6-6,4-9.5,4c-1.1,0-2.2-0.1-3.2-0.4l-4.2-1.1l-11.6-2.9l3.3,11.5l0,0L68.5,73l0,0l5,1.2
				c1,0.2,1.9,0.4,2.9,0.4c3.2,0,6.3-1.3,8.5-3.6L102,53.3c1.9-2,2.7-4.9,1.9-7.6L101.9,38.6L101.9,38.6z"/>
		</g>
		<g>
			<path class="st34" d="M72.6,62.6c-1.1,0-2.1-0.1-3.2-0.4l-15.2-3.8l7.8-8.1l11.4,2.9c0,0,0.1,0,0.1,0c0.1,0,0.2,0,0.2-0.1
				l8.3-8.6c0.1-0.1,0.1-0.2,0.1-0.3l-3.1-11l22.1,5.6L82,58.6C79.6,61.1,76.1,62.6,72.6,62.6z"/>
			<path class="st35" d="M79.6,33.7l10.5,2.6c0,0,0,0,0,0l10.5,2.6L81.8,58.4c-2.4,2.5-5.7,3.9-9.1,3.9c-1,0-2.1-0.1-3.1-0.4l-4.1-1
				l-10.5-2.6l7.3-7.5l11.3,2.8c0.1,0,0.1,0,0.2,0c0.2,0,0.3-0.1,0.5-0.2l8.3-8.6c0.2-0.2,0.2-0.4,0.2-0.6L79.6,33.7 M78.6,32.7
				l3.3,11.5l-8.3,8.6L61.9,50l-8.3,8.6l11.6,2.9l4.1,1c1.1,0.3,2.2,0.4,3.3,0.4c3.6,0,7.1-1.4,9.6-4.1l19.6-20.3l-11.6-2.9l0,0
				L78.6,32.7L78.6,32.7z"/>
		</g>
	</g>
	<g>
		<path class="st34" d="M153.7,23.3l17.1,51.9v1.1h-11.2l-3.8-12.5H137l-3.8,12.5h-10.9v-1.1l17.1-51.9H153.7z M153.1,54.5l-6.4-21
			h-0.6l-6.4,21H153.1z"/>
		<path class="st34" d="M189,23.3l19.8,35.8h0.6V23.3h10.3v53h-12.5l-19.8-35.8h-0.6v35.8h-10.4v-53H189z"/>
		<path class="st34" d="M248.5,22.4c13.6,0,21.1,6.3,21.7,16.5V40h-10.5c-0.3-6.7-5-8.9-11.1-8.9c-6.1,0-9.8,2.3-9.8,6.4
			c0,4.1,3.1,5.8,8.8,6.7l6,1c11,1.9,17.1,6,17.1,15.7s-7.2,16.3-21.2,16.3c-14,0-22.5-6.6-22.9-16.9v-1.1h10.5
			c0.6,6.7,5.6,9.3,12.3,9.3c6.7,0,10.5-2.6,10.5-7s-3.2-5.9-9.2-6.9l-6-1c-10.9-1.9-16.8-6.7-16.8-15.8
			C227.8,28.7,234.9,22.4,248.5,22.4z"/>
		<path class="st34" d="M284.5,23.3l6,40.1h0.6l7.6-40.1h11.2l7.6,40.1h0.6l6-40.1h9.9v1.1l-8.5,51.9h-13.9l-7.1-37.2h-0.6
			l-7.1,37.2h-13.9l-8.5-51.9v-1.1H284.5z"/>
		<path class="st34" d="M340.9,23.3v9.2h27.3V45h-23.6v9.2h23.6v13h-27.8v9.2h39.1v-53H340.9z"/>
		<path class="st34" d="M429.9,39.1c0,10.3-7.2,15.7-16.1,15.7h-1.7l18.1,20.4v1.1h-12.4l-18.9-21.7h-0.7v21.7h-11.1v-53h25.2
			C422.1,23.3,429.9,28.6,429.9,39.1z M410.6,46.3c5,0,8.4-2.3,8.4-7s-3.4-6.9-8.4-6.9h-12.4v13.9H410.6z"/>
	</g>
</g>
</svg>
