<svg id="Layer_1" data-name="Layer 1" xmlns="http://www.w3.org/2000/svg" viewBox="0 0 100 100"><path d="M17.86,40.42l.61,2.52h-.9c-.9,2.84-1.79,5.39-2.69,7.65l-4.35,11.2H8.07l-.13-.19,8.29-21.18Zm5.34,13.4,0,2.15H12l0-2.15Zm4.13,7.78-.16.19H24.74l-4.39-11.2c-.89-2.26-1.78-4.81-2.65-7.65h-.93l.61-2.52H19Z"/><path d="M30.08,37.92h2.47v5.73c0,1.26,0,2.48-.07,3.68l.07.64V59.26l-.74,2.53H30.08Zm5,23.84a4,4,0,0,1-1.57-.9,3.84,3.84,0,0,1-1-1.47h-.16l-.83-.67,1-1.57V58.3a4.89,4.89,0,0,0,1.74,1.08,7.51,7.51,0,0,0,2.67.43,5,5,0,0,0,2.67-.64,3.58,3.58,0,0,0,1.47-1.91,9.84,9.84,0,0,0,.47-3.34v-1.7A9.22,9.22,0,0,0,41.12,49a2.89,2.89,0,0,0-1.42-1.63,6,6,0,0,0-2.64-.48,8.07,8.07,0,0,0-2.58.43,5.15,5.15,0,0,0-2,1.17l-.29-1.15h.45a5.41,5.41,0,0,1,2-2,6.74,6.74,0,0,1,6.29.16,6,6,0,0,1,2.32,2.74,11.58,11.58,0,0,1,.86,4.85,13.54,13.54,0,0,1-.8,5,6.18,6.18,0,0,1-2.3,3,6.37,6.37,0,0,1-3.58,1A7.22,7.22,0,0,1,35.11,61.76Z"/><path d="M48.16,48.5a6.49,6.49,0,0,1,2.61-3,7.23,7.23,0,0,1,3.66-.94,7.36,7.36,0,0,1,3.73.94,6.49,6.49,0,0,1,2.61,3,11.36,11.36,0,0,1,1,4.94,10.85,10.85,0,0,1-.92,4.66,6.79,6.79,0,0,1-2.54,3,7.68,7.68,0,0,1-7.65,0,6.75,6.75,0,0,1-2.52-3,11,11,0,0,1-.9-4.66A11.36,11.36,0,0,1,48.16,48.5Zm2,8.86a3.75,3.75,0,0,0,1.57,1.82,6.19,6.19,0,0,0,5.46,0,3.91,3.91,0,0,0,1.55-1.84,7.88,7.88,0,0,0,.51-3.06V52.48a8.21,8.21,0,0,0-.51-3.12,3.82,3.82,0,0,0-1.55-1.86,5.37,5.37,0,0,0-2.74-.62,5.3,5.3,0,0,0-2.69.62,3.87,3.87,0,0,0-1.58,1.86,8,8,0,0,0-.53,3.12v1.79A8,8,0,0,0,50.14,57.36Z"/><path d="M73.84,61.38a6.71,6.71,0,0,1-3.12.7,5.32,5.32,0,0,1-3.92-1.42,6.06,6.06,0,0,1-1.43-4.44V44.9h2.47V57a2.67,2.67,0,0,0,.8,2.19,4.18,4.18,0,0,0,2.65.66,6.85,6.85,0,0,0,2.47-.47,6.12,6.12,0,0,0,2-1.26l.44,1.25h-.51A4.11,4.11,0,0,1,73.84,61.38Zm2.67.41-.7-2.62V44.9h2.46V61.79Z"/><path d="M91.77,44.9V47H81.5V44.9ZM90.7,62a13.54,13.54,0,0,1-1.68.11,5.41,5.41,0,0,1-2.93-.72,3.9,3.9,0,0,1-1.6-2A9.9,9.9,0,0,1,84,56.06V41.34l1.5-.8h1V56.67a7.2,7.2,0,0,0,.18,1.87,1.55,1.55,0,0,0,.75,1,4,4,0,0,0,1.82.32,15.15,15.15,0,0,0,2.69-.23l.13.13v2A9.82,9.82,0,0,1,90.7,62Z"/></svg>