<?xml version="1.0" encoding="utf-8"?>
<!-- Generator: Adobe Illustrator 26.0.1, SVG Export Plug-In . SVG Version: 6.00 Build 0)  -->
<svg version="1.1" id="Layer_1" xmlns="http://www.w3.org/2000/svg" xmlns:xlink="http://www.w3.org/1999/xlink" x="0px" y="0px"
	 viewBox="0 0 100 100" style="enable-background:new 0 0 100 100;" xml:space="preserve">
<path d="M12.9,40.4l0.6,2.5h-0.9c-0.9,2.8-1.8,5.4-2.7,7.7L5.5,61.8H3.1l-0.1-0.2l8.3-21.2L12.9,40.4z M18.2,53.8V56H7v-2.2H18.2z
	 M22.3,61.6l-0.2,0.2h-2.4l-4.4-11.2c-0.9-2.3-1.8-4.8-2.6-7.7h-0.9l0.6-2.5H14L22.3,61.6z"/>
<path d="M25.1,37.9h2.5v5.7c0,1.3,0,2.5-0.1,3.7l0.1,0.6v11.3l-0.7,2.5h-1.7V37.9z M30.1,61.8c-0.6-0.2-1.1-0.5-1.6-0.9
	c-0.4-0.4-0.8-0.9-1-1.5h-0.2l-0.8-0.7l1-1.6v1.2c0.5,0.5,1.1,0.8,1.7,1.1c0.9,0.3,1.8,0.4,2.7,0.4c0.9,0,1.9-0.2,2.7-0.6
	c0.7-0.4,1.2-1.1,1.5-1.9c0.3-1.1,0.5-2.2,0.5-3.3v-1.7c0.1-1.1-0.1-2.2-0.4-3.2c-0.2-0.7-0.8-1.3-1.4-1.6c-0.8-0.4-1.7-0.5-2.6-0.5
	c-0.9,0-1.7,0.1-2.6,0.4c-0.7,0.2-1.4,0.6-2,1.2l-0.3-1.2h0.5c0.5-0.8,1.2-1.5,2-2c2-1,4.3-0.9,6.3,0.2c1,0.7,1.8,1.6,2.3,2.7
	c0.6,1.5,0.9,3.2,0.9,4.8c0.1,1.7-0.2,3.4-0.8,5c-0.4,1.2-1.2,2.3-2.3,3c-1.1,0.7-2.3,1-3.6,1C31.6,62.1,30.9,62,30.1,61.8
	L30.1,61.8z"/>
<path d="M43.2,48.5c0.5-1.2,1.4-2.3,2.6-3c1.1-0.6,2.4-1,3.7-0.9c1.3,0,2.6,0.3,3.7,0.9c1.2,0.7,2.1,1.8,2.6,3c0.7,1.6,1,3.2,1,4.9
	c0,1.6-0.3,3.2-0.9,4.7c-0.5,1.2-1.4,2.3-2.5,3c-2.4,1.4-5.3,1.4-7.7,0c-1.1-0.7-2-1.8-2.5-3c-0.6-1.5-0.9-3.1-0.9-4.7
	C42.2,51.7,42.5,50.1,43.2,48.5z M45.2,57.4c0.3,0.8,0.9,1.4,1.6,1.8c1.7,0.8,3.7,0.8,5.5,0c0.7-0.4,1.2-1.1,1.5-1.8
	c0.4-1,0.5-2,0.5-3.1v-1.8c0-1.1-0.1-2.1-0.5-3.1c-0.3-0.8-0.8-1.4-1.5-1.9c-0.8-0.4-1.8-0.7-2.7-0.6c-0.9,0-1.9,0.2-2.7,0.6
	c-0.7,0.4-1.3,1.1-1.6,1.9c-0.4,1-0.6,2.1-0.5,3.1v1.8C44.6,55.3,44.8,56.4,45.2,57.4L45.2,57.4z"/>
<path d="M68.8,61.4c-1,0.5-2,0.7-3.1,0.7c-1.4,0.1-2.9-0.4-3.9-1.4c-1-1.2-1.6-2.8-1.4-4.4V44.9h2.5V57c-0.1,0.8,0.2,1.6,0.8,2.2
	c0.8,0.5,1.7,0.7,2.7,0.7c0.8,0,1.7-0.2,2.5-0.5c0.7-0.3,1.4-0.7,2-1.3l0.4,1.2h-0.5C70.3,60.2,69.7,60.9,68.8,61.4z M71.5,61.8
	l-0.7-2.6V44.9h2.5v16.9H71.5z"/>
<path d="M86.8,44.9V47H76.5v-2.1H86.8z M85.7,62c-0.6,0.1-1.1,0.1-1.7,0.1c-1,0-2-0.2-2.9-0.7c-0.7-0.5-1.3-1.2-1.6-2
	c-0.4-1.1-0.5-2.2-0.5-3.3V41.3l1.5-0.8h1v16.1c0,0.6,0,1.3,0.2,1.9c0.1,0.4,0.4,0.8,0.8,1c0.6,0.2,1.2,0.4,1.8,0.3
	c0.9,0,1.8-0.1,2.7-0.2l0.1,0.1v2C86.6,61.9,86.2,62,85.7,62z"/>
</svg>
