<svg id="Layer_1" data-name="Layer 1" xmlns="http://www.w3.org/2000/svg" viewBox="0 0 250 100"><path d="M8.3,44.7a7.53,7.53,0,0,1,3.3-3.5A11.36,11.36,0,0,1,17,40.05a22.8,22.8,0,0,1,2.84.16,14.23,14.23,0,0,1,2.18.41v2.21l-.13.13a19.27,19.27,0,0,0-4.67-.61,11.27,11.27,0,0,0-3.25.39,5.43,5.43,0,0,0-2.09,1.12,5.44,5.44,0,0,0-1.51,2.57,13.38,13.38,0,0,0-.54,4v1a14.72,14.72,0,0,0,.54,4.16,5.5,5.5,0,0,0,1.41,2.59,4.83,4.83,0,0,0,2.14,1.09,12.25,12.25,0,0,0,2.85.32,18.13,18.13,0,0,0,2.95-.26,17.94,17.94,0,0,0,2.62-.61l.19.16V61a21.3,21.3,0,0,1-2.56.62,19.8,19.8,0,0,1-3.39.24,10.7,10.7,0,0,1-5.38-1.18,7,7,0,0,1-3-3.67,17.44,17.44,0,0,1-1-6.32A14.09,14.09,0,0,1,8.3,44.7Z"/><path d="M34.37,61.23a6.59,6.59,0,0,1-3.12.71,5.29,5.29,0,0,1-3.92-1.43,6,6,0,0,1-1.43-4.43V44.75h2.47V56.82a2.67,2.67,0,0,0,.8,2.19,4.25,4.25,0,0,0,2.65.65,6.88,6.88,0,0,0,2.47-.46,6,6,0,0,0,2-1.26l.45,1.24h-.51A4.08,4.08,0,0,1,34.37,61.23Zm2.67.42L36.33,59V44.75H38.8v16.9Z"/><path d="M43.61,46.88a4.48,4.48,0,0,1,2.23-1.76,10.66,10.66,0,0,1,4.09-.66c.84,0,1.59,0,2.26.1a16.37,16.37,0,0,1,1.81.26V47l-.16.16q-.93-.16-2-.27a18.34,18.34,0,0,0-2.12-.11,10.44,10.44,0,0,0-2.62.25,2.48,2.48,0,0,0-1.33.77,2.21,2.21,0,0,0-.4,1.41v.29a2.05,2.05,0,0,0,.29,1.16,2.39,2.39,0,0,0,1.22.76,20.11,20.11,0,0,0,2.94.64,9.57,9.57,0,0,1,3.05.89,3.6,3.6,0,0,1,1.59,1.51A4.77,4.77,0,0,1,55,56.59a5.51,5.51,0,0,1-.69,2.8,4.56,4.56,0,0,1-2.18,1.87,9.27,9.27,0,0,1-3.82.68c-1,0-2,0-2.8-.12a12.89,12.89,0,0,1-2-.3V59.34l.16-.16a24.63,24.63,0,0,0,4.64.48,9.13,9.13,0,0,0,2.6-.28,2.24,2.24,0,0,0,1.29-.9,3.27,3.27,0,0,0,.36-1.66v-.29a2.34,2.34,0,0,0-.3-1.25,2.4,2.4,0,0,0-1.25-.83,13.73,13.73,0,0,0-2.89-.61,10.78,10.78,0,0,1-3.11-.94,3.54,3.54,0,0,1-1.53-1.48,4.37,4.37,0,0,1-.45-2A4.89,4.89,0,0,1,43.61,46.88Z"/><path d="M67.31,44.75v2.11H57V44.75ZM66.24,61.82a12.08,12.08,0,0,1-1.68.12,5.39,5.39,0,0,1-2.93-.72,3.84,3.84,0,0,1-1.6-2,9.82,9.82,0,0,1-.47-3.26V41.2l1.51-.8h1V56.53a7.84,7.84,0,0,0,.17,1.87,1.49,1.49,0,0,0,.76.94,3.82,3.82,0,0,0,1.82.32,15.18,15.18,0,0,0,2.69-.22l.13.13v2A7.92,7.92,0,0,1,66.24,61.82Z"/><path d="M70.89,48.35a6.51,6.51,0,0,1,2.61-2.94,7.24,7.24,0,0,1,3.66-.95,7.36,7.36,0,0,1,3.73.95,6.51,6.51,0,0,1,2.61,2.94,11.41,11.41,0,0,1,1,4.95A11,11,0,0,1,83.55,58a6.82,6.82,0,0,1-2.55,3,7.6,7.6,0,0,1-7.64,0,6.65,6.65,0,0,1-2.53-3,11,11,0,0,1-.9-4.65A11.41,11.41,0,0,1,70.89,48.35Zm2,8.87A3.78,3.78,0,0,0,74.44,59a5.27,5.27,0,0,0,2.72.62A5.15,5.15,0,0,0,79.9,59a3.86,3.86,0,0,0,1.55-1.84,7.86,7.86,0,0,0,.51-3V52.34a8.21,8.21,0,0,0-.51-3.12,3.77,3.77,0,0,0-1.55-1.86,5.25,5.25,0,0,0-2.74-.62,5.16,5.16,0,0,0-2.68.62,3.8,3.8,0,0,0-1.59,1.86,8,8,0,0,0-.53,3.12v1.79A7.78,7.78,0,0,0,72.88,57.22Z"/><path d="M90.12,44.75l.74,2.53V61.65H88.39V44.75Zm2.66.4a5.19,5.19,0,0,1,2.78-.69,4.8,4.8,0,0,1,2.82.76,4,4,0,0,1,1.47,2.28l.16.23V61.65H97.55V49a2.08,2.08,0,0,0-.69-1.75,3.72,3.72,0,0,0-2.23-.52,6,6,0,0,0-2.19.43,4.24,4.24,0,0,0-1.68,1.1l-.32-1.09H91A5.11,5.11,0,0,1,92.78,45.15Zm9,0a5.23,5.23,0,0,1,2.8-.72A4.39,4.39,0,0,1,108,45.73a5.46,5.46,0,0,1,1.18,3.85V61.65H106.7V49a2.06,2.06,0,0,0-.71-1.75,3.63,3.63,0,0,0-2.17-.52,5.89,5.89,0,0,0-2.19.43,4.48,4.48,0,0,0-1.72,1.1l-.41-1h.41A5.31,5.31,0,0,1,101.82,45.18Z"/><path d="M113.7,48.32a6,6,0,0,1,2.44-2.91,8.19,8.19,0,0,1,7.12-.26,4.94,4.94,0,0,1,2.14,2,6.64,6.64,0,0,1,.75,3.27V53.3H114.92V51.44h8.77v-1.5a4.1,4.1,0,0,0-.35-1.84,2.14,2.14,0,0,0-1.17-1,6.26,6.26,0,0,0-2.19-.32h-.32a5,5,0,0,0-2.48.53,3.15,3.15,0,0,0-1.4,1.68,9.17,9.17,0,0,0-.44,3.16V55a6.35,6.35,0,0,0,.46,2.64,3,3,0,0,0,1.63,1.52,8.43,8.43,0,0,0,3.28.51,12.85,12.85,0,0,0,2.61-.25,19.11,19.11,0,0,0,2.13-.55l.13.1v2.11a8.45,8.45,0,0,1-2,.63,16.05,16.05,0,0,1-2.85.24,9.24,9.24,0,0,1-4.7-1,5.54,5.54,0,0,1-2.4-2.9,13.66,13.66,0,0,1-.71-4.73A12.94,12.94,0,0,1,113.7,48.32Z"/><path d="M131.59,44.75l.93,2.53V61.65h-2.46V44.75Zm2.91.45a5.35,5.35,0,0,1,2.79-.7,3.81,3.81,0,0,1,.86.08,3.26,3.26,0,0,1,.54.14V46.9l-.12.12a10.6,10.6,0,0,0-3.46.2,5.8,5.8,0,0,0-1.66.67A6.06,6.06,0,0,0,132.14,49l-.07-1.83h.58A4.91,4.91,0,0,1,134.5,45.2Z"/><path d="M149.3,46.88a4.48,4.48,0,0,1,2.23-1.76,10.66,10.66,0,0,1,4.09-.66c.83,0,1.59,0,2.26.1a15.83,15.83,0,0,1,1.8.26V47l-.16.16q-.92-.16-2-.27a18,18,0,0,0-2.11-.11,10.44,10.44,0,0,0-2.62.25,2.48,2.48,0,0,0-1.33.77,2.21,2.21,0,0,0-.4,1.41v.29a2.05,2.05,0,0,0,.29,1.16,2.35,2.35,0,0,0,1.21.76,20.31,20.31,0,0,0,2.95.64,9.57,9.57,0,0,1,3.05.89,3.6,3.6,0,0,1,1.59,1.51,4.77,4.77,0,0,1,.44,2.17,5.51,5.51,0,0,1-.68,2.8,4.56,4.56,0,0,1-2.18,1.87,9.3,9.3,0,0,1-3.82.68c-1,0-2,0-2.8-.12a12.71,12.71,0,0,1-2-.3V59.34l.16-.16a24.61,24.61,0,0,0,4.63.48,9.21,9.21,0,0,0,2.61-.28,2.18,2.18,0,0,0,1.28-.9,3.17,3.17,0,0,0,.37-1.66v-.29a2.34,2.34,0,0,0-.3-1.25,2.45,2.45,0,0,0-1.25-.83,13.85,13.85,0,0,0-2.9-.61,10.7,10.7,0,0,1-3.1-.94,3.56,3.56,0,0,1-1.54-1.48,4.37,4.37,0,0,1-.44-2A4.79,4.79,0,0,1,149.3,46.88Z"/><path d="M164.55,48.32A5.89,5.89,0,0,1,167,45.41a7.44,7.44,0,0,1,3.84-.95,7.31,7.31,0,0,1,3.28.69,4.88,4.88,0,0,1,2.14,2,6.64,6.64,0,0,1,.76,3.27V53.3H165.76V51.44h8.77v-1.5a4.1,4.1,0,0,0-.35-1.84,2.1,2.1,0,0,0-1.17-1,6.18,6.18,0,0,0-2.19-.32h-.32a5,5,0,0,0-2.48.53A3.13,3.13,0,0,0,166.63,49a8.9,8.9,0,0,0-.45,3.16V55a6.51,6.51,0,0,0,.46,2.64,3.07,3.07,0,0,0,1.64,1.52,8.4,8.4,0,0,0,3.28.51,12.82,12.82,0,0,0,2.6-.25,19.11,19.11,0,0,0,2.13-.55l.13.1v2.11a8.31,8.31,0,0,1-2,.63,16.05,16.05,0,0,1-2.85.24,9.24,9.24,0,0,1-4.7-1,5.54,5.54,0,0,1-2.4-2.9,13.68,13.68,0,0,1-.7-4.73A12.76,12.76,0,0,1,164.55,48.32Z"/><path d="M182.43,44.75l.93,2.53V61.65H180.9V44.75Zm2.92.45a5.32,5.32,0,0,1,2.78-.7,4.58,4.58,0,0,1,1.41.22V46.9l-.13.12a9.3,9.3,0,0,0-1.09-.06,9.64,9.64,0,0,0-2.37.26,5.92,5.92,0,0,0-1.66.67A6.31,6.31,0,0,0,183,49l-.07-1.83h.58A4.94,4.94,0,0,1,185.35,45.2Z"/><path d="M193.54,44.75l3.26,9.83c.26.81.51,1.67.75,2.59s.49,1.83.72,2.75h.2c.21-.94.44-1.87.7-2.78s.51-1.78.77-2.56l3.26-9.83h2.43l.16.19-5.72,16.71h-3.4L191,44.94l.13-.19Z"/><path d="M208.72,38.69a.77.77,0,0,1,.4-.5,2.44,2.44,0,0,1,.9-.13,2.58,2.58,0,0,1,.91.13.71.71,0,0,1,.4.51,5.15,5.15,0,0,1,.1,1.12,4.92,4.92,0,0,1-.1,1.11.75.75,0,0,1-.4.51,2.16,2.16,0,0,1-.91.14,2.05,2.05,0,0,1-.9-.14.84.84,0,0,1-.4-.51,4.3,4.3,0,0,1-.11-1.11A4.37,4.37,0,0,1,208.72,38.69Zm2.55,6.06v16.9H208.8V44.75Z"/><path d="M216.13,48.26a6.09,6.09,0,0,1,2.73-2.87,9.49,9.49,0,0,1,4.37-.93,13.47,13.47,0,0,1,2.08.15,7.75,7.75,0,0,1,1.57.37v2.11l-.13.16a15,15,0,0,0-3.81-.51,6.81,6.81,0,0,0-3,.56,3.6,3.6,0,0,0-1.71,1.79,8.11,8.11,0,0,0-.58,3.41v1.37a9.45,9.45,0,0,0,.5,3.43,3.39,3.39,0,0,0,1.6,1.79,6.63,6.63,0,0,0,3,.57,12.19,12.19,0,0,0,2.39-.24,19.26,19.26,0,0,0,2.12-.53l.13.17v2.11a9.62,9.62,0,0,1-2,.56,15.22,15.22,0,0,1-2.69.21,8.3,8.3,0,0,1-4.29-1A5.79,5.79,0,0,1,216,58a12.79,12.79,0,0,1-.79-4.82A11.4,11.4,0,0,1,216.13,48.26Z"/><path d="M230.37,48.32a5.89,5.89,0,0,1,2.43-2.91,7.44,7.44,0,0,1,3.84-.95,7.31,7.31,0,0,1,3.28.69,4.88,4.88,0,0,1,2.14,2,6.64,6.64,0,0,1,.76,3.27V53.3H231.58V51.44h8.77v-1.5A4.1,4.1,0,0,0,240,48.1a2.1,2.1,0,0,0-1.17-1,6.18,6.18,0,0,0-2.19-.32h-.32a5,5,0,0,0-2.48.53A3.13,3.13,0,0,0,232.45,49a8.9,8.9,0,0,0-.45,3.16V55a6.51,6.51,0,0,0,.46,2.64,3.07,3.07,0,0,0,1.64,1.52,8.4,8.4,0,0,0,3.28.51,12.82,12.82,0,0,0,2.6-.25,19.11,19.11,0,0,0,2.13-.55l.13.1v2.11a8.31,8.31,0,0,1-2.05.63,16.05,16.05,0,0,1-2.85.24,9.24,9.24,0,0,1-4.7-1,5.54,5.54,0,0,1-2.4-2.9,13.68,13.68,0,0,1-.7-4.73A12.76,12.76,0,0,1,230.37,48.32Z"/></svg>