<?xml version="1.0" encoding="utf-8"?>
<!-- Generator: Adobe Illustrator 26.0.1, SVG Export Plug-In . SVG Version: 6.00 Build 0)  -->
<svg version="1.1" id="Layer_1" xmlns="http://www.w3.org/2000/svg" xmlns:xlink="http://www.w3.org/1999/xlink" x="0px" y="0px"
	 viewBox="0 0 100 100" style="enable-background:new 0 0 100 100;" xml:space="preserve">
<path d="M8.5,59.8c0.8,0,1.7-0.1,2.4-0.4c0.6-0.2,1.2-0.8,1.4-1.4c0.3-0.8,0.5-1.8,0.5-2.7v-15h2.5v14.3c0.1,1.5-0.2,2.9-0.8,4.3
	c-0.4,1-1.2,1.9-2.2,2.4c-1.1,0.5-2.4,0.8-3.6,0.8c-0.7,0-1.3,0-2-0.1c-0.6-0.1-1.1-0.2-1.5-0.2v-2.2l0.1-0.1
	C6.3,59.6,7.4,59.8,8.5,59.8z"/>
<path d="M20,48.5c0.5-1.2,1.5-2.2,2.6-2.9c1.1-0.6,2.4-1,3.7-0.9c1.3,0,2.6,0.3,3.7,0.9c1.2,0.7,2.1,1.7,2.6,2.9c0.7,1.6,1,3.2,1,5
	c0,1.6-0.3,3.2-0.9,4.7c-0.5,1.2-1.4,2.3-2.5,3c-2.4,1.4-5.3,1.4-7.7,0c-1.1-0.7-2-1.8-2.5-3c-0.7-1.5-1-3-1-4.7
	C19,51.7,19.3,50,20,48.5z M22,57.3c0.3,0.8,0.9,1.4,1.6,1.8c0.8,0.5,1.8,0.7,2.7,0.6c0.9,0,1.9-0.2,2.7-0.6
	c0.7-0.4,1.2-1.1,1.5-1.8c0.4-1,0.6-2,0.5-3.1v-1.8c0-1.1-0.1-2.1-0.5-3.1c-0.3-0.8-0.8-1.4-1.5-1.9c-0.8-0.4-1.8-0.7-2.7-0.6
	c-0.9,0-1.9,0.2-2.7,0.6c-0.7,0.4-1.3,1.1-1.6,1.9c-0.4,1-0.6,2.1-0.5,3.1v1.8C21.4,55.3,21.6,56.3,22,57.3z"/>
<path d="M37.5,37.9H40v5.7c0,1.3,0,2.5-0.1,3.7l0.1,0.6v11.3l-0.7,2.5h-1.8V37.9z M42.5,61.7c-0.6-0.2-1.1-0.5-1.6-0.9
	c-0.4-0.4-0.8-0.9-1-1.5h-0.2L39,58.7l1-1.6v1.2c0.5,0.5,1.1,0.8,1.8,1.1c0.9,0.3,1.8,0.5,2.7,0.4c0.9,0,1.8-0.2,2.6-0.6
	c0.7-0.5,1.2-1.1,1.5-1.9c0.4-1.1,0.5-2.2,0.5-3.3v-1.7c0-1.1-0.1-2.2-0.5-3.2c-0.2-0.7-0.8-1.3-1.4-1.6c-0.8-0.4-1.7-0.5-2.6-0.5
	c-0.9,0-1.7,0.1-2.6,0.4c-0.7,0.2-1.4,0.6-2,1.2l-0.3-1.2H40c0.5-0.8,1.2-1.5,2-2c2-1,4.3-0.9,6.3,0.2c1,0.7,1.8,1.6,2.3,2.7
	c0.6,1.5,0.9,3.1,0.9,4.8c0,1.7-0.2,3.4-0.8,5c-0.4,1.2-1.2,2.3-2.3,3c-1.1,0.7-2.3,1-3.6,1C44,62,43.2,61.9,42.5,61.7L42.5,61.7z"
	/>
<path d="M55.5,47c0.5-0.8,1.3-1.4,2.2-1.8c1.3-0.5,2.7-0.7,4.1-0.7c0.8,0,1.6,0,2.2,0.1c0.7,0.1,1.3,0.2,1.8,0.3v2.1l-0.2,0.2
	c-0.6-0.1-1.3-0.2-1.9-0.3c-0.7-0.1-1.4-0.1-2.1-0.1c-0.9,0-1.8,0-2.6,0.2c-0.5,0.1-1,0.4-1.3,0.8c-0.3,0.4-0.4,0.9-0.4,1.4v0.3
	c0,0.4,0.1,0.8,0.3,1.2c0.3,0.4,0.7,0.6,1.2,0.8c1,0.3,1.9,0.5,2.9,0.6c1.1,0.1,2.1,0.4,3.1,0.9c0.7,0.3,1.2,0.9,1.6,1.5
	c0.3,0.7,0.5,1.4,0.4,2.2c0,1-0.2,1.9-0.7,2.8c-0.5,0.8-1.2,1.5-2.1,1.9c-1.2,0.5-2.5,0.7-3.8,0.7c-1,0-2,0-2.8-0.1
	c-0.7-0.1-1.3-0.2-2-0.3v-2.2l0.2-0.2c1.5,0.3,3.1,0.5,4.6,0.5c0.9,0,1.8-0.1,2.6-0.3c0.5-0.1,1-0.5,1.3-0.9
	c0.3-0.5,0.4-1.1,0.4-1.7v-0.3c0-0.4-0.1-0.9-0.3-1.2c-0.3-0.4-0.8-0.7-1.2-0.8c-1-0.3-1.9-0.5-3-0.6c-1.1-0.2-2.1-0.5-3.1-1
	c-0.6-0.3-1.2-0.8-1.5-1.5c-0.3-0.6-0.5-1.3-0.4-2C54.8,48.6,55,47.8,55.5,47z"/>
</svg>
