<?xml version="1.0" encoding="utf-8"?>
<!-- Generator: Adobe Illustrator 25.4.8, SVG Export Plug-In . SVG Version: 6.00 Build 0)  -->
<svg version="1.1" id="Layer_1" xmlns="http://www.w3.org/2000/svg" xmlns:xlink="http://www.w3.org/1999/xlink" x="0px" y="0px"
	 viewBox="0 0 120 100" style="enable-background:new 0 0 120 100;" xml:space="preserve">
<style type="text/css">
	.st0{fill:none;stroke:#808080;stroke-width:4.0021;stroke-miterlimit:10;}
	.st1{fill:#92B4F3;}
	.st2{fill:#92B4F3;stroke:#92B4F3;stroke-width:8.6079;stroke-miterlimit:10;}
	.st3{fill:#4185F4;}
	.st4{fill:#FABB02;}
	.st5{fill:#35A752;}
	.st6{fill:#EA4033;}
	.st7{fill:#5186ED;}
	.st8{fill:#58A55D;}
	.st9{fill:#F2BD42;}
	.st10{fill:#D95040;}
	.st11{fill:none;stroke:#B3B3B3;stroke-width:6.3578;stroke-miterlimit:10;}
	.st12{fill:#1F2020;}
	.st13{fill:#3C3C3C;}
	.st14{fill:#282828;}
	.st15{fill:#ED6055;}
	.st16{fill:#65CC58;}
	.st17{fill:#F6BE4F;}
	.st18{fill:none;stroke:#FFFFFF;stroke-width:2.5007;stroke-miterlimit:10;}
	.st19{fill:#FFFFFF;stroke:#FFFFFF;stroke-width:0.6731;stroke-miterlimit:10;}
	.st20{fill:none;stroke:#FFFFFF;stroke-width:1.8166;stroke-miterlimit:10;}
	.st21{fill:none;stroke:#FFFFFF;stroke-width:2.126;stroke-miterlimit:10;}
	.st22{fill:#FFFFFF;stroke:#FFFFFF;stroke-width:2.126;stroke-miterlimit:10;}
	.st23{fill:none;stroke:#CCCCCC;stroke-width:2.0017;stroke-miterlimit:10;}
	.st24{fill:#FFFFFF;stroke:#FFFFFF;stroke-width:1.5157;stroke-miterlimit:10;}
	.st25{fill:#FFFFFF;stroke:#FFFFFF;stroke-width:1.3197;stroke-miterlimit:10;}
	.st26{fill:#478E99;}
	.st27{fill:none;stroke:#FFFFFF;stroke-width:0.5357;stroke-miterlimit:10;}
	.st28{fill:#FFFFFF;}
	.st29{fill:#9F50B6;}
	.st30{fill:url(#SVGID_1_);}
	.st31{fill:#FFFFFF;stroke:#FFFFFF;stroke-miterlimit:10;}
	.st32{fill:none;stroke:#000000;stroke-width:4.0769;stroke-linecap:round;stroke-linejoin:round;stroke-miterlimit:10;}
	.st33{fill:none;stroke:#000000;stroke-width:4.0769;stroke-miterlimit:10;}
	.st34{fill:#292A35;}
	.st35{fill:#87F4D3;}
	.st36{fill:#292A35;stroke:#87F4D3;stroke-width:0.6627;stroke-linejoin:round;stroke-miterlimit:110;}
	.st37{fill:#292A35;stroke:#87F4D3;stroke-width:0.6627;stroke-miterlimit:10;}
</style>
<g>
	<path d="M4.9,39.4c0.5-0.9,1.4-1.6,2.6-2.1c1.2-0.5,2.8-0.8,4.8-0.8c0.9,0,1.9,0,2.8,0.1s1.7,0.2,2.4,0.3v2.2l-0.2,0.1
		c-0.7-0.1-1.5-0.2-2.4-0.3c-0.9-0.1-1.8-0.1-2.7-0.1c-1.3,0-2.4,0.1-3.3,0.4c-0.8,0.2-1.4,0.6-1.8,1.1c-0.4,0.5-0.6,1.1-0.6,1.9
		v0.4c0,0.6,0.1,1,0.3,1.3c0.2,0.3,0.5,0.7,1,0.9c0.5,0.3,1.2,0.5,2.1,0.7l3.3,0.8c1.3,0.3,2.3,0.7,3.1,1.2c0.8,0.5,1.4,1.1,1.7,1.9
		c0.4,0.7,0.6,1.6,0.6,2.7c0,1.3-0.3,2.4-0.8,3.3c-0.5,0.9-1.4,1.7-2.6,2.2s-2.8,0.8-4.8,0.8c-1.3,0-2.5-0.1-3.6-0.2s-2-0.2-2.7-0.4
		v-2.2l0.1-0.1c2.1,0.4,4.1,0.6,6.1,0.6c1.4,0,2.5-0.1,3.4-0.4c0.8-0.2,1.4-0.6,1.8-1.1c0.4-0.5,0.6-1.3,0.6-2.2v-0.4
		c0-0.7-0.1-1.2-0.3-1.6c-0.2-0.4-0.6-0.8-1.2-1.1c-0.6-0.3-1.4-0.6-2.5-0.9l-3.3-0.8c-1.1-0.2-2-0.6-2.7-1s-1.2-1-1.5-1.7
		c-0.3-0.7-0.5-1.5-0.5-2.5C4.1,41.3,4.4,40.3,4.9,39.4z"/>
	<path d="M22.4,44.9c0.6-1.3,1.4-2.3,2.4-2.9c1.1-0.6,2.3-0.9,3.8-0.9c1.3,0,2.4,0.2,3.3,0.7c0.9,0.5,1.6,1.1,2.1,2
		c0.5,0.9,0.8,2,0.8,3.3v2.8H23.6V48h8.8v-1.5c0-0.8-0.1-1.4-0.4-1.8c-0.2-0.5-0.6-0.8-1.2-1c-0.5-0.2-1.3-0.3-2.2-0.3h-0.3
		c-1,0-1.9,0.2-2.5,0.5c-0.6,0.4-1.1,0.9-1.4,1.7c-0.3,0.8-0.4,1.8-0.4,3.2v2.8c0,1.1,0.2,2,0.5,2.6c0.3,0.7,0.9,1.2,1.6,1.5
		c0.8,0.3,1.9,0.5,3.3,0.5c0.9,0,1.8-0.1,2.6-0.3c0.8-0.2,1.5-0.4,2.1-0.5l0.1,0.1v2.1c-0.5,0.3-1.2,0.5-2,0.6
		c-0.8,0.2-1.8,0.2-2.8,0.2c-2,0-3.6-0.3-4.7-1c-1.1-0.7-1.9-1.6-2.4-2.9c-0.5-1.3-0.7-2.8-0.7-4.7C21.6,47.9,21.9,46.2,22.4,44.9z"
		/>
	<path d="M38.9,44.8c0.6-1.3,1.5-2.2,2.7-2.9c1.2-0.6,2.7-0.9,4.4-0.9c0.7,0,1.4,0,2.1,0.1c0.6,0.1,1.2,0.2,1.6,0.4v2.1l-0.1,0.2
		c-1.3-0.3-2.6-0.5-3.8-0.5c-1.3,0-2.3,0.2-3,0.6c-0.8,0.4-1.3,1-1.7,1.8c-0.4,0.8-0.6,2-0.6,3.4v1.4c0,1.5,0.2,2.6,0.5,3.4
		c0.3,0.8,0.9,1.4,1.6,1.8c0.7,0.4,1.7,0.6,3,0.6c0.8,0,1.6-0.1,2.4-0.2c0.8-0.2,1.5-0.3,2.1-0.5l0.1,0.2v2.1
		c-0.6,0.2-1.2,0.4-2,0.6c-0.8,0.1-1.7,0.2-2.7,0.2c-1.7,0-3.2-0.3-4.3-1c-1.1-0.7-1.9-1.6-2.4-2.9c-0.5-1.3-0.8-2.9-0.8-4.8
		C37.9,47.8,38.2,46.1,38.9,44.8z"/>
	<path d="M61.9,57.8c-0.9,0.5-1.9,0.7-3.1,0.7c-1.7,0-3-0.5-3.9-1.4c-0.9-0.9-1.4-2.4-1.4-4.4V41.3h2.5v12.1c0,1,0.3,1.8,0.8,2.2
		c0.5,0.4,1.4,0.7,2.7,0.7c0.8,0,1.7-0.2,2.5-0.5c0.8-0.3,1.5-0.7,2-1.3l0.4,1.2h-0.5C63.4,56.6,62.7,57.3,61.9,57.8z M64.5,58.2
		l-0.7-2.6V41.3h2.5v16.9H64.5z"/>
	<path d="M72.6,41.3l0.9,2.5v14.4h-2.5V41.3H72.6z M75.5,41.8c0.8-0.5,1.7-0.7,2.8-0.7c0.3,0,0.6,0,0.9,0.1c0.3,0.1,0.4,0.1,0.5,0.1
		v2.2l-0.1,0.1c-0.3,0-0.7-0.1-1.1-0.1c-0.9,0-1.7,0.1-2.4,0.3c-0.7,0.2-1.2,0.4-1.7,0.7c-0.4,0.3-0.9,0.7-1.3,1.1l-0.1-1.8h0.6
		C74.1,42.9,74.7,42.2,75.5,41.8z"/>
	<path d="M82.8,35.2c0.1-0.2,0.2-0.4,0.4-0.5c0.2-0.1,0.5-0.1,0.9-0.1c0.4,0,0.7,0,0.9,0.1c0.2,0.1,0.3,0.3,0.4,0.5
		c0.1,0.3,0.1,0.6,0.1,1.1s0,0.9-0.1,1.1c-0.1,0.2-0.2,0.4-0.4,0.5c-0.2,0.1-0.5,0.1-0.9,0.1c-0.4,0-0.7,0-0.9-0.1
		c-0.2-0.1-0.3-0.3-0.4-0.5c-0.1-0.2-0.1-0.6-0.1-1.1C82.7,35.9,82.7,35.5,82.8,35.2z M85.4,41.3v16.9h-2.5V41.3H85.4z"/>
	<path d="M98.9,41.3v2.1H88.6v-2.1H98.9z M97.8,58.4c-0.6,0.1-1.1,0.1-1.7,0.1c-1.2,0-2.2-0.2-2.9-0.7c-0.8-0.5-1.3-1.2-1.6-2
		c-0.3-0.9-0.5-2-0.5-3.3V37.8l1.5-0.8h1v16.1c0,0.8,0.1,1.5,0.2,1.9c0.1,0.4,0.4,0.7,0.8,0.9c0.4,0.2,1,0.3,1.8,0.3
		c1,0,1.9-0.1,2.7-0.2l0.1,0.1v2C98.8,58.2,98.4,58.3,97.8,58.4z"/>
	<path d="M103.1,41.3l3.7,8.8c0.3,0.7,0.6,1.5,0.9,2.4c0.3,0.9,0.6,1.9,0.9,2.9h0.7l0.4,2.8h-2.1l-6.9-16.7l0.1-0.2H103.1z
		 M107.9,57.1l-0.2-1.7h1c0.3-1,0.5-1.9,0.8-2.8c0.2-0.9,0.5-1.8,0.8-2.7l3.1-8.6h2.4l0.1,0.2l-8.4,23.9h-2.4l-0.1-0.1L107.9,57.1z"
		/>
</g>
</svg>
