<?xml version="1.0" encoding="utf-8"?>
<!-- Generator: Adobe Illustrator 25.4.8, SVG Export Plug-In . SVG Version: 6.00 Build 0)  -->
<svg version="1.1" xmlns="http://www.w3.org/2000/svg" xmlns:xlink="http://www.w3.org/1999/xlink" x="0px" y="0px"
	 viewBox="0 0 3456 2234" style="enable-background:new 0 0 3456 2234;" xml:space="preserve">
<style type="text/css">
	.st0{fill:url(#SVGID_1_);}
	.st1{fill:#292A35;}
	.st2{fill:#87F4D3;}
	.st3{fill:#292A35;stroke:#87F4D3;stroke-width:0.6291;stroke-linejoin:round;stroke-miterlimit:110;}
	.st4{fill:#292A35;stroke:#87F4D3;stroke-width:0.6291;stroke-miterlimit:10;}
	.st5{fill:#292A35;stroke:#87F4D3;stroke-width:2.126;stroke-linejoin:round;stroke-miterlimit:110;}
	.st6{fill:#292A35;stroke:#87F4D3;stroke-width:2.126;stroke-miterlimit:10;}
	.st7{fill:#FFFFFF;}
	.st8{fill:none;stroke:#292A35;stroke-width:4.252;stroke-miterlimit:10;}
	.st9{fill:none;stroke:#000000;stroke-width:5.6693;stroke-miterlimit:10;}
	.st10{fill:none;stroke:#000000;stroke-width:6.603;stroke-linecap:round;stroke-linejoin:round;stroke-miterlimit:10;}
	.st11{fill:none;stroke:#000000;stroke-width:3.9569;stroke-miterlimit:10;}
	.st12{fill:none;stroke:#000000;stroke-width:1.8372;stroke-miterlimit:10;}
	.st13{fill:none;stroke:#000000;stroke-width:4.252;stroke-linecap:round;stroke-linejoin:round;stroke-miterlimit:10;}
	.st14{fill:none;stroke:#000000;stroke-width:4.252;stroke-miterlimit:10;}
	.st15{fill:none;stroke:#292A35;stroke-width:11.3386;stroke-linecap:round;stroke-linejoin:round;stroke-miterlimit:10;}
	.st16{fill:#292A35;stroke:#87F4D3;stroke-width:5.1669;stroke-linejoin:round;stroke-miterlimit:110;}
	.st17{fill:#292A35;stroke:#87F4D3;stroke-width:5.1669;stroke-miterlimit:10;}
	.st18{fill:#292A35;stroke:#87F4D3;stroke-width:2.8129;stroke-linejoin:round;stroke-miterlimit:110;}
	.st19{fill:#292A35;stroke:#87F4D3;stroke-width:2.8129;stroke-miterlimit:10;}
	.st20{fill:#292A35;stroke:#87F4D3;stroke-width:0.604;stroke-linejoin:round;stroke-miterlimit:110;}
	.st21{fill:#292A35;stroke:#87F4D3;stroke-width:0.604;stroke-miterlimit:10;}
	.st22{fill:#292A35;stroke:#292A35;stroke-width:4.252;stroke-linecap:round;stroke-miterlimit:10;}
	.st23{fill:none;stroke:#FF0000;stroke-width:1.5258;stroke-linecap:round;stroke-linejoin:round;stroke-miterlimit:10;}
	.st24{fill:#FF0000;stroke:#FF0000;stroke-width:0.7087;stroke-linecap:round;stroke-linejoin:round;stroke-miterlimit:10;}
	.st25{fill:none;stroke:#FF0000;stroke-width:0.7087;stroke-linecap:round;stroke-linejoin:round;stroke-miterlimit:10;}
	.st26{fill:none;stroke:#FFFFFF;stroke-width:0.4396;stroke-linecap:round;stroke-linejoin:round;stroke-miterlimit:10;}
	.st27{fill:#87F4D3;stroke:#87F4D3;stroke-width:2.126;stroke-miterlimit:10;}
	.st28{fill:none;stroke:#FFFFFF;stroke-width:0.7058;stroke-linecap:round;stroke-linejoin:round;stroke-miterlimit:10;}
	.st29{fill:#343540;stroke:#87F4D3;stroke-width:2.126;stroke-miterlimit:10;}
	.st30{stroke:#FFFFFF;stroke-width:0.7058;stroke-linecap:round;stroke-linejoin:round;stroke-miterlimit:10;}
	.st31{fill:#292A35;stroke:#87F4D3;stroke-width:0.698;stroke-linejoin:round;stroke-miterlimit:110;}
	.st32{fill:#292A35;stroke:#87F4D3;stroke-width:0.698;stroke-miterlimit:10;}
	.st33{opacity:0.5;fill:#343540;}
	.st34{fill:#292A35;stroke:#FFFFFF;stroke-width:2.3229;stroke-linejoin:round;stroke-miterlimit:110;}
	.st35{fill:#292A35;stroke:#FFFFFF;stroke-width:2.3229;stroke-miterlimit:10;}
	.st36{fill:#31676D;}
	.st37{fill:none;stroke:#FFFFFF;stroke-width:2.8346;stroke-miterlimit:10;}
	.st38{display:none;fill:url(#SVGID_00000047748100952152943830000016466985001255117477_);}
	.st39{fill:#343540;}
	.st40{fill:#292A35;stroke:#87F4D3;stroke-width:0.4259;stroke-linejoin:round;stroke-miterlimit:110;}
	.st41{fill:#292A35;stroke:#87F4D3;stroke-width:0.4259;stroke-miterlimit:10;}
	.st42{fill:none;stroke:#FFFFFF;stroke-width:0.9664;stroke-miterlimit:10;}
	.st43{opacity:0.5;fill:#FFFFFF;}
	.st44{fill:none;stroke:#FFFFFF;stroke-width:4.252;stroke-linecap:round;stroke-linejoin:round;stroke-miterlimit:10;}
	.st45{fill:none;stroke:#FFFFFF;stroke-width:4.252;stroke-miterlimit:10;}
	.st46{fill:#FFFFFF;stroke:#FFFFFF;stroke-width:4.252;stroke-linecap:round;stroke-miterlimit:10;}
	.st47{fill:none;stroke:#87F4D3;stroke-width:8.5861;stroke-miterlimit:10;}
	.st48{fill:none;stroke:#87F4D3;stroke-width:4.7335;stroke-linecap:round;stroke-linejoin:round;stroke-miterlimit:10;}
	.st49{opacity:0.5;fill:#FFFFFF;stroke:#FFFFFF;stroke-width:5.6693;stroke-miterlimit:10;}
	.st50{fill:#343540;stroke:#343540;stroke-width:2.7624;stroke-linecap:round;stroke-linejoin:round;stroke-miterlimit:10;}
	.st51{fill:url(#);}
	.st52{fill:#343540;stroke:#FFFFFF;stroke-width:2.7624;stroke-linecap:round;stroke-linejoin:round;stroke-miterlimit:10;}
	.st53{fill:none;stroke:#000000;stroke-width:2.126;stroke-miterlimit:10;}
	.st54{fill:none;stroke:#000000;stroke-width:2.8346;stroke-linejoin:round;stroke-miterlimit:10;}
	.st55{fill:none;stroke:#000000;stroke-width:2.9713;stroke-linejoin:round;stroke-miterlimit:10;}
	.st56{display:none;}
	.st57{display:inline;}
	.st58{opacity:0.5;fill:#FFFFFF;stroke:#FFFFFF;stroke-width:4.1527;stroke-miterlimit:10;}
	.st59{fill:none;stroke:#FFFFFF;stroke-width:3.8425;stroke-miterlimit:10;}
</style>
<g id="Layer_1">
	<g>
		<g>
			<path d="M398.4,1019.4c4.4-9.4,11-16.3,19.9-20.9c8.8-4.6,19.6-6.8,32.4-6.8c6.3,0,12.1,0.3,17.3,1c5.2,0.6,9.6,1.3,13.3,2.1
				v16.7l-1.1,0.9c-9.6-2-18.9-3-27.9-3c-7.6,0-13.8,0.6-18.5,1.7c-4.8,1.1-8.6,3.1-11.7,5.9c-3.2,2.8-5.7,7.5-7.7,14.2
				c-2,6.6-2.9,14-2.9,21.9v7c0,8.6,1,16.3,3,23c2,6.7,4.6,11.3,7.6,13.9c3,2.7,7,4.5,12,5.5c4.9,1,10.3,1.5,16.1,1.5
				c5.1,0,10.8-0.4,17.2-1.3c6.4-0.9,11.7-2,16.1-3.2l1.1,1v16.1c-4.7,1.4-9.8,2.6-15.3,3.6c-5.5,1-12.4,1.5-20.8,1.5
				c-13.3,0-24.2-2.4-32.6-7.1c-8.4-4.8-14.5-12-18.3-21.8c-3.8-9.8-5.7-22.3-5.7-37.6C391.7,1040.7,393.9,1028.8,398.4,1019.4z"/>
			<path d="M515.6,1019.8l7.2,15.2v85.1h-18.4v-100.3H515.6z M534.2,1022.2c4.4-2.7,9.7-4.1,15.8-4.1c1.9,0,3.6,0.2,5.1,0.6
				s2.7,0.8,3.4,1.1v16.2l-1.1,1c-1.9,0-3.9,0-5.9,0c-5.8,0-10.7,0.4-14.6,1.2c-3.9,0.8-7.1,1.9-9.4,3.1c-2.3,1.3-4.7,2.9-7.1,4.9
				l-0.4-12h3.8C526.3,1028.9,529.8,1024.9,534.2,1022.2z"/>
			<path d="M575.9,1040.7c3.4-7.9,8.3-13.6,14.7-17.4c6.5-3.7,14.3-5.6,23.6-5.6c7.5,0,14,1.4,19.7,4.3c5.6,2.8,10,7.1,13.1,12.6
				c3.1,5.6,4.7,12.2,4.7,20v17.9h-64.8v-13.9h46.6v-8c0-3.9-0.6-7-1.7-9.2c-1.1-2.2-3.1-3.8-5.9-4.8c-2.8-1-6.7-1.4-11.8-1.4h-2.3
				c-6.1,0-10.7,0.9-13.9,2.6c-3.2,1.7-5.4,4.4-6.6,8.2c-1.3,3.7-1.9,9-1.9,15.9v22c0,5.3,0.9,9.5,2.7,12.4c1.8,3,4.8,5.1,9,6.5
				c4.2,1.3,10.2,2,17.8,2c5.7,0,11.1-0.4,16.2-1.3c5.1-0.9,9.2-2,12.5-3.2l0.9,0.8v16c-3.2,1.5-7.3,2.8-12.4,3.8
				c-5.1,1-11,1.5-17.6,1.5c-11.8,0-21.2-1.9-28.1-5.8c-7-3.9-11.9-9.5-14.9-17c-3-7.5-4.5-17.1-4.5-28.9
				C570.9,1058.5,572.6,1048.5,575.9,1040.7z"/>
			<path d="M677.9,1069.1c5.8-5.4,14.5-8.1,26.1-8.1c6,0,11.3,0.3,16,0.9c4.7,0.6,8.6,1.2,11.6,1.8h3l-0.2,11.6
				c-7.7,0-13.5,0-17.4,0c-3.9,0-9.7,0-17.4,0c-4.1,0-7.1,1-9,2.8c-2,1.9-2.9,4.6-2.9,8.2v6.3c0,4.4,1.2,7.6,3.6,9.4
				c2.4,1.8,6.6,2.8,12.7,2.8h2.7c5.2,0,10-0.6,14.4-1.7c4.4-1.1,8.1-2.6,11-4.4l3.2,7.2h-3.6c-1.6,5.6-5,9.7-10,12.3
				c-5,2.7-11.7,4-20,4c-10.3,0-18.2-2.8-23.9-8.3c-5.7-5.5-8.6-13.1-8.6-22.7C669.3,1081.8,672.2,1074.5,677.9,1069.1z
				 M687.2,1018.6c4.9-0.6,10-1,15.5-1c11.7,0,21,1.6,28,4.9c7,3.3,12.1,8.2,15.2,14.7c3.1,6.5,4.7,14.9,4.7,25v57.8h-12.7
				l-5.7-14.8v-50.7c0-5.2-1-9.1-3-11.9c-2-2.7-5.1-4.7-9.2-5.8c-4.1-1.1-9.5-1.7-16.2-1.7c-5.1,0-10.5,0.4-16.2,1.2
				c-5.8,0.8-9.9,1.6-12.3,2.2l-1-1v-16.5C678,1020.1,682.4,1019.3,687.2,1018.6z"/>
			<path d="M830.8,1019.8v15.8h-63.6v-15.8H830.8z M824,1121.4c-3.6,0.5-7.3,0.8-10.9,0.8c-7.3,0-13.4-1.6-18.1-4.7
				c-4.8-3.1-8.2-7.4-10.3-12.8c-2.1-5.4-3.1-11.9-3.1-19.4v-85.5l11.4-5.9h7v96.5c0,3.9,0.3,6.8,0.9,8.7c0.6,1.9,2,3.3,4.1,4.2
				c2.1,0.9,5.4,1.3,10,1.3c6.1,0,11.5-0.3,16.3-1l0.9,1v15C830.4,1120.3,827.7,1120.9,824,1121.4z"/>
			<path d="M849.6,983.2c0.5-1.6,1.5-2.7,2.9-3.2c1.4-0.6,3.7-0.9,6.8-0.9c3,0,5.3,0.3,6.6,0.9c1.4,0.6,2.3,1.6,2.9,3.2
				c0.5,1.6,0.8,4,0.8,7.1c0,3.2-0.3,5.5-0.8,7c-0.5,1.5-1.5,2.6-2.9,3.1c-1.4,0.6-3.6,0.9-6.6,0.9c-3.2,0-5.4-0.3-6.8-0.9
				c-1.4-0.6-2.3-1.6-2.9-3.1c-0.5-1.5-0.8-3.9-0.8-7C848.8,987.2,849.1,984.8,849.6,983.2z M868.4,1019.8v100.3H850v-100.3H868.4z"
				/>
			<path d="M907.4,1019.8l5.7,15.2v85.1h-18.4v-100.3H907.4z M924.6,1021.9c4.4-2.8,10.1-4.2,17.2-4.2c9.9,0,17.6,2.8,23.3,8.5
				c5.6,5.6,8.5,14.7,8.5,27.1v66.9H955v-72.4c0-2.9-0.5-5.2-1.5-6.9c-1-1.7-2.9-3.1-5.7-4.1c-2.8-1-6.8-1.5-12-1.5
				c-4.3,0-8.7,0.6-13.3,1.7c-4.6,1.1-8,2.7-10.3,4.6l-2.1-7.2h3.8C916.7,1028.8,920.2,1024.7,924.6,1021.9z"/>
			<path d="M1004.2,1157.1c-6.7-5.1-10-12.4-10-21.8c0-5.6,1.1-10,3.2-13.2c2.2-3.2,5.3-5.1,9.3-5.6l0.2-3.4l8.7,4.2
				c-1,1.6-1.7,3.7-2.2,6.1c-0.4,2.4-0.7,5-0.7,7.8v1.9c0,3.9,0.5,6.9,1.4,8.9c1,2,2.9,3.4,6,4.2c3,0.8,7.7,1.1,14.1,1.1h6.6
				c6.3,0,11.1-0.4,14.4-1.1c3.3-0.8,5.5-2.1,6.6-4c1.1-1.9,1.6-4.7,1.6-8.4v-4.2c0-3.5-0.6-6.1-1.9-7.5c-1.3-1.5-3.8-2.2-7.6-2.2
				h-27.6c-10.8,0-18.4-2-22.9-5.9c-4.5-3.9-6.7-9.6-6.7-17.1c0-4.1,0.9-7.5,2.8-10.4c1.8-2.8,4.3-4.7,7.5-5.6l0.8-1.9l7.8,5.3
				c-1,1.1-1.7,2.5-2.2,4c-0.4,1.5-0.7,3-0.7,4.4v1.9c0,3.2,0.8,5.6,2.4,7.2c1.6,1.6,4.2,2.5,7.9,2.5h29.1c9.5,0,16.9,2.3,22.1,6.8
				c5.3,4.6,7.9,11,7.9,19.2c0,7.6-1.6,14-4.8,19.1c-3.2,5.1-8,9-14.4,11.5c-6.4,2.5-14.5,3.8-24.4,3.8
				C1022.2,1164.7,1010.8,1162.2,1004.2,1157.1z M1013.9,1084.9c-5.4-2.8-9.6-6.9-12.4-12.1c-2.9-5.2-4.3-11.4-4.3-18.6
				c0-7.7,1.6-14.3,4.8-19.8c3.2-5.4,7.5-9.6,13-12.4c5.5-2.9,11.7-4.3,18.7-4.3c6.7,0,12.9,1.4,18.4,4.3c5.6,2.8,9.9,7,13.1,12.4
				c3.2,5.4,4.8,12,4.8,19.8c0,7.3-1.5,13.6-4.4,18.8c-2.9,5.2-7.1,9.2-12.5,12c-5.4,2.8-11.9,4.2-19.4,4.2
				C1026,1089.1,1019.4,1087.7,1013.9,1084.9z M1044.6,1071.7c2.6-0.9,4.4-2.4,5.4-4.4c1-2,1.5-4.5,1.5-7.7v-11.6
				c0-3.5-0.5-6.3-1.5-8.4c-1-2-2.9-3.5-5.5-4.6c-2.7-1-6.3-1.5-10.8-1.5c-4.8,0-8.6,0.5-11.2,1.5c-2.7,1-4.5,2.5-5.5,4.6
				c-1,2-1.5,4.8-1.5,8.4v11.6c0,3.2,0.5,5.7,1.5,7.7c1,2,2.9,3.4,5.5,4.4c2.7,1,6.4,1.4,11.2,1.4
				C1038.4,1073.2,1042,1072.7,1044.6,1071.7z M1040.9,1019.8h41.2v13.7l-17.3,2.1L1040.9,1019.8z"/>
			<path d="M1155.9,1019.8l5.7,15.2v85.1h-18.4v-100.3H1155.9z M1173.1,1021.9c4.4-2.8,10.1-4.2,17.2-4.2c9.9,0,17.6,2.8,23.3,8.5
				c5.6,5.6,8.5,14.7,8.5,27.1v66.9h-18.4v-72.4c0-2.9-0.5-5.2-1.5-6.9c-1-1.7-2.9-3.1-5.7-4.1c-2.8-1-6.8-1.5-12-1.5
				c-4.3,0-8.7,0.6-13.3,1.7c-4.6,1.1-8,2.7-10.3,4.6l-2.1-7.2h3.8C1165.2,1028.8,1168.7,1024.7,1173.1,1021.9z"/>
			<path d="M1246.6,1040.7c3.4-7.9,8.3-13.6,14.7-17.4c6.5-3.7,14.3-5.6,23.6-5.6c7.5,0,14,1.4,19.7,4.3c5.6,2.8,10,7.1,13.1,12.6
				c3.1,5.6,4.7,12.2,4.7,20v17.9h-64.8v-13.9h46.6v-8c0-3.9-0.6-7-1.7-9.2c-1.1-2.2-3.1-3.8-5.9-4.8c-2.8-1-6.7-1.4-11.8-1.4h-2.3
				c-6.1,0-10.7,0.9-13.9,2.6c-3.2,1.7-5.4,4.4-6.6,8.2c-1.3,3.7-1.9,9-1.9,15.9v22c0,5.3,0.9,9.5,2.7,12.4c1.8,3,4.8,5.1,9,6.5
				c4.2,1.3,10.2,2,17.8,2c5.7,0,11.1-0.4,16.2-1.3c5.1-0.9,9.2-2,12.5-3.2l0.9,0.8v16c-3.2,1.5-7.3,2.8-12.4,3.8
				c-5.1,1-11,1.5-17.6,1.5c-11.8,0-21.2-1.9-28.1-5.8c-7-3.9-11.9-9.5-14.9-17c-3-7.5-4.5-17.1-4.5-28.9
				C1241.6,1058.5,1243.2,1048.5,1246.6,1040.7z"/>
			<path d="M1353.3,1019.8l13.7,61.4c1.5,7.5,2.9,15.5,4,24.1h1.7c0.5-3.9,1.1-8.1,1.8-12.5c0.7-4.4,1.4-8,2-10.8l14.8-62.1h23.9
				l14.8,62.1c0.6,2.7,1.2,6.2,1.8,10.6c0.6,4.4,1.2,8.7,2,12.7h1.5c0.8-4.2,1.5-8.4,2.3-12.7c0.8-4.3,1.4-8,1.9-11.2l13.5-61.6
				h17.7l1.1,1.3l-23.8,99h-25.6l-14.4-60.2c-0.6-2.9-1.4-6.9-2.3-12.1c-0.9-5.1-1.5-9.6-1.9-13.4h-1.1c-0.6,3.9-1.4,8.4-2.2,13.5
				c-0.8,5.1-1.5,9.1-2,12l-14.4,60.2h-25.6l-23.9-99l1.1-1.3H1353.3z"/>
			<path d="M397.1,1269.2c4-7.9,9.3-13.8,16.1-17.7c6.7-3.9,14.1-5.8,22-5.8s15.4,1.9,22.1,5.8c6.8,3.9,12.1,9.8,16.1,17.7
				c3.9,7.9,5.9,17.7,5.9,29.4c0,10.6-1.8,19.9-5.5,27.6c-3.7,7.8-8.8,13.7-15.4,17.9c-6.6,4.1-14.3,6.2-23.2,6.2
				c-8.7,0-16.4-2.1-23.1-6.2s-11.8-10.1-15.5-17.9c-3.7-7.8-5.5-17-5.5-27.6C391.1,1286.9,393.1,1277.1,397.1,1269.2z
				 M412.2,1320.5c1.6,4.1,4.3,7.1,8,9.1c3.7,2,8.7,3,15,3c6.3,0,11.3-1,15-3c3.7-2,6.3-5.1,8-9.2c1.6-4.1,2.5-9.4,2.5-15.9v-13.1
				c0-6.5-0.9-11.8-2.6-16s-4.4-7.3-8.1-9.3c-3.7-2-8.6-3-14.8-3c-6.2,0-11.1,1-14.8,3c-3.7,2-6.4,5.1-8.1,9.3s-2.6,9.5-2.6,16v13.1
				C409.8,1311.2,410.6,1316.5,412.2,1320.5z"/>
			<path d="M513.5,1247.8l5.5,15.2v65.5l-1.9,7.2c0.5,2.5,0.9,5.7,1.3,9.4c0.4,3.7,0.6,7.3,0.6,10.7v34.8h-18.4v-142.9H513.5z
				 M528.3,1346.8c-3.9-2.3-7.2-5.8-9.9-10.6c0-0.1-0.2-0.4-0.6-0.8l-0.8,0.4l-5.1-5.5l7-11v8.4c2.2,1.3,5.2,2.4,9.2,3.5
				c4,1.1,8.6,1.6,14,1.6c6.2,0,11.1-1,14.6-2.9c3.5-1.9,6.1-5,7.7-9.2c1.6-4.2,2.4-10.2,2.4-17.8v-13.1c0-7.3-0.8-12.9-2.3-16.7
				s-4-6.4-7.3-7.8c-3.4-1.4-8.1-2.1-14.2-2.1c-4.6,0-9.3,0.6-14.2,1.7c-4.9,1.1-8.5,2.5-10.7,4.2l-1.9-6.8h3.2
				c2.8-5.3,6.4-9.4,10.7-12.3c4.4-2.9,10.3-4.3,17.8-4.3c6.5,0,12.6,1.7,18.3,5.2c5.8,3.5,10.4,9,13.9,16.5
				c3.5,7.5,5.2,17.1,5.2,28.8c0,11.9-1.6,21.9-4.8,30c-3.2,8.1-7.9,14.1-13.9,18c-6,3.9-13,5.9-21,5.9
				C538.1,1350.2,532.2,1349,528.3,1346.8z"/>
			<path d="M619.9,1247.8l5.5,15.2v65.5l-1.9,7.2c0.5,2.5,0.9,5.7,1.3,9.4c0.4,3.7,0.6,7.3,0.6,10.7v34.8H607v-142.9H619.9z
				 M634.7,1346.8c-3.9-2.3-7.2-5.8-9.9-10.6c0-0.1-0.2-0.4-0.6-0.8l-0.8,0.4l-5.1-5.5l7-11v8.4c2.2,1.3,5.2,2.4,9.2,3.5
				c4,1.1,8.6,1.6,14,1.6c6.2,0,11.1-1,14.6-2.9c3.5-1.9,6.1-5,7.7-9.2c1.6-4.2,2.4-10.2,2.4-17.8v-13.1c0-7.3-0.8-12.9-2.3-16.7
				s-4-6.4-7.3-7.8c-3.4-1.4-8.1-2.1-14.2-2.1c-4.6,0-9.3,0.6-14.2,1.7c-4.9,1.1-8.5,2.5-10.7,4.2l-1.9-6.8h3.2
				c2.8-5.3,6.4-9.4,10.7-12.3c4.4-2.9,10.3-4.3,17.8-4.3c6.5,0,12.6,1.7,18.3,5.2c5.8,3.5,10.4,9,13.9,16.5
				c3.5,7.5,5.2,17.1,5.2,28.8c0,11.9-1.6,21.9-4.8,30c-3.2,8.1-7.9,14.1-13.9,18c-6,3.9-13,5.9-21,5.9
				C644.5,1350.2,638.6,1349,634.7,1346.8z"/>
			<path d="M714.4,1269.2c4-7.9,9.3-13.8,16.1-17.7c6.7-3.9,14.1-5.8,22-5.8s15.4,1.9,22.1,5.8c6.8,3.9,12.1,9.8,16.1,17.7
				c3.9,7.9,5.9,17.7,5.9,29.4c0,10.6-1.8,19.9-5.5,27.6c-3.7,7.8-8.8,13.7-15.4,17.9c-6.6,4.1-14.3,6.2-23.2,6.2
				c-8.7,0-16.4-2.1-23.1-6.2s-11.8-10.1-15.5-17.9c-3.7-7.8-5.5-17-5.5-27.6C708.4,1286.9,710.4,1277.1,714.4,1269.2z
				 M729.5,1320.5c1.6,4.1,4.3,7.1,8,9.1c3.7,2,8.7,3,15,3c6.3,0,11.3-1,15-3c3.7-2,6.3-5.1,8-9.2c1.6-4.1,2.5-9.4,2.5-15.9v-13.1
				c0-6.5-0.9-11.8-2.6-16s-4.4-7.3-8.1-9.3c-3.7-2-8.6-3-14.8-3c-6.2,0-11.1,1-14.8,3c-3.7,2-6.4,5.1-8.1,9.3s-2.6,9.5-2.6,16v13.1
				C727.1,1311.2,727.9,1316.5,729.5,1320.5z"/>
			<path d="M829.1,1247.8l7.2,15.2v85.1h-18.4v-100.3H829.1z M847.7,1250.2c4.4-2.7,9.7-4.1,15.8-4.1c1.9,0,3.6,0.2,5.1,0.6
				s2.7,0.8,3.4,1.1v16.2l-1.1,1c-1.9,0-3.9,0-5.9,0c-5.8,0-10.7,0.4-14.6,1.2c-3.9,0.8-7.1,1.9-9.4,3.1c-2.3,1.3-4.7,2.9-7.1,4.9
				l-0.4-12h3.8C839.8,1256.9,843.3,1252.9,847.7,1250.2z"/>
			<path d="M944.8,1247.8v15.8h-63.6v-15.8H944.8z M938,1349.4c-3.6,0.5-7.3,0.8-10.9,0.8c-7.3,0-13.4-1.6-18.1-4.7
				c-4.8-3.1-8.2-7.4-10.3-12.8c-2.1-5.4-3.1-11.9-3.1-19.4v-85.5l11.4-5.9h7v96.5c0,3.9,0.3,6.8,0.9,8.7c0.6,1.9,2,3.3,4.1,4.2
				c2.1,0.9,5.4,1.3,10,1.3c6.1,0,11.5-0.3,16.3-1l0.9,1v15C944.4,1348.3,941.7,1348.9,938,1349.4z"/>
			<path d="M1012.8,1346.1c-4.7,2.7-10.6,4.1-17.7,4.1c-10.4,0-18.5-3-24.2-9c-5.8-6-8.6-15.4-8.6-28v-65.4h18.4v71.2
				c0,5.2,1.4,8.8,4.2,10.7c2.8,2,7.7,2.9,14.6,2.9c4.4,0,8.7-0.7,12.9-2s7.6-3.1,10.3-5.2l3.2,8.4h-3.4
				C1020.7,1339.3,1017.5,1343.4,1012.8,1346.1z M1028.4,1348.1l-5.7-15.6v-84.7h18.4v100.3H1028.4z"/>
			<path d="M1080.1,1247.8l5.7,15.2v85.1h-18.4v-100.3H1080.1z M1097.3,1249.9c4.4-2.8,10.1-4.2,17.2-4.2c9.9,0,17.6,2.8,23.3,8.5
				c5.6,5.6,8.5,14.7,8.5,27.1v66.9h-18.4v-72.4c0-2.9-0.5-5.2-1.5-6.9c-1-1.7-2.9-3.1-5.7-4.1c-2.8-1-6.8-1.5-12-1.5
				c-4.3,0-8.7,0.6-13.3,1.7c-4.6,1.1-8,2.7-10.3,4.6l-2.1-7.2h3.8C1089.4,1256.8,1092.9,1252.7,1097.3,1249.9z"/>
			<path d="M1170.3,1211.2c0.5-1.6,1.5-2.7,2.9-3.2c1.4-0.6,3.7-0.9,6.8-0.9c3,0,5.3,0.3,6.6,0.9c1.4,0.6,2.3,1.6,2.9,3.2
				c0.5,1.6,0.8,4,0.8,7.1c0,3.2-0.3,5.5-0.8,7c-0.5,1.5-1.5,2.6-2.9,3.1c-1.4,0.6-3.6,0.9-6.6,0.9c-3.2,0-5.4-0.3-6.8-0.9
				c-1.4-0.6-2.3-1.6-2.9-3.1c-0.5-1.5-0.8-3.9-0.8-7C1169.6,1215.2,1169.8,1212.8,1170.3,1211.2z M1189.1,1247.8v100.3h-18.4
				v-100.3H1189.1z"/>
			<path d="M1270.8,1247.8v15.8h-63.6v-15.8H1270.8z M1264.1,1349.4c-3.6,0.5-7.3,0.8-10.9,0.8c-7.3,0-13.4-1.6-18.1-4.7
				c-4.8-3.1-8.2-7.4-10.3-12.8c-2.1-5.4-3.1-11.9-3.1-19.4v-85.5l11.4-5.9h7v96.5c0,3.9,0.3,6.8,0.9,8.7c0.6,1.9,2,3.3,4.1,4.2
				c2.1,0.9,5.4,1.3,10,1.3c6.1,0,11.5-0.3,16.3-1l0.9,1v15C1270.4,1348.3,1267.7,1348.9,1264.1,1349.4z"/>
			<path d="M1289.6,1211.2c0.5-1.6,1.5-2.7,2.9-3.2c1.4-0.6,3.7-0.9,6.8-0.9c3,0,5.3,0.3,6.6,0.9c1.4,0.6,2.3,1.6,2.9,3.2
				c0.5,1.6,0.8,4,0.8,7.1c0,3.2-0.3,5.5-0.8,7c-0.5,1.5-1.5,2.6-2.9,3.1c-1.4,0.6-3.6,0.9-6.6,0.9c-3.2,0-5.4-0.3-6.8-0.9
				c-1.4-0.6-2.3-1.6-2.9-3.1c-0.5-1.5-0.8-3.9-0.8-7C1288.9,1215.2,1289.1,1212.8,1289.6,1211.2z M1308.4,1247.8v100.3H1290v-100.3
				H1308.4z"/>
			<path d="M1334.8,1268.7c3.4-7.9,8.3-13.6,14.7-17.4c6.5-3.7,14.3-5.6,23.6-5.6c7.5,0,14,1.4,19.7,4.3c5.6,2.8,10,7.1,13.1,12.6
				c3.1,5.6,4.7,12.2,4.7,20v17.9h-64.8v-13.9h46.6v-8c0-3.9-0.6-7-1.7-9.2c-1.1-2.2-3.1-3.8-5.9-4.8c-2.8-1-6.7-1.4-11.8-1.4h-2.3
				c-6.1,0-10.7,0.9-13.9,2.6c-3.2,1.7-5.4,4.4-6.6,8.2c-1.3,3.7-1.9,9-1.9,15.9v22c0,5.3,0.9,9.5,2.7,12.4c1.8,3,4.8,5.1,9,6.5
				c4.2,1.3,10.2,2,17.8,2c5.7,0,11.1-0.4,16.2-1.3c5.1-0.9,9.2-2,12.5-3.2l0.9,0.8v16c-3.2,1.5-7.3,2.8-12.4,3.8
				c-5.1,1-11,1.5-17.6,1.5c-11.8,0-21.2-1.9-28.1-5.8c-7-3.9-11.9-9.5-14.9-17c-3-7.5-4.5-17.1-4.5-28.9
				C1329.7,1286.5,1331.4,1276.5,1334.8,1268.7z"/>
			<path d="M1431.8,1260.9c2.7-4.6,7.3-8.2,13.8-11c6.5-2.8,14.9-4.2,25.5-4.2c5.3,0,9.9,0.2,13.7,0.7c3.8,0.4,7.4,1,10.8,1.6v16.1
				l-1.1,1c-3.8-0.5-7.8-1-12-1.3c-4.2-0.4-8.4-0.6-12.7-0.6c-6.3,0-11.1,0.3-14.4,0.9c-3.3,0.6-5.6,1.8-6.9,3.4
				c-1.3,1.6-2,4.1-2,7.2v1.7c0,2.7,0.5,4.7,1.5,6.2c1,1.5,3.3,2.7,6.7,3.8c3.5,1.1,9.1,2.2,17,3.3c7.5,1.1,13.4,3,17.8,5.5
				c4.4,2.5,7.4,5.6,9.1,9.1c1.7,3.5,2.6,7.9,2.6,12.9c0,6.3-1.4,12-4.1,16.9c-2.7,4.9-7.1,8.8-13.1,11.7c-6,2.8-13.9,4.3-23.7,4.3
				c-6.2,0-12-0.3-17.3-0.9c-5.3-0.6-9.4-1.2-12.3-1.8V1331l1.1-1c10.8,1.8,20.2,2.7,28.3,2.7c6.5,0,11.3-0.4,14.4-1.1
				c3.2-0.8,5.3-2.1,6.5-4c1.1-1.9,1.7-4.7,1.7-8.4v-2.5c0-2.5-0.5-4.6-1.5-6.1c-1-1.5-3.3-2.9-6.8-4.1c-3.5-1.2-9.2-2.3-16.9-3.3
				c-7.5-1.1-13.4-3-17.7-5.6c-4.3-2.6-7.4-5.7-9.2-9.3c-1.8-3.6-2.8-7.6-2.8-11.9C1427.8,1270.6,1429.1,1265.4,1431.8,1260.9z"/>
			<path d="M390.7,1468.9l6.8,24.8c0.6,2.1,1.5,7.2,2.9,15.3h0.7c1.1-6.3,2-10.5,2.5-12.6l7.8-27.5h3.5v7.4h-0.2l-0.8,4.6
				c-0.7,4.5-1.4,7.5-1.8,9l-7.4,25.7h-8.5l-12.6-46.3l0.4-0.5H390.7z M446.2,1469.4l-12.6,46.3h-8.5l-7.4-25.7
				c-0.4-1.5-1-4.5-1.8-9l-0.7-4.6H415v-7.4h3.4l7.8,27.5c0.6,2.1,1.5,6.3,2.6,12.6h0.6c0.4-2.3,0.9-4.6,1.3-6.9
				c0.2-1.7,0.5-3.2,0.8-4.7c0.3-1.4,0.6-2.7,0.8-3.6l6.8-24.8h6.7L446.2,1469.4z"/>
			<path d="M451.9,1486.4c1.2-2.9,3-5,5.4-6.4c2.4-1.4,5.3-2.1,8.7-2.1c2.8,0,5.2,0.5,7.2,1.6c2.1,1,3.7,2.6,4.8,4.7
				c1.1,2.1,1.7,4.5,1.7,7.3v6.6h-23.9v-5.1h17.1v-2.9c0-1.4-0.2-2.6-0.6-3.4s-1.1-1.4-2.2-1.8c-1-0.4-2.5-0.5-4.3-0.5h-0.8
				c-2.2,0-3.9,0.3-5.1,0.9c-1.2,0.6-2,1.6-2.5,3c-0.5,1.4-0.7,3.3-0.7,5.8v8.1c0,2,0.3,3.5,1,4.6c0.7,1.1,1.8,1.9,3.3,2.4
				c1.6,0.5,3.7,0.7,6.5,0.7c2.1,0,4.1-0.2,6-0.5c1.9-0.3,3.4-0.7,4.6-1.2l0.3,0.3v5.9c-1.2,0.6-2.7,1-4.6,1.4
				c-1.9,0.4-4,0.6-6.5,0.6c-4.3,0-7.8-0.7-10.4-2.1c-2.6-1.4-4.4-3.5-5.5-6.3c-1.1-2.8-1.6-6.3-1.6-10.6
				C450,1493,450.6,1489.3,451.9,1486.4z"/>
			<path d="M508.5,1514.4c-2.1-1.4-3.7-3.5-4.9-6.4s-1.8-6.4-1.8-10.5c0-4.4,0.7-8.1,2.1-11c1.4-2.9,3.2-5,5.6-6.4
				c2.3-1.4,5-2.1,8-2.1c1.7,0,3.2,0.1,4.5,0.4c1.3,0.3,2.7,0.7,4.2,1.3h1.3l-0.6,5.2c-1.5-0.2-3-0.3-4.5-0.4
				c-1.5-0.1-3-0.1-4.5-0.1c-2.5,0-4.3,0.3-5.6,0.9c-1.3,0.6-2.2,1.7-2.7,3.3c-0.5,1.6-0.8,3.8-0.8,6.8v4.9c0,2.6,0.3,4.5,0.8,6
				c0.5,1.4,1.4,2.4,2.5,3c1.2,0.6,2.8,0.9,5,0.9c2.1,0,3.9-0.2,5.4-0.7c1.5-0.4,2.8-1,4-1.7l1.2,2.8h-1.3c-0.7,2.1-1.9,3.6-3.7,4.5
				c-1.8,1-4.1,1.5-6.8,1.5C513.1,1516.5,510.6,1515.8,508.5,1514.4z M526.4,1509.9v-46.4h6.8v52.2h-4.7L526.4,1509.9z"/>
			<path d="M542.9,1486.4c1.2-2.9,3-5,5.4-6.4c2.4-1.4,5.3-2.1,8.7-2.1c2.8,0,5.2,0.5,7.2,1.6c2.1,1,3.7,2.6,4.8,4.7
				c1.1,2.1,1.7,4.5,1.7,7.3v6.6h-23.9v-5.1h17.1v-2.9c0-1.4-0.2-2.6-0.6-3.4s-1.1-1.4-2.2-1.8c-1-0.4-2.5-0.5-4.3-0.5h-0.8
				c-2.2,0-3.9,0.3-5.1,0.9c-1.2,0.6-2,1.6-2.5,3c-0.5,1.4-0.7,3.3-0.7,5.8v8.1c0,2,0.3,3.5,1,4.6c0.7,1.1,1.8,1.9,3.3,2.4
				c1.6,0.5,3.7,0.7,6.5,0.7c2.1,0,4.1-0.2,6-0.5c1.9-0.3,3.4-0.7,4.6-1.2l0.3,0.3v5.9c-1.2,0.6-2.7,1-4.6,1.4
				c-1.9,0.4-4,0.6-6.5,0.6c-4.3,0-7.8-0.7-10.4-2.1c-2.6-1.4-4.4-3.5-5.5-6.3c-1.1-2.8-1.6-6.3-1.6-10.6
				C541,1493,541.6,1489.3,542.9,1486.4z"/>
			<path d="M581.9,1478.7l6.6,20.9c0.4,1.4,0.8,3.1,1.4,5.4c0.5,2.2,1,4.3,1.3,6.1h0.5c0.3-1.9,0.7-3.9,1.3-6.1c0.6-2.2,1-4,1.4-5.4
				l6.6-20.9h6.7l0.4,0.5l-11.9,36.5h-9.3l-11.9-36.5l0.4-0.5H581.9z"/>
			<path d="M613.9,1486.4c1.2-2.9,3-5,5.4-6.4c2.4-1.4,5.3-2.1,8.7-2.1c2.8,0,5.2,0.5,7.2,1.6c2.1,1,3.7,2.6,4.8,4.7
				c1.1,2.1,1.7,4.5,1.7,7.3v6.6H618v-5.1h17.1v-2.9c0-1.4-0.2-2.6-0.6-3.4s-1.1-1.4-2.2-1.8c-1-0.4-2.5-0.5-4.3-0.5h-0.8
				c-2.2,0-3.9,0.3-5.1,0.9c-1.2,0.6-2,1.6-2.5,3c-0.5,1.4-0.7,3.3-0.7,5.8v8.1c0,2,0.3,3.5,1,4.6c0.7,1.1,1.8,1.9,3.3,2.4
				c1.6,0.5,3.7,0.7,6.5,0.7c2.1,0,4.1-0.2,6-0.5c1.9-0.3,3.4-0.7,4.6-1.2l0.3,0.3v5.9c-1.2,0.6-2.7,1-4.6,1.4
				c-1.9,0.4-4,0.6-6.5,0.6c-4.3,0-7.8-0.7-10.4-2.1c-2.6-1.4-4.4-3.5-5.5-6.3c-1.1-2.8-1.6-6.3-1.6-10.6
				C612.1,1493,612.7,1489.3,613.9,1486.4z"/>
			<path d="M656.4,1463.5v52.2h-6.8v-52.2H656.4z"/>
			<path d="M666.4,1486.6c1.5-2.9,3.4-5.1,5.9-6.5c2.5-1.4,5.2-2.1,8.1-2.1s5.7,0.7,8.2,2.1c2.5,1.4,4.5,3.6,5.9,6.5
				c1.4,2.9,2.2,6.5,2.2,10.8c0,3.9-0.7,7.3-2,10.2c-1.4,2.9-3.2,5.1-5.7,6.6c-2.4,1.5-5.3,2.3-8.5,2.3c-3.2,0-6.1-0.8-8.5-2.3
				c-2.5-1.5-4.4-3.7-5.7-6.6c-1.4-2.9-2-6.3-2-10.2C664.2,1493.1,665,1489.5,666.4,1486.6z M672,1505.5c0.6,1.5,1.6,2.6,2.9,3.4
				c1.4,0.7,3.2,1.1,5.5,1.1c2.3,0,4.2-0.4,5.5-1.1c1.4-0.7,2.3-1.9,2.9-3.4c0.6-1.5,0.9-3.5,0.9-5.8v-4.8c0-2.4-0.3-4.3-0.9-5.9
				s-1.6-2.7-3-3.4c-1.4-0.7-3.2-1.1-5.5-1.1c-2.3,0-4.1,0.4-5.5,1.1c-1.4,0.7-2.3,1.9-3,3.4s-0.9,3.5-0.9,5.9v4.8
				C671.1,1502.1,671.4,1504.1,672,1505.5z"/>
			<path d="M709.3,1478.7l2,5.6v24.2l-0.7,2.7c0.2,0.9,0.4,2.1,0.5,3.5c0.1,1.4,0.2,2.7,0.2,4v12.8h-6.8v-52.6H709.3z M714.8,1515.2
				c-1.4-0.8-2.7-2.1-3.6-3.9c0,0-0.1-0.1-0.2-0.3l-0.3,0.1l-1.9-2l2.6-4.1v3.1c0.8,0.5,1.9,0.9,3.4,1.3c1.5,0.4,3.2,0.6,5.1,0.6
				c2.3,0,4.1-0.3,5.4-1c1.3-0.7,2.3-1.8,2.8-3.4c0.6-1.6,0.9-3.7,0.9-6.5v-4.8c0-2.7-0.3-4.8-0.8-6.2c-0.6-1.4-1.5-2.4-2.7-2.9
				c-1.2-0.5-3-0.8-5.2-0.8c-1.7,0-3.4,0.2-5.2,0.6c-1.8,0.4-3.1,0.9-4,1.5l-0.7-2.5h1.2c1-2,2.3-3.5,4-4.5c1.6-1,3.8-1.6,6.5-1.6
				c2.4,0,4.6,0.6,6.8,1.9c2.1,1.3,3.8,3.3,5.1,6.1c1.3,2.8,1.9,6.3,1.9,10.6c0,4.4-0.6,8.1-1.8,11.1c-1.2,3-2.9,5.2-5.1,6.6
				c-2.2,1.4-4.8,2.2-7.7,2.2C718.4,1516.5,716.2,1516,714.8,1515.2z"/>
			<path d="M764.5,1478.7l2.1,5.6v31.4h-6.8v-37H764.5z M770.9,1479.5c1.6-1,3.7-1.5,6.3-1.5c3.6,0,6.5,1,8.6,3.1
				c2.1,2.1,3.1,5.4,3.1,10v24.6h-6.8V1489c0-1.1-0.2-1.9-0.6-2.6c-0.4-0.6-1.1-1.1-2.1-1.5c-1-0.4-2.5-0.6-4.4-0.6
				c-1.6,0-3.2,0.2-4.9,0.6c-1.7,0.4-2.9,1-3.8,1.7l-0.8-2.7h1.4C768,1482.1,769.3,1480.5,770.9,1479.5z"/>
			<path d="M798,1486.4c1.2-2.9,3-5,5.4-6.4c2.4-1.4,5.3-2.1,8.7-2.1c2.8,0,5.2,0.5,7.2,1.6c2.1,1,3.7,2.6,4.8,4.7
				c1.1,2.1,1.7,4.5,1.7,7.3v6.6H802v-5.1h17.1v-2.9c0-1.4-0.2-2.6-0.6-3.4s-1.1-1.4-2.2-1.8c-1-0.4-2.5-0.5-4.3-0.5h-0.8
				c-2.2,0-3.9,0.3-5.1,0.9c-1.2,0.6-2,1.6-2.5,3c-0.5,1.4-0.7,3.3-0.7,5.8v8.1c0,2,0.3,3.5,1,4.6c0.7,1.1,1.8,1.9,3.3,2.4
				c1.6,0.5,3.7,0.7,6.5,0.7c2.1,0,4.1-0.2,6-0.5c1.9-0.3,3.4-0.7,4.6-1.2l0.3,0.3v5.9c-1.2,0.6-2.7,1-4.6,1.4
				c-1.9,0.4-4,0.6-6.5,0.6c-4.3,0-7.8-0.7-10.4-2.1c-2.6-1.4-4.4-3.5-5.5-6.3c-1.1-2.8-1.6-6.3-1.6-10.6
				C796.1,1493,796.7,1489.3,798,1486.4z"/>
			<path d="M830.3,1515.2l11.8-18.5l-11.2-17.4l0.4-0.5h7.1l5.5,9.2c0.7,1.4,1.5,2.8,2.3,4.2h0.3c0.7-1.4,1.5-2.8,2.2-4.2l5.5-9.2
				h7.2l0.4,0.5l-11.3,17.4l11.9,18.5l-0.4,0.5h-7.1l-5.2-8.8c-1.3-2-2.4-3.9-3.1-5.7h-0.3c-1.1,2.3-2.1,4.2-3.1,5.7l-5.2,8.8h-7.1
				L830.3,1515.2z"/>
			<path d="M889.1,1478.7v5.8h-23.5v-5.8H889.1z M886.6,1516.2c-1.3,0.2-2.7,0.3-4,0.3c-2.7,0-4.9-0.6-6.7-1.7
				c-1.8-1.1-3-2.7-3.8-4.7c-0.8-2-1.2-4.4-1.2-7.1v-31.5l4.2-2.2h2.6v35.6c0,1.4,0.1,2.5,0.3,3.2c0.2,0.7,0.7,1.2,1.5,1.5
				c0.8,0.3,2,0.5,3.7,0.5c2.2,0,4.2-0.1,6-0.3l0.4,0.3v5.5C888.9,1515.8,887.9,1516,886.6,1516.2z"/>
			<path d="M914.5,1529.3c-2.5-1.9-3.7-4.6-3.7-8c0-2.1,0.4-3.7,1.2-4.9c0.8-1.2,1.9-1.9,3.4-2.1l0.1-1.3l3.2,1.5
				c-0.4,0.6-0.6,1.4-0.8,2.2c-0.2,0.9-0.2,1.8-0.2,2.9v0.7c0,1.4,0.2,2.5,0.5,3.3c0.4,0.7,1.1,1.3,2.2,1.5s2.8,0.4,5.2,0.4h2.4
				c2.3,0,4.1-0.1,5.3-0.4c1.2-0.3,2-0.8,2.4-1.5c0.4-0.7,0.6-1.7,0.6-3.1v-1.5c0-1.3-0.2-2.2-0.7-2.8c-0.5-0.5-1.4-0.8-2.8-0.8
				h-10.1c-4,0-6.8-0.7-8.4-2.2c-1.7-1.4-2.5-3.5-2.5-6.3c0-1.5,0.3-2.8,1-3.8c0.7-1,1.6-1.7,2.8-2.1l0.3-0.7l2.9,2
				c-0.4,0.4-0.6,0.9-0.8,1.5c-0.2,0.6-0.2,1.1-0.2,1.6v0.7c0,1.2,0.3,2.1,0.9,2.7c0.6,0.6,1.6,0.9,2.9,0.9h10.7
				c3.5,0,6.2,0.8,8.2,2.5c1.9,1.7,2.9,4,2.9,7.1c0,2.8-0.6,5.1-1.8,7c-1.2,1.9-3,3.3-5.3,4.2c-2.4,0.9-5.4,1.4-9,1.4
				C921.2,1532.1,917,1531.2,914.5,1529.3z M918.1,1502.7c-2-1-3.5-2.5-4.6-4.4c-1-1.9-1.6-4.2-1.6-6.9c0-2.8,0.6-5.3,1.8-7.3
				c1.2-2,2.8-3.5,4.8-4.6c2-1,4.3-1.6,6.9-1.6c2.5,0,4.7,0.5,6.8,1.6c2.1,1,3.7,2.6,4.8,4.6c1.2,2,1.8,4.4,1.8,7.3
				c0,2.7-0.5,5-1.6,6.9c-1.1,1.9-2.6,3.4-4.6,4.4c-2,1-4.4,1.5-7.1,1.5C922.5,1504.3,920.1,1503.8,918.1,1502.7z M929.4,1497.9
				c1-0.3,1.6-0.9,2-1.6c0.4-0.7,0.6-1.7,0.6-2.8v-4.3c0-1.3-0.2-2.3-0.6-3.1c-0.4-0.7-1-1.3-2-1.7c-1-0.4-2.3-0.6-4-0.6
				c-1.8,0-3.2,0.2-4.1,0.6c-1,0.4-1.7,0.9-2,1.7c-0.4,0.7-0.6,1.8-0.6,3.1v4.3c0,1.2,0.2,2.1,0.6,2.8c0.4,0.7,1,1.3,2,1.6
				c1,0.4,2.4,0.5,4.1,0.5C927.1,1498.4,928.5,1498.2,929.4,1497.9z M928,1478.7h15.2v5l-6.4,0.8L928,1478.7z"/>
			<path d="M949.6,1486.4c1.2-2.9,3-5,5.4-6.4c2.4-1.4,5.3-2.1,8.7-2.1c2.8,0,5.2,0.5,7.2,1.6c2.1,1,3.7,2.6,4.8,4.7
				c1.1,2.1,1.7,4.5,1.7,7.3v6.6h-23.9v-5.1h17.1v-2.9c0-1.4-0.2-2.6-0.6-3.4s-1.1-1.4-2.2-1.8c-1-0.4-2.5-0.5-4.3-0.5h-0.8
				c-2.2,0-3.9,0.3-5.1,0.9c-1.2,0.6-2,1.6-2.5,3c-0.5,1.4-0.7,3.3-0.7,5.8v8.1c0,2,0.3,3.5,1,4.6c0.7,1.1,1.8,1.9,3.3,2.4
				c1.6,0.5,3.7,0.7,6.5,0.7c2.1,0,4.1-0.2,6-0.5c1.9-0.3,3.4-0.7,4.6-1.2l0.3,0.3v5.9c-1.2,0.6-2.7,1-4.6,1.4
				c-1.9,0.4-4,0.6-6.5,0.6c-4.3,0-7.8-0.7-10.4-2.1c-2.6-1.4-4.4-3.5-5.5-6.3c-1.1-2.8-1.6-6.3-1.6-10.6
				C947.8,1493,948.4,1489.3,949.6,1486.4z"/>
			<path d="M990,1478.7l2.1,5.6v31.4h-6.8v-37H990z M996.3,1479.5c1.6-1,3.7-1.5,6.3-1.5c3.6,0,6.5,1,8.6,3.1
				c2.1,2.1,3.1,5.4,3.1,10v24.6h-6.8V1489c0-1.1-0.2-1.9-0.6-2.6c-0.4-0.6-1.1-1.1-2.1-1.5c-1-0.4-2.5-0.6-4.4-0.6
				c-1.6,0-3.2,0.2-4.9,0.6c-1.7,0.4-2.9,1-3.8,1.7l-0.8-2.7h1.4C993.4,1482.1,994.7,1480.5,996.3,1479.5z"/>
			<path d="M1023.4,1486.4c1.2-2.9,3-5,5.4-6.4c2.4-1.4,5.3-2.1,8.7-2.1c2.8,0,5.2,0.5,7.2,1.6c2.1,1,3.7,2.6,4.8,4.7
				c1.1,2.1,1.7,4.5,1.7,7.3v6.6h-23.9v-5.1h17.1v-2.9c0-1.4-0.2-2.6-0.6-3.4s-1.1-1.4-2.2-1.8c-1-0.4-2.5-0.5-4.3-0.5h-0.8
				c-2.2,0-3.9,0.3-5.1,0.9c-1.2,0.6-2,1.6-2.5,3c-0.5,1.4-0.7,3.3-0.7,5.8v8.1c0,2,0.3,3.5,1,4.6c0.7,1.1,1.8,1.9,3.3,2.4
				c1.6,0.5,3.7,0.7,6.5,0.7c2.1,0,4.1-0.2,6-0.5c1.9-0.3,3.4-0.7,4.6-1.2l0.3,0.3v5.9c-1.2,0.6-2.7,1-4.6,1.4
				c-1.9,0.4-4,0.6-6.5,0.6c-4.3,0-7.8-0.7-10.4-2.1c-2.6-1.4-4.4-3.5-5.5-6.3c-1.1-2.8-1.6-6.3-1.6-10.6
				C1021.6,1493,1022.2,1489.3,1023.4,1486.4z"/>
			<path d="M1063.2,1478.7l2.7,5.6v31.4h-6.8v-37H1063.2z M1070.1,1479.6c1.6-1,3.6-1.5,5.8-1.5c0.7,0,1.3,0.1,1.9,0.2
				s1,0.3,1.3,0.4v6l-0.4,0.3c-0.7,0-1.4,0-2.2,0c-2.1,0-3.9,0.2-5.4,0.5c-1.4,0.3-2.6,0.7-3.5,1.2c-0.9,0.5-1.7,1.1-2.6,1.8
				l-0.1-4.4h1.4C1067.2,1482.1,1068.4,1480.6,1070.1,1479.6z"/>
			<path d="M1087.3,1496.9c2.1-2,5.3-3,9.6-3c2.2,0,4.2,0.1,5.9,0.3c1.7,0.2,3.2,0.4,4.3,0.7h1.1l-0.1,4.3c-2.8,0-5,0-6.4,0
				c-1.4,0-3.6,0-6.4,0c-1.5,0-2.6,0.3-3.3,1c-0.7,0.7-1.1,1.7-1.1,3v2.3c0,1.6,0.4,2.8,1.3,3.5c0.9,0.7,2.5,1,4.7,1h1
				c1.9,0,3.7-0.2,5.3-0.6c1.6-0.4,3-1,4.1-1.6l1.2,2.7h-1.3c-0.6,2.1-1.8,3.6-3.7,4.5c-1.8,1-4.3,1.5-7.4,1.5c-3.8,0-6.7-1-8.8-3
				c-2.1-2-3.2-4.8-3.2-8.4C1084.1,1501.6,1085.2,1498.9,1087.3,1496.9z M1090.8,1478.3c1.8-0.2,3.7-0.4,5.7-0.4
				c4.3,0,7.7,0.6,10.3,1.8c2.6,1.2,4.5,3,5.6,5.4c1.1,2.4,1.7,5.5,1.7,9.2v21.3h-4.7l-2.1-5.5v-18.7c0-1.9-0.4-3.4-1.1-4.4
				c-0.7-1-1.9-1.7-3.4-2.1c-1.5-0.4-3.5-0.6-6-0.6c-1.9,0-3.9,0.2-6,0.5c-2.1,0.3-3.6,0.6-4.5,0.8l-0.4-0.3v-6.1
				C1087.4,1478.9,1089,1478.6,1090.8,1478.3z"/>
			<path d="M1143.6,1478.7v5.8h-23.5v-5.8H1143.6z M1141.2,1516.2c-1.3,0.2-2.7,0.3-4,0.3c-2.7,0-4.9-0.6-6.7-1.7
				c-1.8-1.1-3-2.7-3.8-4.7c-0.8-2-1.2-4.4-1.2-7.1v-31.5l4.2-2.2h2.6v35.6c0,1.4,0.1,2.5,0.3,3.2c0.2,0.7,0.7,1.2,1.5,1.5
				c0.8,0.3,2,0.5,3.7,0.5c2.2,0,4.2-0.1,6-0.3l0.4,0.3v5.5C1143.5,1515.8,1142.5,1516,1141.2,1516.2z"/>
			<path d="M1150.6,1465.3c0.2-0.6,0.5-1,1.1-1.2c0.5-0.2,1.4-0.3,2.5-0.3c1.1,0,1.9,0.1,2.5,0.3c0.5,0.2,0.9,0.6,1,1.2
				c0.2,0.6,0.3,1.5,0.3,2.6c0,1.2-0.1,2-0.3,2.6c-0.2,0.6-0.5,0.9-1,1.2c-0.5,0.2-1.3,0.3-2.5,0.3c-1.2,0-2-0.1-2.5-0.3
				c-0.5-0.2-0.9-0.6-1.1-1.2c-0.2-0.6-0.3-1.4-0.3-2.6C1150.3,1466.7,1150.4,1465.8,1150.6,1465.3z M1157.5,1478.7v37h-6.8v-37
				H1157.5z"/>
			<path d="M1167.5,1486.6c1.5-2.9,3.4-5.1,5.9-6.5c2.5-1.4,5.2-2.1,8.1-2.1s5.7,0.7,8.2,2.1c2.5,1.4,4.5,3.6,5.9,6.5
				c1.4,2.9,2.2,6.5,2.2,10.8c0,3.9-0.7,7.3-2,10.2c-1.4,2.9-3.2,5.1-5.7,6.6c-2.4,1.5-5.3,2.3-8.5,2.3c-3.2,0-6.1-0.8-8.5-2.3
				c-2.5-1.5-4.4-3.7-5.7-6.6c-1.4-2.9-2-6.3-2-10.2C1165.3,1493.1,1166.1,1489.5,1167.5,1486.6z M1173.1,1505.5
				c0.6,1.5,1.6,2.6,2.9,3.4c1.4,0.7,3.2,1.1,5.5,1.1c2.3,0,4.2-0.4,5.5-1.1c1.4-0.7,2.3-1.9,2.9-3.4c0.6-1.5,0.9-3.5,0.9-5.8v-4.8
				c0-2.4-0.3-4.3-0.9-5.9s-1.6-2.7-3-3.4c-1.4-0.7-3.2-1.1-5.5-1.1c-2.3,0-4.1,0.4-5.5,1.1c-1.4,0.7-2.3,1.9-3,3.4
				s-0.9,3.5-0.9,5.9v4.8C1172.2,1502.1,1172.5,1504.1,1173.1,1505.5z"/>
			<path d="M1210.4,1478.7l2.1,5.6v31.4h-6.8v-37H1210.4z M1216.7,1479.5c1.6-1,3.7-1.5,6.3-1.5c3.6,0,6.5,1,8.6,3.1
				c2.1,2.1,3.1,5.4,3.1,10v24.6h-6.8V1489c0-1.1-0.2-1.9-0.6-2.6c-0.4-0.6-1.1-1.1-2.1-1.5c-1-0.4-2.5-0.6-4.4-0.6
				c-1.6,0-3.2,0.2-4.9,0.6c-1.7,0.4-2.9,1-3.8,1.7l-0.8-2.7h1.4C1213.8,1482.1,1215.1,1480.5,1216.7,1479.5z"/>
			<path d="M1280.3,1478.7v5.8h-23.5v-5.8H1280.3z M1277.8,1516.2c-1.3,0.2-2.7,0.3-4,0.3c-2.7,0-4.9-0.6-6.7-1.7
				c-1.8-1.1-3-2.7-3.8-4.7c-0.8-2-1.2-4.4-1.2-7.1v-31.5l4.2-2.2h2.6v35.6c0,1.4,0.1,2.5,0.3,3.2c0.2,0.7,0.7,1.2,1.5,1.5
				c0.8,0.3,2,0.5,3.7,0.5c2.2,0,4.2-0.1,6-0.3l0.4,0.3v5.5C1280.1,1515.8,1279.1,1516,1277.8,1516.2z"/>
			<path d="M1287.4,1486.4c1.2-2.9,3-5,5.4-6.4c2.4-1.4,5.3-2.1,8.7-2.1c2.8,0,5.2,0.5,7.2,1.6c2.1,1,3.7,2.6,4.8,4.7
				c1.1,2.1,1.7,4.5,1.7,7.3v6.6h-23.9v-5.1h17.1v-2.9c0-1.4-0.2-2.6-0.6-3.4s-1.1-1.4-2.2-1.8c-1-0.4-2.5-0.5-4.3-0.5h-0.8
				c-2.2,0-3.9,0.3-5.1,0.9c-1.2,0.6-2,1.6-2.5,3c-0.5,1.4-0.7,3.3-0.7,5.8v8.1c0,2,0.3,3.5,1,4.6c0.7,1.1,1.8,1.9,3.3,2.4
				c1.6,0.5,3.7,0.7,6.5,0.7c2.1,0,4.1-0.2,6-0.5c1.9-0.3,3.4-0.7,4.6-1.2l0.3,0.3v5.9c-1.2,0.6-2.7,1-4.6,1.4
				c-1.9,0.4-4,0.6-6.5,0.6c-4.3,0-7.8-0.7-10.4-2.1c-2.6-1.4-4.4-3.5-5.5-6.3c-1.1-2.8-1.6-6.3-1.6-10.6
				C1285.5,1493,1286.1,1489.3,1287.4,1486.4z"/>
			<path d="M1323.4,1486.3c1.4-2.8,3.5-4.9,6.2-6.3c2.7-1.4,6-2,9.8-2c1.6,0,3.1,0.1,4.5,0.3c1.4,0.2,2.6,0.5,3.4,0.8v6l-0.4,0.4
				c-2.8-0.7-5.6-1-8.4-1c-2.7,0-4.8,0.3-6.3,1c-1.5,0.7-2.5,1.8-3.1,3.3c-0.6,1.6-0.9,3.7-0.9,6.5v3.9c0,2.9,0.3,5.2,0.8,6.7
				c0.6,1.5,1.6,2.6,3,3.3c1.4,0.7,3.5,1,6.2,1c1.6,0,3.3-0.2,5.1-0.5c1.8-0.3,3.4-0.7,4.8-1l0.3,0.3v6c-1.2,0.5-2.7,0.9-4.4,1.2
				c-1.7,0.3-3.7,0.5-6.1,0.5c-3.9,0-7-0.7-9.5-2.2c-2.5-1.4-4.3-3.6-5.5-6.4c-1.2-2.8-1.8-6.4-1.8-10.6
				C1321.2,1492.8,1321.9,1489.1,1323.4,1486.3z"/>
			<path d="M1362.3,1463.5v52.2h-6.8v-52.2H1362.3z M1366.3,1479.5c1.7-1,3.9-1.6,6.5-1.6c3.6,0,6.5,1,8.6,3.1
				c2.1,2.1,3.1,5.4,3.1,10v24.6h-6.8V1489c0-1.1-0.2-1.9-0.6-2.6c-0.4-0.6-1.1-1.1-2.1-1.5c-1-0.4-2.5-0.6-4.4-0.6
				c-1.6,0-3.2,0.2-4.9,0.6c-1.7,0.4-2.9,1-3.8,1.7l-0.6-2.7h1.1C1363.3,1482.1,1364.6,1480.6,1366.3,1479.5z"/>
			<path d="M1398.2,1478.7l2.1,5.6v31.4h-6.8v-37H1398.2z M1404.6,1479.5c1.6-1,3.7-1.5,6.3-1.5c3.6,0,6.5,1,8.6,3.1
				c2.1,2.1,3.1,5.4,3.1,10v24.6h-6.8V1489c0-1.1-0.2-1.9-0.6-2.6c-0.4-0.6-1.1-1.1-2.1-1.5c-1-0.4-2.5-0.6-4.4-0.6
				c-1.6,0-3.2,0.2-4.9,0.6c-1.7,0.4-2.9,1-3.8,1.7l-0.8-2.7h1.4C1401.7,1482.1,1403,1480.5,1404.6,1479.5z"/>
			<path d="M1432,1486.6c1.5-2.9,3.4-5.1,5.9-6.5c2.5-1.4,5.2-2.1,8.1-2.1s5.7,0.7,8.2,2.1c2.5,1.4,4.5,3.6,5.9,6.5
				c1.4,2.9,2.2,6.5,2.2,10.8c0,3.9-0.7,7.3-2,10.2c-1.4,2.9-3.2,5.1-5.7,6.6c-2.4,1.5-5.3,2.3-8.5,2.3c-3.2,0-6.1-0.8-8.5-2.3
				c-2.5-1.5-4.4-3.7-5.7-6.6c-1.4-2.9-2-6.3-2-10.2C1429.8,1493.1,1430.5,1489.5,1432,1486.6z M1437.6,1505.5
				c0.6,1.5,1.6,2.6,2.9,3.4c1.4,0.7,3.2,1.1,5.5,1.1c2.3,0,4.2-0.4,5.5-1.1c1.4-0.7,2.3-1.9,2.9-3.4c0.6-1.5,0.9-3.5,0.9-5.8v-4.8
				c0-2.4-0.3-4.3-0.9-5.9s-1.6-2.7-3-3.4c-1.4-0.7-3.2-1.1-5.5-1.1c-2.3,0-4.1,0.4-5.5,1.1c-1.4,0.7-2.3,1.9-3,3.4
				s-0.9,3.5-0.9,5.9v4.8C1436.7,1502.1,1437,1504.1,1437.6,1505.5z"/>
			<path d="M1476.9,1463.5v52.2h-6.8v-52.2H1476.9z"/>
			<path d="M1487,1486.6c1.5-2.9,3.4-5.1,5.9-6.5c2.5-1.4,5.2-2.1,8.1-2.1s5.7,0.7,8.2,2.1c2.5,1.4,4.5,3.6,5.9,6.5
				c1.4,2.9,2.2,6.5,2.2,10.8c0,3.9-0.7,7.3-2,10.2c-1.4,2.9-3.2,5.1-5.7,6.6c-2.4,1.5-5.3,2.3-8.5,2.3c-3.2,0-6.1-0.8-8.5-2.3
				c-2.5-1.5-4.4-3.7-5.7-6.6c-1.4-2.9-2-6.3-2-10.2C1484.7,1493.1,1485.5,1489.5,1487,1486.6z M1492.5,1505.5
				c0.6,1.5,1.6,2.6,2.9,3.4c1.4,0.7,3.2,1.1,5.5,1.1c2.3,0,4.2-0.4,5.5-1.1c1.4-0.7,2.3-1.9,2.9-3.4c0.6-1.5,0.9-3.5,0.9-5.8v-4.8
				c0-2.4-0.3-4.3-0.9-5.9s-1.6-2.7-3-3.4c-1.4-0.7-3.2-1.1-5.5-1.1c-2.3,0-4.1,0.4-5.5,1.1c-1.4,0.7-2.3,1.9-3,3.4
				s-0.9,3.5-0.9,5.9v4.8C1491.6,1502.1,1491.9,1504.1,1492.5,1505.5z"/>
			<path d="M1527.3,1529.3c-2.5-1.9-3.7-4.6-3.7-8c0-2.1,0.4-3.7,1.2-4.9c0.8-1.2,1.9-1.9,3.4-2.1l0.1-1.3l3.2,1.5
				c-0.4,0.6-0.6,1.4-0.8,2.2c-0.2,0.9-0.2,1.8-0.2,2.9v0.7c0,1.4,0.2,2.5,0.5,3.3c0.4,0.7,1.1,1.3,2.2,1.5s2.8,0.4,5.2,0.4h2.4
				c2.3,0,4.1-0.1,5.3-0.4c1.2-0.3,2-0.8,2.4-1.5c0.4-0.7,0.6-1.7,0.6-3.1v-1.5c0-1.3-0.2-2.2-0.7-2.8c-0.5-0.5-1.4-0.8-2.8-0.8
				h-10.1c-4,0-6.8-0.7-8.4-2.2c-1.7-1.4-2.5-3.5-2.5-6.3c0-1.5,0.3-2.8,1-3.8c0.7-1,1.6-1.7,2.8-2.1l0.3-0.7l2.9,2
				c-0.4,0.4-0.6,0.9-0.8,1.5c-0.2,0.6-0.2,1.1-0.2,1.6v0.7c0,1.2,0.3,2.1,0.9,2.7c0.6,0.6,1.6,0.9,2.9,0.9h10.7
				c3.5,0,6.2,0.8,8.2,2.5c1.9,1.7,2.9,4,2.9,7.1c0,2.8-0.6,5.1-1.8,7c-1.2,1.9-3,3.3-5.3,4.2c-2.4,0.9-5.4,1.4-9,1.4
				C1534,1532.1,1529.8,1531.2,1527.3,1529.3z M1530.9,1502.7c-2-1-3.5-2.5-4.6-4.4c-1-1.9-1.6-4.2-1.6-6.9c0-2.8,0.6-5.3,1.8-7.3
				c1.2-2,2.8-3.5,4.8-4.6c2-1,4.3-1.6,6.9-1.6c2.5,0,4.7,0.5,6.8,1.6c2.1,1,3.7,2.6,4.8,4.6c1.2,2,1.8,4.4,1.8,7.3
				c0,2.7-0.5,5-1.6,6.9c-1.1,1.9-2.6,3.4-4.6,4.4c-2,1-4.4,1.5-7.1,1.5C1535.4,1504.3,1533,1503.8,1530.9,1502.7z M1542.3,1497.9
				c1-0.3,1.6-0.9,2-1.6c0.4-0.7,0.6-1.7,0.6-2.8v-4.3c0-1.3-0.2-2.3-0.6-3.1c-0.4-0.7-1-1.3-2-1.7c-1-0.4-2.3-0.6-4-0.6
				c-1.8,0-3.2,0.2-4.1,0.6c-1,0.4-1.7,0.9-2,1.7c-0.4,0.7-0.6,1.8-0.6,3.1v4.3c0,1.2,0.2,2.1,0.6,2.8c0.4,0.7,1,1.3,2,1.6
				c1,0.4,2.4,0.5,4.1,0.5C1540,1498.4,1541.3,1498.2,1542.3,1497.9z M1540.9,1478.7h15.2v5l-6.4,0.8L1540.9,1478.7z"/>
			<path d="M1565.7,1478.7l7.3,17.4c0.6,1.4,1.1,3.2,1.7,5.2c0.6,2.1,1.1,4.2,1.8,6.5h1.8l1.3,7.8h-6l-14.7-36.5l0.4-0.5H1565.7z
				 M1574.6,1512.7l-0.5-4.8h2.7c0.5-2,1-4,1.5-6.3c0.5-2.2,1.1-4.1,1.6-5.8l5.9-17.1h6.6l0.4,0.5l-17.8,52.1h-6.7l-0.3-0.3
				L1574.6,1512.7z"/>
			<path d="M1634.5,1478.7v5.8h-22.7v-5.8H1634.5z M1635.9,1469.1l-0.4,0.3c-1.6-0.2-3.1-0.3-4.5-0.3c-1.5,0-2.7,0.1-3.5,0.4
				c-0.9,0.3-1.5,0.7-1.9,1.3c-0.4,0.6-0.6,1.4-0.6,2.3v42.6h-6.9v-40c0-4.1,1-7.3,3.1-9.6s5.2-3.4,9.3-3.4c1.2,0,2.3,0.1,3.1,0.2
				c0.9,0.1,1.6,0.2,2.1,0.4V1469.1z"/>
			<path d="M1640.1,1486.6c1.5-2.9,3.4-5.1,5.9-6.5c2.5-1.4,5.2-2.1,8.1-2.1s5.7,0.7,8.2,2.1c2.5,1.4,4.5,3.6,5.9,6.5
				c1.4,2.9,2.2,6.5,2.2,10.8c0,3.9-0.7,7.3-2,10.2c-1.4,2.9-3.2,5.1-5.7,6.6c-2.4,1.5-5.3,2.3-8.5,2.3c-3.2,0-6.1-0.8-8.5-2.3
				c-2.5-1.5-4.4-3.7-5.7-6.6c-1.4-2.9-2-6.3-2-10.2C1637.9,1493.1,1638.6,1489.5,1640.1,1486.6z M1645.7,1505.5
				c0.6,1.5,1.6,2.6,2.9,3.4c1.4,0.7,3.2,1.1,5.5,1.1c2.3,0,4.2-0.4,5.5-1.1c1.4-0.7,2.3-1.9,2.9-3.4c0.6-1.5,0.9-3.5,0.9-5.8v-4.8
				c0-2.4-0.3-4.3-0.9-5.9s-1.6-2.7-3-3.4c-1.4-0.7-3.2-1.1-5.5-1.1c-2.3,0-4.1,0.4-5.5,1.1c-1.4,0.7-2.3,1.9-3,3.4
				s-0.9,3.5-0.9,5.9v4.8C1644.8,1502.1,1645.1,1504.1,1645.7,1505.5z"/>
			<path d="M1682.4,1478.7l2.7,5.6v31.4h-6.8v-37H1682.4z M1689.2,1479.6c1.6-1,3.6-1.5,5.8-1.5c0.7,0,1.3,0.1,1.9,0.2
				s1,0.3,1.3,0.4v6l-0.4,0.3c-0.7,0-1.4,0-2.2,0c-2.1,0-3.9,0.2-5.4,0.5c-1.4,0.3-2.6,0.7-3.5,1.2c-0.9,0.5-1.7,1.1-2.6,1.8
				l-0.1-4.4h1.4C1686.3,1482.1,1687.6,1480.6,1689.2,1479.6z"/>
			<path d="M388.1,1572.3c1.4-2.8,3.5-4.9,6.2-6.3c2.7-1.4,6-2,9.8-2c1.6,0,3.1,0.1,4.5,0.3c1.4,0.2,2.6,0.5,3.4,0.8v6l-0.4,0.4
				c-2.8-0.7-5.6-1-8.4-1c-2.7,0-4.8,0.3-6.3,1c-1.5,0.7-2.5,1.8-3.1,3.3c-0.6,1.6-0.9,3.7-0.9,6.5v3.9c0,2.9,0.3,5.2,0.8,6.7
				c0.6,1.5,1.6,2.6,3,3.3c1.4,0.7,3.5,1,6.2,1c1.6,0,3.3-0.2,5.1-0.5c1.8-0.3,3.4-0.7,4.8-1l0.3,0.3v6c-1.2,0.5-2.7,0.9-4.4,1.2
				c-1.7,0.3-3.7,0.5-6.1,0.5c-3.9,0-7-0.7-9.5-2.2c-2.5-1.4-4.3-3.6-5.5-6.4c-1.2-2.8-1.8-6.4-1.8-10.6
				C386,1578.8,386.7,1575.1,388.1,1572.3z"/>
			<path d="M420.6,1572.6c1.5-2.9,3.4-5.1,5.9-6.5c2.5-1.4,5.2-2.1,8.1-2.1s5.7,0.7,8.2,2.1c2.5,1.4,4.5,3.6,5.9,6.5
				c1.4,2.9,2.2,6.5,2.2,10.8c0,3.9-0.7,7.3-2,10.2c-1.4,2.9-3.2,5.1-5.7,6.6c-2.4,1.5-5.3,2.3-8.5,2.3c-3.2,0-6.1-0.8-8.5-2.3
				c-2.5-1.5-4.4-3.7-5.7-6.6c-1.4-2.9-2-6.3-2-10.2C418.4,1579.1,419.1,1575.5,420.6,1572.6z M426.2,1591.5
				c0.6,1.5,1.6,2.6,2.9,3.4c1.4,0.7,3.2,1.1,5.5,1.1c2.3,0,4.2-0.4,5.5-1.1c1.4-0.7,2.3-1.9,2.9-3.4c0.6-1.5,0.9-3.5,0.9-5.8v-4.8
				c0-2.4-0.3-4.3-0.9-5.9s-1.6-2.7-3-3.4c-1.4-0.7-3.2-1.1-5.5-1.1c-2.3,0-4.1,0.4-5.5,1.1c-1.4,0.7-2.3,1.9-3,3.4
				s-0.9,3.5-0.9,5.9v4.8C425.2,1588.1,425.5,1590.1,426.2,1591.5z"/>
			<path d="M463.4,1564.7l2.1,5.6v31.4h-6.8v-37H463.4z M469.4,1565.5c1.5-1,3.5-1.5,6-1.5c2.6,0,4.7,0.6,6.2,1.7
				c1.5,1.1,2.6,2.8,3.3,5.1l0.4,0.4v30.6h-6.9v-27.4c0-1.5-0.4-2.5-1.3-3.1c-0.9-0.6-2.4-0.8-4.5-0.8c-1.4,0-2.8,0.2-4.3,0.7
				c-1.5,0.5-2.5,1-3.1,1.6l-0.7-2.7h1.3C466.7,1568.1,467.9,1566.5,469.4,1565.5z M488.9,1565.5c1.5-1,3.5-1.6,6-1.6
				c3.3,0,5.9,1,7.6,3c1.8,2,2.7,5,2.7,9v25.7h-6.9v-27.4c0-1.5-0.4-2.5-1.3-3.1c-0.9-0.6-2.4-0.8-4.5-0.8c-1.4,0-2.8,0.2-4.3,0.7
				c-1.5,0.5-2.5,1-3.1,1.6l-1-2.4h1.1C486.1,1568.2,487.3,1566.6,488.9,1565.5z"/>
			<path d="M518.8,1564.7l2.1,5.6v31.4h-6.8v-37H518.8z M524.9,1565.5c1.5-1,3.5-1.5,6-1.5c2.6,0,4.7,0.6,6.2,1.7
				c1.5,1.1,2.6,2.8,3.3,5.1l0.4,0.4v30.6h-6.9v-27.4c0-1.5-0.4-2.5-1.3-3.1c-0.9-0.6-2.4-0.8-4.5-0.8c-1.4,0-2.8,0.2-4.3,0.7
				c-1.5,0.5-2.5,1-3.1,1.6l-0.7-2.7h1.3C522.2,1568.1,523.4,1566.5,524.9,1565.5z M544.3,1565.5c1.5-1,3.5-1.6,6-1.6
				c3.3,0,5.9,1,7.6,3c1.8,2,2.7,5,2.7,9v25.7h-6.9v-27.4c0-1.5-0.4-2.5-1.3-3.1c-0.9-0.6-2.4-0.8-4.5-0.8c-1.4,0-2.8,0.2-4.3,0.7
				c-1.5,0.5-2.5,1-3.1,1.6l-1-2.4h1.1C541.5,1568.2,542.8,1566.6,544.3,1565.5z"/>
			<path d="M587.6,1601c-1.7,1-3.9,1.5-6.5,1.5c-3.8,0-6.8-1.1-8.9-3.3c-2.1-2.2-3.2-5.7-3.2-10.3v-24.1h6.8v26.2
				c0,1.9,0.5,3.2,1.5,4c1,0.7,2.8,1.1,5.4,1.1c1.6,0,3.2-0.2,4.8-0.7c1.5-0.5,2.8-1.1,3.8-1.9l1.2,3.1h-1.3
				C590.5,1598.5,589.3,1600,587.6,1601z M593.3,1601.7l-2.1-5.7v-31.2h6.8v37H593.3z"/>
			<path d="M612.4,1564.7l2.1,5.6v31.4h-6.8v-37H612.4z M618.7,1565.5c1.6-1,3.7-1.5,6.3-1.5c3.6,0,6.5,1,8.6,3.1
				c2.1,2.1,3.1,5.4,3.1,10v24.6h-6.8V1575c0-1.1-0.2-1.9-0.6-2.6c-0.4-0.6-1.1-1.1-2.1-1.5c-1-0.4-2.5-0.6-4.4-0.6
				c-1.6,0-3.2,0.2-4.9,0.6c-1.7,0.4-2.9,1-3.8,1.7l-0.8-2.7h1.4C615.8,1568.1,617.1,1566.5,618.7,1565.5z"/>
			<path d="M645.6,1551.3c0.2-0.6,0.5-1,1.1-1.2c0.5-0.2,1.4-0.3,2.5-0.3c1.1,0,1.9,0.1,2.5,0.3c0.5,0.2,0.9,0.6,1,1.2
				c0.2,0.6,0.3,1.5,0.3,2.6c0,1.2-0.1,2-0.3,2.6c-0.2,0.6-0.5,0.9-1,1.2c-0.5,0.2-1.3,0.3-2.5,0.3c-1.2,0-2-0.1-2.5-0.3
				c-0.5-0.2-0.9-0.6-1.1-1.2c-0.2-0.6-0.3-1.4-0.3-2.6C645.3,1552.7,645.4,1551.8,645.6,1551.3z M652.5,1564.7v37h-6.8v-37H652.5z"
				/>
			<path d="M682.6,1564.7v5.8h-23.5v-5.8H682.6z M680.1,1602.2c-1.3,0.2-2.7,0.3-4,0.3c-2.7,0-4.9-0.6-6.7-1.7
				c-1.8-1.1-3-2.7-3.8-4.7c-0.8-2-1.2-4.4-1.2-7.1v-31.5l4.2-2.2h2.6v35.6c0,1.4,0.1,2.5,0.3,3.2c0.2,0.7,0.7,1.2,1.5,1.5
				c0.8,0.3,2,0.5,3.7,0.5c2.2,0,4.2-0.1,6-0.3l0.4,0.3v5.5C682.5,1601.8,681.5,1602,680.1,1602.2z"/>
			<path d="M689.6,1551.3c0.2-0.6,0.5-1,1.1-1.2c0.5-0.2,1.4-0.3,2.5-0.3c1.1,0,1.9,0.1,2.5,0.3c0.5,0.2,0.9,0.6,1,1.2
				c0.2,0.6,0.3,1.5,0.3,2.6c0,1.2-0.1,2-0.3,2.6c-0.2,0.6-0.5,0.9-1,1.2c-0.5,0.2-1.3,0.3-2.5,0.3c-1.2,0-2-0.1-2.5-0.3
				c-0.5-0.2-0.9-0.6-1.1-1.2c-0.2-0.6-0.3-1.4-0.3-2.6C689.3,1552.7,689.4,1551.8,689.6,1551.3z M696.5,1564.7v37h-6.8v-37H696.5z"
				/>
			<path d="M706.2,1572.4c1.2-2.9,3-5,5.4-6.4c2.4-1.4,5.3-2.1,8.7-2.1c2.8,0,5.2,0.5,7.2,1.6c2.1,1,3.7,2.6,4.8,4.7
				c1.1,2.1,1.7,4.5,1.7,7.3v6.6h-23.9v-5.1h17.1v-2.9c0-1.4-0.2-2.6-0.6-3.4s-1.1-1.4-2.2-1.8c-1-0.4-2.5-0.5-4.3-0.5h-0.8
				c-2.2,0-3.9,0.3-5.1,0.9c-1.2,0.6-2,1.6-2.5,3c-0.5,1.4-0.7,3.3-0.7,5.8v8.1c0,2,0.3,3.5,1,4.6c0.7,1.1,1.8,1.9,3.3,2.4
				c1.6,0.5,3.7,0.7,6.5,0.7c2.1,0,4.1-0.2,6-0.5c1.9-0.3,3.4-0.7,4.6-1.2l0.3,0.3v5.9c-1.2,0.6-2.7,1-4.6,1.4
				c-1.9,0.4-4,0.6-6.5,0.6c-4.3,0-7.8-0.7-10.4-2.1c-2.6-1.4-4.4-3.5-5.5-6.3c-1.1-2.8-1.6-6.3-1.6-10.6
				C704.3,1579,704.9,1575.3,706.2,1572.4z"/>
			<path d="M742,1569.6c1-1.7,2.7-3,5.1-4.1c2.4-1,5.5-1.5,9.4-1.5c2,0,3.6,0.1,5,0.2c1.4,0.2,2.7,0.4,4,0.6v5.9l-0.4,0.4
				c-1.4-0.2-2.9-0.4-4.4-0.5s-3.1-0.2-4.7-0.2c-2.3,0-4.1,0.1-5.3,0.3c-1.2,0.2-2.1,0.7-2.6,1.3c-0.5,0.6-0.7,1.5-0.7,2.7v0.6
				c0,1,0.2,1.7,0.6,2.3c0.4,0.5,1.2,1,2.5,1.4c1.3,0.4,3.4,0.8,6.3,1.2c2.8,0.4,4.9,1.1,6.5,2c1.6,0.9,2.7,2.1,3.4,3.4
				s0.9,2.9,0.9,4.8c0,2.3-0.5,4.4-1.5,6.2c-1,1.8-2.6,3.3-4.8,4.3c-2.2,1-5.1,1.6-8.7,1.6c-2.3,0-4.4-0.1-6.4-0.3
				c-2-0.2-3.5-0.4-4.5-0.7v-6.1l0.4-0.4c4,0.7,7.4,1,10.4,1c2.4,0,4.2-0.1,5.3-0.4c1.2-0.3,2-0.8,2.4-1.5c0.4-0.7,0.6-1.7,0.6-3.1
				v-0.9c0-0.9-0.2-1.7-0.6-2.2c-0.4-0.6-1.2-1.1-2.5-1.5c-1.3-0.4-3.4-0.9-6.2-1.2c-2.8-0.4-4.9-1.1-6.5-2.1
				c-1.6-1-2.7-2.1-3.4-3.4c-0.7-1.3-1-2.8-1-4.4C740.5,1573.2,741,1571.2,742,1569.6z"/>
			<path d="M793.3,1582.9c2.1-2,5.3-3,9.6-3c2.2,0,4.2,0.1,5.9,0.3c1.7,0.2,3.2,0.4,4.3,0.7h1.1l-0.1,4.3c-2.8,0-5,0-6.4,0
				c-1.4,0-3.6,0-6.4,0c-1.5,0-2.6,0.3-3.3,1c-0.7,0.7-1.1,1.7-1.1,3v2.3c0,1.6,0.4,2.8,1.3,3.5c0.9,0.7,2.5,1,4.7,1h1
				c1.9,0,3.7-0.2,5.3-0.6c1.6-0.4,3-1,4.1-1.6l1.2,2.7h-1.3c-0.6,2.1-1.8,3.6-3.7,4.5c-1.8,1-4.3,1.5-7.4,1.5c-3.8,0-6.7-1-8.8-3
				c-2.1-2-3.2-4.8-3.2-8.4C790.1,1587.6,791.1,1584.9,793.3,1582.9z M796.7,1564.3c1.8-0.2,3.7-0.4,5.7-0.4c4.3,0,7.7,0.6,10.3,1.8
				c2.6,1.2,4.5,3,5.6,5.4c1.1,2.4,1.7,5.5,1.7,9.2v21.3h-4.7l-2.1-5.5v-18.7c0-1.9-0.4-3.4-1.1-4.4c-0.7-1-1.9-1.7-3.4-2.1
				c-1.5-0.4-3.5-0.6-6-0.6c-1.9,0-3.9,0.2-6,0.5c-2.1,0.3-3.6,0.6-4.5,0.8l-0.4-0.3v-6.1C793.3,1564.9,794.9,1564.6,796.7,1564.3z"
				/>
			<path d="M835.9,1549.5v52.2h-6.8v-52.2H835.9z"/>
			<path d="M852.4,1549.5v52.2h-6.8v-52.2H852.4z"/>
			<path d="M878.5,1572.6c1.5-2.9,3.4-5.1,5.9-6.5c2.5-1.4,5.2-2.1,8.1-2.1s5.7,0.7,8.2,2.1c2.5,1.4,4.5,3.6,5.9,6.5
				c1.4,2.9,2.2,6.5,2.2,10.8c0,3.9-0.7,7.3-2,10.2c-1.4,2.9-3.2,5.1-5.7,6.6c-2.4,1.5-5.3,2.3-8.5,2.3c-3.2,0-6.1-0.8-8.5-2.3
				c-2.5-1.5-4.4-3.7-5.7-6.6c-1.4-2.9-2-6.3-2-10.2C876.3,1579.1,877.1,1575.5,878.5,1572.6z M884.1,1591.5
				c0.6,1.5,1.6,2.6,2.9,3.4c1.4,0.7,3.2,1.1,5.5,1.1c2.3,0,4.2-0.4,5.5-1.1c1.4-0.7,2.3-1.9,2.9-3.4c0.6-1.5,0.9-3.5,0.9-5.8v-4.8
				c0-2.4-0.3-4.3-0.9-5.9s-1.6-2.7-3-3.4c-1.4-0.7-3.2-1.1-5.5-1.1c-2.3,0-4.1,0.4-5.5,1.1c-1.4,0.7-2.3,1.9-3,3.4
				s-0.9,3.5-0.9,5.9v4.8C883.2,1588.1,883.5,1590.1,884.1,1591.5z"/>
			<path d="M920,1564.7l6.6,20.9c0.4,1.4,0.8,3.1,1.4,5.4c0.5,2.2,1,4.3,1.3,6.1h0.5c0.3-1.9,0.7-3.9,1.3-6.1c0.6-2.2,1-4,1.4-5.4
				l6.6-20.9h6.7l0.4,0.5l-11.9,36.5h-9.3l-11.9-36.5l0.4-0.5H920z"/>
			<path d="M952,1572.4c1.2-2.9,3-5,5.4-6.4c2.4-1.4,5.3-2.1,8.7-2.1c2.8,0,5.2,0.5,7.2,1.6c2.1,1,3.7,2.6,4.8,4.7
				c1.1,2.1,1.7,4.5,1.7,7.3v6.6H956v-5.1h17.1v-2.9c0-1.4-0.2-2.6-0.6-3.4s-1.1-1.4-2.2-1.8c-1-0.4-2.5-0.5-4.3-0.5h-0.8
				c-2.2,0-3.9,0.3-5.1,0.9c-1.2,0.6-2,1.6-2.5,3c-0.5,1.4-0.7,3.3-0.7,5.8v8.1c0,2,0.3,3.5,1,4.6c0.7,1.1,1.8,1.9,3.3,2.4
				c1.6,0.5,3.7,0.7,6.5,0.7c2.1,0,4.1-0.2,6-0.5c1.9-0.3,3.4-0.7,4.6-1.2l0.3,0.3v5.9c-1.2,0.6-2.7,1-4.6,1.4
				c-1.9,0.4-4,0.6-6.5,0.6c-4.3,0-7.8-0.7-10.4-2.1c-2.6-1.4-4.4-3.5-5.5-6.3c-1.1-2.8-1.6-6.3-1.6-10.6
				C950.2,1579,950.8,1575.3,952,1572.4z"/>
			<path d="M991.8,1564.7l2.7,5.6v31.4h-6.8v-37H991.8z M998.7,1565.6c1.6-1,3.6-1.5,5.8-1.5c0.7,0,1.3,0.1,1.9,0.2s1,0.3,1.3,0.4v6
				l-0.4,0.3c-0.7,0-1.4,0-2.2,0c-2.1,0-3.9,0.2-5.4,0.5c-1.4,0.3-2.6,0.7-3.5,1.2c-0.9,0.5-1.7,1.1-2.6,1.8l-0.1-4.4h1.4
				C995.8,1568.1,997,1566.6,998.7,1565.6z"/>
			<path d="M1050.5,1564.7v5.8h-23.5v-5.8H1050.5z M1048.1,1602.2c-1.3,0.2-2.7,0.3-4,0.3c-2.7,0-4.9-0.6-6.7-1.7
				c-1.8-1.1-3-2.7-3.8-4.7c-0.8-2-1.2-4.4-1.2-7.1v-31.5l4.2-2.2h2.6v35.6c0,1.4,0.1,2.5,0.3,3.2c0.2,0.7,0.7,1.2,1.5,1.5
				c0.8,0.3,2,0.5,3.7,0.5c2.2,0,4.2-0.1,6-0.3l0.4,0.3v5.5C1050.4,1601.8,1049.4,1602,1048.1,1602.2z"/>
			<path d="M1064.4,1549.5v52.2h-6.8v-52.2H1064.4z M1068.4,1565.5c1.7-1,3.9-1.6,6.5-1.6c3.6,0,6.5,1,8.6,3.1
				c2.1,2.1,3.1,5.4,3.1,10v24.6h-6.8V1575c0-1.1-0.2-1.9-0.6-2.6c-0.4-0.6-1.1-1.1-2.1-1.5c-1-0.4-2.5-0.6-4.4-0.6
				c-1.6,0-3.2,0.2-4.9,0.6c-1.7,0.4-2.9,1-3.8,1.7l-0.6-2.7h1.1C1065.5,1568.1,1066.7,1566.6,1068.4,1565.5z"/>
			<path d="M1095.7,1572.4c1.2-2.9,3-5,5.4-6.4c2.4-1.4,5.3-2.1,8.7-2.1c2.8,0,5.2,0.5,7.2,1.6c2.1,1,3.7,2.6,4.8,4.7
				c1.1,2.1,1.7,4.5,1.7,7.3v6.6h-23.9v-5.1h17.1v-2.9c0-1.4-0.2-2.6-0.6-3.4s-1.1-1.4-2.2-1.8c-1-0.4-2.5-0.5-4.3-0.5h-0.8
				c-2.2,0-3.9,0.3-5.1,0.9c-1.2,0.6-2,1.6-2.5,3c-0.5,1.4-0.7,3.3-0.7,5.8v8.1c0,2,0.3,3.5,1,4.6c0.7,1.1,1.8,1.9,3.3,2.4
				c1.6,0.5,3.7,0.7,6.5,0.7c2.1,0,4.1-0.2,6-0.5c1.9-0.3,3.4-0.7,4.6-1.2l0.3,0.3v5.9c-1.2,0.6-2.7,1-4.6,1.4
				c-1.9,0.4-4,0.6-6.5,0.6c-4.3,0-7.8-0.7-10.4-2.1c-2.6-1.4-4.4-3.5-5.5-6.3c-1.1-2.8-1.6-6.3-1.6-10.6
				C1093.9,1579,1094.5,1575.3,1095.7,1572.4z"/>
			<path d="M1151.1,1564.7l5,22.6c0.6,2.8,1.1,5.7,1.5,8.9h0.6c0.2-1.4,0.4-3,0.7-4.6c0.3-1.6,0.5-3,0.7-4l5.5-22.9h8.8l5.5,22.9
				c0.2,1,0.5,2.3,0.7,3.9c0.2,1.6,0.5,3.2,0.7,4.7h0.6c0.3-1.5,0.6-3.1,0.8-4.7c0.3-1.6,0.5-3,0.7-4.1l5-22.7h6.5l0.4,0.5
				l-8.8,36.5h-9.4l-5.3-22.2c-0.2-1.1-0.5-2.6-0.8-4.4c-0.3-1.9-0.6-3.5-0.7-4.9h-0.4c-0.2,1.4-0.5,3.1-0.8,5
				c-0.3,1.9-0.5,3.3-0.7,4.4l-5.3,22.2h-9.5l-8.8-36.5l0.4-0.5H1151.1z"/>
			<path d="M1201.6,1572.6c1.5-2.9,3.4-5.1,5.9-6.5c2.5-1.4,5.2-2.1,8.1-2.1s5.7,0.7,8.2,2.1c2.5,1.4,4.5,3.6,5.9,6.5
				c1.4,2.9,2.2,6.5,2.2,10.8c0,3.9-0.7,7.3-2,10.2c-1.4,2.9-3.2,5.1-5.7,6.6c-2.4,1.5-5.3,2.3-8.5,2.3c-3.2,0-6.1-0.8-8.5-2.3
				c-2.5-1.5-4.4-3.7-5.7-6.6c-1.4-2.9-2-6.3-2-10.2C1199.4,1579.1,1200.2,1575.5,1201.6,1572.6z M1207.2,1591.5
				c0.6,1.5,1.6,2.6,2.9,3.4c1.4,0.7,3.2,1.1,5.5,1.1c2.3,0,4.2-0.4,5.5-1.1c1.4-0.7,2.3-1.9,2.9-3.4c0.6-1.5,0.9-3.5,0.9-5.8v-4.8
				c0-2.4-0.3-4.3-0.9-5.9s-1.6-2.7-3-3.4c-1.4-0.7-3.2-1.1-5.5-1.1c-2.3,0-4.1,0.4-5.5,1.1c-1.4,0.7-2.3,1.9-3,3.4
				s-0.9,3.5-0.9,5.9v4.8C1206.3,1588.1,1206.6,1590.1,1207.2,1591.5z"/>
			<path d="M1243.9,1564.7l2.7,5.6v31.4h-6.8v-37H1243.9z M1250.7,1565.6c1.6-1,3.6-1.5,5.8-1.5c0.7,0,1.3,0.1,1.9,0.2
				s1,0.3,1.3,0.4v6l-0.4,0.3c-0.7,0-1.4,0-2.2,0c-2.1,0-3.9,0.2-5.4,0.5c-1.4,0.3-2.6,0.7-3.5,1.2c-0.9,0.5-1.7,1.1-2.6,1.8
				l-0.1-4.4h1.4C1247.8,1568.1,1249.1,1566.6,1250.7,1565.6z"/>
			<path d="M1272.9,1549.5v52.2h-6.8v-52.2H1272.9z"/>
			<path d="M1287.4,1600.4c-2.1-1.4-3.7-3.5-4.9-6.4s-1.8-6.4-1.8-10.5c0-4.4,0.7-8.1,2.1-11c1.4-2.9,3.2-5,5.6-6.4
				c2.3-1.4,5-2.1,8-2.1c1.7,0,3.2,0.1,4.5,0.4c1.3,0.3,2.7,0.7,4.2,1.3h1.3l-0.6,5.2c-1.5-0.2-3-0.3-4.5-0.4
				c-1.5-0.1-3-0.1-4.5-0.1c-2.5,0-4.3,0.3-5.6,0.9c-1.3,0.6-2.2,1.7-2.7,3.3c-0.5,1.6-0.8,3.8-0.8,6.8v4.9c0,2.6,0.3,4.5,0.8,6
				c0.5,1.4,1.4,2.4,2.5,3c1.2,0.6,2.8,0.9,5,0.9c2.1,0,3.9-0.2,5.4-0.7c1.5-0.4,2.8-1,4-1.7l1.2,2.8h-1.3c-0.7,2.1-1.9,3.6-3.7,4.5
				c-1.8,1-4.1,1.5-6.8,1.5C1291.9,1602.5,1289.5,1601.8,1287.4,1600.4z M1305.3,1595.9v-46.4h6.8v52.2h-4.7L1305.3,1595.9z"/>
			<path d="M1354.8,1577.1v5.7h-18.8v-5.7H1354.8z"/>
			<path d="M1369.8,1611.9l0.4-0.3c1.4,0.1,2.5,0.1,3.3,0.1c2.1,0,3.6-0.3,4.3-1c0.7-0.7,1.1-1.9,1.1-3.6v-42.3h6.8v39.8
				c0,4.5-0.9,7.9-2.8,10.2c-1.9,2.3-4.7,3.4-8.5,3.4c-0.9,0-1.8-0.1-2.7-0.2c-0.9-0.1-1.5-0.3-1.9-0.4V1611.9z M1378.7,1551.3
				c0.2-0.6,0.5-1,1.1-1.2c0.5-0.2,1.4-0.3,2.5-0.3c1.1,0,1.9,0.1,2.5,0.3c0.5,0.2,0.9,0.6,1,1.2c0.2,0.6,0.3,1.5,0.3,2.6
				c0,1.2-0.1,2-0.3,2.6c-0.2,0.6-0.5,0.9-1,1.2c-0.5,0.2-1.3,0.3-2.5,0.3c-1.2,0-2-0.1-2.5-0.3c-0.5-0.2-0.9-0.6-1.1-1.2
				c-0.2-0.6-0.3-1.4-0.3-2.6C1378.4,1552.7,1378.5,1551.8,1378.7,1551.3z"/>
			<path d="M1395.7,1572.6c1.5-2.9,3.4-5.1,5.9-6.5c2.5-1.4,5.2-2.1,8.1-2.1s5.7,0.7,8.2,2.1c2.5,1.4,4.5,3.6,5.9,6.5
				c1.4,2.9,2.2,6.5,2.2,10.8c0,3.9-0.7,7.3-2,10.2c-1.4,2.9-3.2,5.1-5.7,6.6c-2.4,1.5-5.3,2.3-8.5,2.3c-3.2,0-6.1-0.8-8.5-2.3
				c-2.5-1.5-4.4-3.7-5.7-6.6c-1.4-2.9-2-6.3-2-10.2C1393.5,1579.1,1394.2,1575.5,1395.7,1572.6z M1401.2,1591.5
				c0.6,1.5,1.6,2.6,2.9,3.4c1.4,0.7,3.2,1.1,5.5,1.1c2.3,0,4.2-0.4,5.5-1.1c1.4-0.7,2.3-1.9,2.9-3.4c0.6-1.5,0.9-3.5,0.9-5.8v-4.8
				c0-2.4-0.3-4.3-0.9-5.9s-1.6-2.7-3-3.4c-1.4-0.7-3.2-1.1-5.5-1.1c-2.3,0-4.1,0.4-5.5,1.1c-1.4,0.7-2.3,1.9-3,3.4
				s-0.9,3.5-0.9,5.9v4.8C1400.3,1588.1,1400.6,1590.1,1401.2,1591.5z"/>
			<path d="M1433.6,1551.3c0.2-0.6,0.5-1,1.1-1.2c0.5-0.2,1.4-0.3,2.5-0.3c1.1,0,1.9,0.1,2.5,0.3c0.5,0.2,0.9,0.6,1,1.2
				c0.2,0.6,0.3,1.5,0.3,2.6c0,1.2-0.1,2-0.3,2.6c-0.2,0.6-0.5,0.9-1,1.2c-0.5,0.2-1.3,0.3-2.5,0.3c-1.2,0-2-0.1-2.5-0.3
				c-0.5-0.2-0.9-0.6-1.1-1.2c-0.2-0.6-0.3-1.4-0.3-2.6C1433.4,1552.7,1433.5,1551.8,1433.6,1551.3z M1440.6,1564.7v37h-6.8v-37
				H1440.6z"/>
			<path d="M1454.9,1564.7l2.1,5.6v31.4h-6.8v-37H1454.9z M1461.3,1565.5c1.6-1,3.7-1.5,6.3-1.5c3.6,0,6.5,1,8.6,3.1
				c2.1,2.1,3.1,5.4,3.1,10v24.6h-6.8V1575c0-1.1-0.2-1.9-0.6-2.6c-0.4-0.6-1.1-1.1-2.1-1.5c-1-0.4-2.5-0.6-4.4-0.6
				c-1.6,0-3.2,0.2-4.9,0.6c-1.7,0.4-2.9,1-3.8,1.7l-0.8-2.7h1.4C1458.4,1568.1,1459.6,1566.5,1461.3,1565.5z"/>
			<path d="M1522.4,1601c-1.7,1-3.9,1.5-6.5,1.5c-3.8,0-6.8-1.1-8.9-3.3c-2.1-2.2-3.2-5.7-3.2-10.3v-24.1h6.8v26.2
				c0,1.9,0.5,3.2,1.5,4c1,0.7,2.8,1.1,5.4,1.1c1.6,0,3.2-0.2,4.8-0.7c1.5-0.5,2.8-1.1,3.8-1.9l1.2,3.1h-1.3
				C1525.3,1598.5,1524.1,1600,1522.4,1601z M1528.1,1601.7l-2.1-5.7v-31.2h6.8v37H1528.1z"/>
			<path d="M1542.6,1569.6c1-1.7,2.7-3,5.1-4.1c2.4-1,5.5-1.5,9.4-1.5c2,0,3.6,0.1,5,0.2c1.4,0.2,2.7,0.4,4,0.6v5.9l-0.4,0.4
				c-1.4-0.2-2.9-0.4-4.4-0.5s-3.1-0.2-4.7-0.2c-2.3,0-4.1,0.1-5.3,0.3c-1.2,0.2-2.1,0.7-2.6,1.3c-0.5,0.6-0.7,1.5-0.7,2.7v0.6
				c0,1,0.2,1.7,0.6,2.3c0.4,0.5,1.2,1,2.5,1.4c1.3,0.4,3.4,0.8,6.3,1.2c2.8,0.4,4.9,1.1,6.5,2c1.6,0.9,2.7,2.1,3.4,3.4
				s0.9,2.9,0.9,4.8c0,2.3-0.5,4.4-1.5,6.2c-1,1.8-2.6,3.3-4.8,4.3c-2.2,1-5.1,1.6-8.7,1.6c-2.3,0-4.4-0.1-6.4-0.3
				c-2-0.2-3.5-0.4-4.5-0.7v-6.1l0.4-0.4c4,0.7,7.4,1,10.4,1c2.4,0,4.2-0.1,5.3-0.4c1.2-0.3,2-0.8,2.4-1.5c0.4-0.7,0.6-1.7,0.6-3.1
				v-0.9c0-0.9-0.2-1.7-0.6-2.2c-0.4-0.6-1.2-1.1-2.5-1.5c-1.3-0.4-3.4-0.9-6.2-1.2c-2.8-0.4-4.9-1.1-6.5-2.1
				c-1.6-1-2.7-2.1-3.4-3.4c-0.7-1.3-1-2.8-1-4.4C1541.1,1573.2,1541.6,1571.2,1542.6,1569.6z"/>
			<path d="M1612.4,1564.7v5.8H1589v-5.8H1612.4z M1609.9,1602.2c-1.3,0.2-2.7,0.3-4,0.3c-2.7,0-4.9-0.6-6.7-1.7
				c-1.8-1.1-3-2.7-3.8-4.7c-0.8-2-1.2-4.4-1.2-7.1v-31.5l4.2-2.2h2.6v35.6c0,1.4,0.1,2.5,0.3,3.2c0.2,0.7,0.7,1.2,1.5,1.5
				c0.8,0.3,2,0.5,3.7,0.5c2.2,0,4.2-0.1,6-0.3l0.4,0.3v5.5C1612.3,1601.8,1611.3,1602,1609.9,1602.2z"/>
			<path d="M1619.9,1572.6c1.5-2.9,3.4-5.1,5.9-6.5c2.5-1.4,5.2-2.1,8.1-2.1s5.7,0.7,8.2,2.1c2.5,1.4,4.5,3.6,5.9,6.5
				c1.4,2.9,2.2,6.5,2.2,10.8c0,3.9-0.7,7.3-2,10.2c-1.4,2.9-3.2,5.1-5.7,6.6c-2.4,1.5-5.3,2.3-8.5,2.3c-3.2,0-6.1-0.8-8.5-2.3
				c-2.5-1.5-4.4-3.7-5.7-6.6c-1.4-2.9-2-6.3-2-10.2C1617.7,1579.1,1618.4,1575.5,1619.9,1572.6z M1625.4,1591.5
				c0.6,1.5,1.6,2.6,2.9,3.4c1.4,0.7,3.2,1.1,5.5,1.1c2.3,0,4.2-0.4,5.5-1.1c1.4-0.7,2.3-1.9,2.9-3.4c0.6-1.5,0.9-3.5,0.9-5.8v-4.8
				c0-2.4-0.3-4.3-0.9-5.9s-1.6-2.7-3-3.4c-1.4-0.7-3.2-1.1-5.5-1.1c-2.3,0-4.1,0.4-5.5,1.1c-1.4,0.7-2.3,1.9-3,3.4
				s-0.9,3.5-0.9,5.9v4.8C1624.5,1588.1,1624.8,1590.1,1625.4,1591.5z"/>
			<path d="M1662.9,1600.4c-2.1-1.4-3.7-3.5-4.9-6.4s-1.8-6.4-1.8-10.5c0-4.4,0.7-8.1,2.1-11c1.4-2.9,3.2-5,5.6-6.4
				c2.3-1.4,5-2.1,8-2.1c1.7,0,3.2,0.1,4.5,0.4c1.3,0.3,2.7,0.7,4.2,1.3h1.3l-0.6,5.2c-1.5-0.2-3-0.3-4.5-0.4
				c-1.5-0.1-3-0.1-4.5-0.1c-2.5,0-4.3,0.3-5.6,0.9c-1.3,0.6-2.2,1.7-2.7,3.3c-0.5,1.6-0.8,3.8-0.8,6.8v4.9c0,2.6,0.3,4.5,0.8,6
				c0.5,1.4,1.4,2.4,2.5,3c1.2,0.6,2.8,0.9,5,0.9c2.1,0,3.9-0.2,5.4-0.7c1.5-0.4,2.8-1,4-1.7l1.2,2.8h-1.3c-0.7,2.1-1.9,3.6-3.7,4.5
				c-1.8,1-4.1,1.5-6.8,1.5C1667.4,1602.5,1665,1601.8,1662.9,1600.4z M1680.7,1595.9v-46.4h6.8v52.2h-4.7L1680.7,1595.9z"/>
			<path d="M1699.1,1582.9c2.1-2,5.3-3,9.6-3c2.2,0,4.2,0.1,5.9,0.3c1.7,0.2,3.2,0.4,4.3,0.7h1.1l-0.1,4.3c-2.8,0-5,0-6.4,0
				c-1.4,0-3.6,0-6.4,0c-1.5,0-2.6,0.3-3.3,1c-0.7,0.7-1.1,1.7-1.1,3v2.3c0,1.6,0.4,2.8,1.3,3.5c0.9,0.7,2.5,1,4.7,1h1
				c1.9,0,3.7-0.2,5.3-0.6c1.6-0.4,3-1,4.1-1.6l1.2,2.7h-1.3c-0.6,2.1-1.8,3.6-3.7,4.5c-1.8,1-4.3,1.5-7.4,1.5c-3.8,0-6.7-1-8.8-3
				c-2.1-2-3.2-4.8-3.2-8.4C1695.9,1587.6,1697,1584.9,1699.1,1582.9z M1702.5,1564.3c1.8-0.2,3.7-0.4,5.7-0.4
				c4.3,0,7.7,0.6,10.3,1.8c2.6,1.2,4.5,3,5.6,5.4c1.1,2.4,1.7,5.5,1.7,9.2v21.3h-4.7l-2.1-5.5v-18.7c0-1.9-0.4-3.4-1.1-4.4
				c-0.7-1-1.9-1.7-3.4-2.1c-1.5-0.4-3.5-0.6-6-0.6c-1.9,0-3.9,0.2-6,0.5c-2.1,0.3-3.6,0.6-4.5,0.8l-0.4-0.3v-6.1
				C1699.1,1564.9,1700.7,1564.6,1702.5,1564.3z"/>
			<path d="M1738.2,1564.7l7.3,17.4c0.6,1.4,1.1,3.2,1.7,5.2c0.6,2.1,1.1,4.2,1.8,6.5h1.8l1.3,7.8h-6l-14.7-36.5l0.4-0.5H1738.2z
				 M1747.1,1598.7l-0.5-4.8h2.7c0.5-2,1-4,1.5-6.3c0.5-2.2,1.1-4.1,1.6-5.8l5.9-17.1h6.6l0.4,0.5l-17.8,52.1h-6.7l-0.3-0.3
				L1747.1,1598.7z"/>
		</g>
	</g>
</g>
<g id="Layer_2">
</g>
</svg>
