<svg id="Layer_1" data-name="Layer 1" xmlns="http://www.w3.org/2000/svg" viewBox="0 0 284.66 44.46"><defs><style>.cls-1{fill:#fff;}</style></defs><path class="cls-1" d="M7081.28,7180.86v3.35h-24.12v-3.35Zm-10.3,1.29v29.28h-3.57v-29.3Z" transform="translate(-7057.16 -7177.3)"/><path class="cls-1" d="M7086,7187.27l1.33,3.62v20.54h-3.53v-24.18Zm4.17.65a7.56,7.56,0,0,1,4-1,6.43,6.43,0,0,1,1.24.11,5.16,5.16,0,0,1,.77.21v3.11l-.18.19a11.67,11.67,0,0,0-1.56-.1,13.74,13.74,0,0,0-3.38.37,8.59,8.59,0,0,0-2.38,1,8.71,8.71,0,0,0-1.88,1.6l-.09-2.61h.82a7,7,0,0,1,2.64-2.88Z" transform="translate(-7057.16 -7177.3)"/><path class="cls-1" d="M7103,7187.27l5.31,12.55a35.55,35.55,0,0,1,1.26,3.5c.41,1.33.83,2.69,1.26,4.1h1l.55,4h-3l-9.93-23.9.18-.28Zm6.87,22.57-.21-2.41h1.43c.39-1.41.76-2.76,1.09-4s.72-2.57,1.15-3.83l4.39-12.27h3.44l.18.28-12,34.15h-3.47l-.14-.18Z" transform="translate(-7057.16 -7177.3)"/><path class="cls-1" d="M7136.65,7187.21a10.67,10.67,0,0,1,4.71-5,16.36,16.36,0,0,1,7.69-1.65,30.92,30.92,0,0,1,4.08.24,19.38,19.38,0,0,1,3.11.59v3.16l-.18.18a27,27,0,0,0-6.69-.87,16.12,16.12,0,0,0-4.64.55,8,8,0,0,0-3,1.6,7.85,7.85,0,0,0-2.15,3.69,19,19,0,0,0-.78,5.65v1.47a21,21,0,0,0,.78,6,8,8,0,0,0,2,3.71,6.84,6.84,0,0,0,3.07,1.55,16.89,16.89,0,0,0,4.07.46,24.88,24.88,0,0,0,4.22-.37,26.83,26.83,0,0,0,3.75-.87l.27.23v3.07a28.71,28.71,0,0,1-3.66.89,28.13,28.13,0,0,1-4.85.35,15.21,15.21,0,0,1-7.69-1.7,10,10,0,0,1-4.33-5.24,25,25,0,0,1-1.39-9A19.94,19.94,0,0,1,7136.65,7187.21Z" transform="translate(-7057.16 -7177.3)"/><path class="cls-1" d="M7163.49,7199.34q2-1.91,6.39-1.9a35.6,35.6,0,0,1,4,.2c1.21.14,2.22.29,3,.44h.59v2.33l-4.12-.16c-1.07,0-2.51-.07-4.31-.07a4.37,4.37,0,0,0-3.13.92,3.37,3.37,0,0,0-.94,2.52v1.23a3.55,3.55,0,0,0,1.07,2.84,5.31,5.31,0,0,0,3.46.92h.59a11.5,11.5,0,0,0,3.94-.64,10.48,10.48,0,0,0,3-1.7l.64,1.65h-.73a5.91,5.91,0,0,1-2.77,3,10.78,10.78,0,0,1-5,1,7.94,7.94,0,0,1-5.7-2,7.07,7.07,0,0,1-2-5.38A6.75,6.75,0,0,1,7163.49,7199.34Zm2.24-12.25a27.69,27.69,0,0,1,3.64-.23,16,16,0,0,1,6.55,1.13,7,7,0,0,1,3.57,3.36,13.06,13.06,0,0,1,1.1,5.68v14.4h-2.47l-1.06-3.62v-12.18a5.85,5.85,0,0,0-.8-3.32,4.47,4.47,0,0,0-2.42-1.69,14.36,14.36,0,0,0-4.28-.53,26.23,26.23,0,0,0-3.76.3,30.5,30.5,0,0,0-3,.57l-.19-.23v-3.11C7163.56,7187.43,7164.59,7187.24,7165.73,7187.09Z" transform="translate(-7057.16 -7177.3)"/><path class="cls-1" d="M7187.18,7190.32a6.48,6.48,0,0,1,3.18-2.52,15.37,15.37,0,0,1,5.86-.94,23.22,23.22,0,0,1,3.23.14,22.26,22.26,0,0,1,2.58.37v3.06l-.22.23c-.89-.15-1.82-.28-2.8-.39s-2-.16-3-.16a15.26,15.26,0,0,0-3.75.37,3.47,3.47,0,0,0-1.9,1.1,3.17,3.17,0,0,0-.57,2v.41a3,3,0,0,0,.41,1.67,3.23,3.23,0,0,0,1.74,1.08,26.34,26.34,0,0,0,4.21.92,13.58,13.58,0,0,1,4.37,1.28,5.08,5.08,0,0,1,2.27,2.15,7,7,0,0,1,.64,3.11,7.87,7.87,0,0,1-1,4,6.56,6.56,0,0,1-3.11,2.68,13.48,13.48,0,0,1-5.47,1c-1.46,0-2.8-.06-4-.16a18.8,18.8,0,0,1-2.9-.44v-3.11l.23-.23a35.1,35.1,0,0,0,6.63.69,13.1,13.1,0,0,0,3.74-.42,3.07,3.07,0,0,0,1.83-1.28,4.66,4.66,0,0,0,.52-2.38v-.41a3.27,3.27,0,0,0-.43-1.78,3.47,3.47,0,0,0-1.79-1.19,19.43,19.43,0,0,0-4.14-.87,15.32,15.32,0,0,1-4.44-1.35,5.09,5.09,0,0,1-2.2-2.11,6.35,6.35,0,0,1-.64-2.91A6.92,6.92,0,0,1,7187.18,7190.32Z" transform="translate(-7057.16 -7177.3)"/><path class="cls-1" d="M7209.13,7190.32a6.38,6.38,0,0,1,3.18-2.52,15.37,15.37,0,0,1,5.86-.94,23.29,23.29,0,0,1,3.23.14,22.26,22.26,0,0,1,2.58.37v3.06l-.23.23q-1.32-.22-2.79-.39c-1-.1-2-.16-3-.16a15.26,15.26,0,0,0-3.75.37,3.47,3.47,0,0,0-1.9,1.1,3.11,3.11,0,0,0-.58,2v.41a3,3,0,0,0,.41,1.67,3.32,3.32,0,0,0,1.75,1.08,26.34,26.34,0,0,0,4.21.92,13.58,13.58,0,0,1,4.37,1.28,5,5,0,0,1,2.26,2.15,7,7,0,0,1,.64,3.11,7.87,7.87,0,0,1-1,4,6.56,6.56,0,0,1-3.11,2.68,13.48,13.48,0,0,1-5.47,1c-1.47,0-2.8-.06-4-.16a18.8,18.8,0,0,1-2.9-.44v-3.11l.22-.23a35.29,35.29,0,0,0,6.64.69,13,13,0,0,0,3.73-.42,3.07,3.07,0,0,0,1.83-1.28,4.57,4.57,0,0,0,.53-2.38v-.41a3.36,3.36,0,0,0-.43-1.78,3.47,3.47,0,0,0-1.79-1.19,19.43,19.43,0,0,0-4.14-.87A15.32,15.32,0,0,1,7211,7199a5.09,5.09,0,0,1-2.2-2.11,6.35,6.35,0,0,1-.64-2.91A6.81,6.81,0,0,1,7209.13,7190.32Z" transform="translate(-7057.16 -7177.3)"/><path class="cls-1" d="M7232.31,7199.34q2-1.91,6.39-1.9a35.6,35.6,0,0,1,4,.2c1.2.14,2.22.29,3,.44h.59v2.33l-4.12-.16c-1.07,0-2.5-.07-4.31-.07a4.37,4.37,0,0,0-3.13.92,3.37,3.37,0,0,0-.94,2.52v1.23a3.51,3.51,0,0,0,1.08,2.84,5.29,5.29,0,0,0,3.45.92h.6a11.41,11.41,0,0,0,3.93-.64,10.48,10.48,0,0,0,3-1.7l.64,1.65h-.74a5.85,5.85,0,0,1-2.76,3,10.9,10.9,0,0,1-5,1,7.94,7.94,0,0,1-5.7-2,7.12,7.12,0,0,1-2-5.38A6.75,6.75,0,0,1,7232.31,7199.34Zm2.25-12.25a27.69,27.69,0,0,1,3.64-.23,15.9,15.9,0,0,1,6.54,1.13,7,7,0,0,1,3.57,3.36,12.75,12.75,0,0,1,1.1,5.68v14.4h-2.47l-1-3.62v-12.18a5.78,5.78,0,0,0-.81-3.32,4.47,4.47,0,0,0-2.42-1.69,14.36,14.36,0,0,0-4.28-.53,26.09,26.09,0,0,0-3.75.3,30.5,30.5,0,0,0-3,.57l-.18-.23v-3.11C7232.38,7187.43,7233.41,7187.24,7234.56,7187.09Z" transform="translate(-7057.16 -7177.3)"/><path class="cls-1" d="M7258.17,7187.27l1.05,3.62v20.54h-3.57v-24.18Zm4.09.6a8.89,8.89,0,0,1,4.38-1,7.81,7.81,0,0,1,5.47,1.86q2,1.85,2,6v16.7h-3.46V7193.8a3.89,3.89,0,0,0-.48-2.06,3.07,3.07,0,0,0-1.56-1.21,8.25,8.25,0,0,0-3-.44,12.27,12.27,0,0,0-3.61.57,7.16,7.16,0,0,0-2.89,1.63l-.45-1.56h.73a7.65,7.65,0,0,1,2.87-2.86Z" transform="translate(-7057.16 -7177.3)"/><path class="cls-1" d="M7283.65,7210.51a8.53,8.53,0,0,1-3.2-4.17,18.55,18.55,0,0,1-1.13-6.84,17,17,0,0,1,1.33-7.14,9,9,0,0,1,3.66-4.17,10.81,10.81,0,0,1,5.45-1.33,15.45,15.45,0,0,1,3.11.28,13.76,13.76,0,0,1,2.8.87h.73l-.37,2.79q-1.5-.31-3-.51a27.41,27.41,0,0,0-3.14-.18,9.3,9.3,0,0,0-4.1.76,4.63,4.63,0,0,0-2.26,2.56,13.5,13.5,0,0,0-.74,5V7201a12.3,12.3,0,0,0,.67,4.5,4.61,4.61,0,0,0,2,2.43,7.2,7.2,0,0,0,3.59.76,9.51,9.51,0,0,0,6.78-2.43l.69,1.74h-.78a5.72,5.72,0,0,1-2.66,2.93,9.71,9.71,0,0,1-4.62,1A8.71,8.71,0,0,1,7283.65,7210.51Zm12.2-2.86V7177.3h3.52v34.13h-2.47Z" transform="translate(-7057.16 -7177.3)"/><path class="cls-1" d="M7308.11,7187.27l1.33,3.62v20.54h-3.52v-24.18Zm4.17.65a7.56,7.56,0,0,1,4-1,6.43,6.43,0,0,1,1.24.11,5.64,5.64,0,0,1,.78.21v3.11l-.19.19a11.42,11.42,0,0,0-1.55-.1,13.82,13.82,0,0,0-3.39.37,8.59,8.59,0,0,0-2.38,1,8.71,8.71,0,0,0-1.88,1.6l-.09-2.61h.83A7,7,0,0,1,7312.28,7187.92Z" transform="translate(-7057.16 -7177.3)"/><path class="cls-1" d="M7324.71,7199.34q2-1.91,6.39-1.9a35.6,35.6,0,0,1,4,.2c1.21.14,2.23.29,3,.44h.59v2.33l-4.12-.16c-1.07,0-2.5-.07-4.31-.07a4.37,4.37,0,0,0-3.13.92,3.37,3.37,0,0,0-.94,2.52v1.23a3.51,3.51,0,0,0,1.08,2.84,5.29,5.29,0,0,0,3.45.92h.6a11.41,11.41,0,0,0,3.93-.64,10.48,10.48,0,0,0,3-1.7l.64,1.65h-.74a5.85,5.85,0,0,1-2.76,3,10.9,10.9,0,0,1-5,1,7.94,7.94,0,0,1-5.7-2,7.12,7.12,0,0,1-2-5.38A6.75,6.75,0,0,1,7324.71,7199.34Zm2.25-12.25a27.54,27.54,0,0,1,3.63-.23,16,16,0,0,1,6.55,1.13,7,7,0,0,1,3.57,3.36,12.75,12.75,0,0,1,1.1,5.68v14.4h-2.47l-1.05-3.62v-12.18a5.78,5.78,0,0,0-.81-3.32,4.47,4.47,0,0,0-2.42-1.69,14.36,14.36,0,0,0-4.28-.53,26.09,26.09,0,0,0-3.75.3,30.5,30.5,0,0,0-3,.57l-.18-.23v-3.11C7324.78,7187.43,7325.81,7187.24,7327,7187.09Z" transform="translate(-7057.16 -7177.3)"/></svg>